<svg width="414" height="169" viewBox="0 0 414 169" fill="none" xmlns="http://www.w3.org/2000/svg">
<path d="M22.6509 167.439C22.3159 167.439 22.0208 167.376 21.7656 167.248C21.5104 167.12 21.2951 166.953 21.1196 166.746C20.9601 166.538 20.8325 166.299 20.7368 166.028C20.6571 165.757 20.6172 165.486 20.6172 165.214C20.6172 164.975 20.681 164.648 20.8086 164.233C20.9362 163.803 21.0957 163.324 21.2871 162.798C21.4945 162.271 21.7178 161.721 21.957 161.147C22.1963 160.573 22.4276 160.022 22.6509 159.496C22.8742 158.97 23.0656 158.483 23.2251 158.037C23.3846 157.59 23.4963 157.239 23.5601 156.984C23.6239 156.697 23.7036 156.354 23.7993 155.955C23.895 155.556 23.9987 155.126 24.1104 154.663C24.238 154.185 24.3576 153.69 24.4692 153.18C24.5968 152.653 24.7244 152.127 24.8521 151.601C24.6287 151.648 24.3496 151.696 24.0146 151.744C23.6956 151.776 23.3527 151.808 22.9858 151.84C22.4595 151.888 21.9411 151.959 21.4307 152.055C20.9202 152.151 20.3939 152.263 19.8516 152.39C19.3252 152.502 18.7749 152.629 18.2007 152.773C17.6265 152.901 17.0124 153.036 16.3584 153.18C15.4014 153.387 14.4443 153.618 13.4873 153.874C12.5303 154.129 11.5334 154.256 10.4966 154.256C10.1776 154.256 9.88249 154.177 9.61133 154.017C9.34017 153.842 9.03711 153.714 8.70215 153.634C8.38314 154.145 8.08008 154.695 7.79297 155.285C7.50586 155.859 7.24268 156.458 7.00342 157.08C6.76416 157.686 6.54883 158.292 6.35742 158.898C6.16602 159.488 5.99854 160.046 5.85498 160.573C5.77523 160.86 5.70345 161.235 5.63965 161.697C5.5918 162.144 5.54395 162.606 5.49609 163.085C5.44824 163.548 5.40039 163.994 5.35254 164.425C5.30469 164.855 5.25684 165.198 5.20898 165.454C5.16113 165.693 5.06543 165.932 4.92188 166.171C4.77832 166.395 4.60286 166.602 4.39551 166.793C4.18815 166.985 3.95687 167.136 3.70166 167.248C3.44645 167.376 3.19124 167.439 2.93604 167.439C2.48942 167.439 2.12256 167.312 1.83545 167.057C1.56429 166.785 1.34098 166.458 1.16553 166.076C1.00602 165.677 0.894368 165.246 0.830566 164.784C0.766764 164.321 0.734863 163.898 0.734863 163.516C0.734863 162.543 0.854492 161.538 1.09375 160.501C1.33301 159.448 1.65202 158.388 2.05078 157.319C2.46549 156.234 2.94401 155.15 3.48633 154.065C4.0446 152.964 4.64274 151.872 5.28076 150.787C5.80713 149.814 6.4611 148.69 7.24268 147.414C8.02425 146.138 8.89355 144.83 9.85059 143.49C10.8236 142.134 11.8683 140.81 12.9849 139.518C14.1174 138.226 15.2897 137.078 16.502 136.073C17.7142 135.052 18.9583 134.23 20.2344 133.608C21.5104 132.986 22.7785 132.675 24.0386 132.675C25.3625 132.675 26.4631 132.915 27.3403 133.393C28.2336 133.872 28.9434 134.518 29.4697 135.331C29.9961 136.145 30.363 137.094 30.5703 138.178C30.7936 139.263 30.9053 140.411 30.9053 141.624C30.9053 142.692 30.8335 143.793 30.6899 144.925C30.5623 146.058 30.3949 147.166 30.1875 148.251C29.9961 149.336 29.7808 150.38 29.5415 151.385C29.3182 152.39 29.1108 153.299 28.9194 154.113L28.082 157.367C28.0501 157.462 27.9863 157.654 27.8906 157.941C27.8109 158.228 27.6992 158.579 27.5557 158.994C27.4281 159.392 27.2765 159.831 27.1011 160.31C26.9416 160.772 26.7741 161.235 26.5986 161.697C26.4391 162.144 26.2796 162.559 26.1201 162.941C25.9766 163.324 25.849 163.635 25.7373 163.875L25.7612 163.851C25.6496 164.265 25.5299 164.688 25.4023 165.119C25.2747 165.549 25.0993 165.94 24.876 166.291C24.6527 166.626 24.3656 166.905 24.0146 167.128C23.6637 167.336 23.2091 167.439 22.6509 167.439ZM23.8711 137.484C23.1533 137.484 22.4355 137.636 21.7178 137.939C21.016 138.226 20.3221 138.609 19.6362 139.087C18.9504 139.566 18.2804 140.124 17.6265 140.762C16.9884 141.4 16.3743 142.054 15.7842 142.724C15.21 143.394 14.6676 144.072 14.1572 144.758C13.6468 145.428 13.1842 146.05 12.7695 146.624C12.7057 146.72 12.618 146.847 12.5063 147.007C12.4106 147.15 12.307 147.318 12.1953 147.509C12.0996 147.685 12.0039 147.876 11.9082 148.083C11.8125 148.275 11.7327 148.45 11.6689 148.61H14.1333C15.0265 148.61 16.0474 148.546 17.1958 148.418C18.3442 148.291 19.4767 148.139 20.5933 147.964C21.7257 147.788 22.7625 147.613 23.7036 147.438C24.6447 147.246 25.3545 147.103 25.833 147.007C25.8968 146.799 25.9526 146.52 26.0005 146.169C26.0643 145.819 26.1201 145.428 26.168 144.997C26.2158 144.566 26.2477 144.112 26.2637 143.633C26.2956 143.139 26.3115 142.636 26.3115 142.126C26.3115 141.711 26.2956 141.241 26.2637 140.714C26.2318 140.172 26.1361 139.662 25.9766 139.183C25.8171 138.705 25.5698 138.306 25.2349 137.987C24.9159 137.652 24.4613 137.484 23.8711 137.484Z" fill="white" fill-opacity="0.25"/>
<path d="M35.0205 162.798C35.2598 161.873 35.5469 160.796 35.8818 159.568C36.2168 158.34 36.5677 157.04 36.9346 155.668C37.3174 154.296 37.7002 152.893 38.083 151.457C38.4658 150.021 38.8247 148.626 39.1597 147.27C39.1756 147.206 39.2314 147.103 39.3271 146.959C39.4229 146.799 39.5584 146.648 39.7339 146.504C39.9093 146.345 40.1326 146.209 40.4038 146.098C40.675 145.986 40.994 145.93 41.3608 145.93C41.632 145.93 41.8952 145.962 42.1504 146.026C42.4056 146.074 42.6289 146.153 42.8203 146.265C43.0277 146.377 43.1872 146.528 43.2988 146.72C43.4264 146.895 43.4902 147.103 43.4902 147.342C43.4902 147.39 43.4902 147.445 43.4902 147.509C43.4902 147.557 43.4823 147.605 43.4663 147.653L42.7964 150.189C42.0467 153.028 41.2811 155.875 40.4995 158.73C39.7339 161.586 38.9842 164.449 38.2505 167.32C38.2186 167.416 38.1707 167.535 38.1069 167.679C38.0431 167.822 37.9554 167.966 37.8438 168.109C37.7321 168.253 37.5965 168.373 37.437 168.468C37.2775 168.564 37.0861 168.612 36.8628 168.612C36.4481 168.612 36.0812 168.524 35.7622 168.349C35.4432 168.189 35.172 167.982 34.9487 167.727C34.7254 167.471 34.5579 167.192 34.4463 166.889C34.3346 166.586 34.2788 166.299 34.2788 166.028C34.2788 165.948 34.2788 165.876 34.2788 165.812C34.2788 165.749 34.2948 165.677 34.3267 165.597L35.0205 162.798ZM41.2651 138.035C41.3449 137.7 41.4884 137.293 41.6958 136.814C41.9032 136.336 42.27 135.905 42.7964 135.522C43.0516 135.379 43.3626 135.251 43.7295 135.14C44.0964 135.012 44.3595 134.948 44.519 134.948C44.6785 134.948 44.8381 135.004 44.9976 135.116C45.173 135.227 45.3245 135.347 45.4521 135.475C45.6117 135.634 45.7632 135.81 45.9067 136.001C46.3055 136.033 46.5607 136.176 46.6724 136.432C46.8 136.687 46.8638 136.99 46.8638 137.341C46.8638 137.596 46.8398 137.827 46.792 138.035C46.7441 138.242 46.7043 138.41 46.6724 138.537C46.5767 138.872 46.3932 139.183 46.1221 139.47C45.8509 139.741 45.5399 139.981 45.189 140.188C44.8381 140.379 44.4712 140.531 44.0884 140.643C43.7056 140.754 43.3706 140.81 43.0835 140.81C42.7166 140.81 42.4295 140.746 42.2222 140.619C42.0308 140.491 41.7835 140.22 41.4805 139.805C41.305 139.566 41.2013 139.382 41.1694 139.255C41.1535 139.111 41.1455 138.992 41.1455 138.896C41.1455 138.721 41.1535 138.569 41.1694 138.441C41.2013 138.298 41.2332 138.162 41.2651 138.035Z" fill="white" fill-opacity="0.25"/>
<path d="M64.4492 147.533C63.891 147.533 63.2928 147.669 62.6548 147.94C62.0168 148.195 61.3548 148.546 60.6689 148.993C59.9831 149.439 59.2812 149.95 58.5635 150.524C57.8617 151.082 57.1678 151.664 56.4819 152.271C56.131 152.574 55.7961 152.853 55.4771 153.108C55.158 153.347 54.839 153.531 54.52 153.658C54.2967 154.025 54.0575 154.512 53.8022 155.118C53.563 155.708 53.3237 156.362 53.0845 157.08C52.8452 157.781 52.6139 158.507 52.3906 159.257C52.1833 159.991 52.0078 160.676 51.8643 161.314C51.7845 161.649 51.7207 161.976 51.6729 162.295C51.625 162.614 51.5692 162.957 51.5054 163.324C51.4416 163.675 51.3618 164.058 51.2661 164.473C51.1864 164.887 51.0827 165.35 50.9551 165.86C50.8753 166.163 50.7477 166.411 50.5723 166.602C50.3968 166.778 50.2134 166.913 50.022 167.009C49.8306 167.104 49.6471 167.16 49.4717 167.176C49.2962 167.208 49.1606 167.224 49.0649 167.224C48.4588 167.224 47.9644 167.081 47.5815 166.793C47.1987 166.506 47.0073 165.948 47.0073 165.119C47.0073 164.895 47.0153 164.664 47.0312 164.425C47.0472 164.17 47.0951 163.89 47.1748 163.587C47.5257 162.072 47.8607 160.708 48.1797 159.496C48.5146 158.284 48.8496 157.159 49.1846 156.123C49.5195 155.086 49.8545 154.113 50.1895 153.204C50.5404 152.278 50.8913 151.353 51.2422 150.428C51.609 149.487 51.9839 148.522 52.3667 147.533C52.7655 146.528 53.1882 145.42 53.6348 144.208C53.7305 143.936 53.9777 143.713 54.3765 143.538C54.7912 143.346 55.2298 143.25 55.6924 143.25C56.2985 143.25 56.793 143.386 57.1758 143.657C57.5745 143.928 57.7739 144.319 57.7739 144.83C57.7739 144.877 57.758 144.965 57.7261 145.093C57.6942 145.22 57.6463 145.356 57.5825 145.5L56.5298 147.988C57.1997 147.461 57.8936 146.935 58.6113 146.409C59.3451 145.882 60.0947 145.412 60.8604 144.997C61.626 144.566 62.3916 144.223 63.1572 143.968C63.9388 143.697 64.7044 143.562 65.4541 143.562C66.9854 143.562 68.1816 143.976 69.043 144.806C69.9043 145.619 70.335 146.887 70.335 148.61C70.335 149.599 70.1595 150.723 69.8086 151.983C69.4736 153.243 69.043 154.599 68.5166 156.051C68.0062 157.486 67.4479 159.002 66.8418 160.597C66.2516 162.176 65.7013 163.787 65.1909 165.43C65.0474 165.876 64.8958 166.251 64.7363 166.554C64.5928 166.857 64.4173 167.097 64.21 167.272C64.0026 167.463 63.7554 167.599 63.4683 167.679C63.1971 167.758 62.8621 167.798 62.4634 167.798C61.8413 167.798 61.4106 167.679 61.1714 167.439C60.9321 167.216 60.8125 166.849 60.8125 166.339C60.8125 165.892 60.8763 165.35 61.0039 164.712C61.1475 164.058 61.3389 163.348 61.5781 162.583C61.8333 161.801 62.1204 160.972 62.4395 160.094C62.7744 159.217 63.1333 158.324 63.5161 157.415C63.8192 156.681 64.1143 155.947 64.4014 155.213C64.7044 154.48 64.9676 153.77 65.1909 153.084C65.4302 152.398 65.6216 151.744 65.7651 151.122C65.9087 150.5 65.9805 149.926 65.9805 149.399C65.9805 148.905 65.8688 148.474 65.6455 148.107C65.4382 147.725 65.0394 147.533 64.4492 147.533Z" fill="white" fill-opacity="0.25"/>
<path d="M84.9536 133.656C84.9536 133.991 84.6426 134.813 84.0205 136.121C82.6647 138.816 81.4844 142.094 80.4795 145.954C80.2402 146.975 79.4587 147.485 78.1348 147.485C76.5716 147.485 75.79 146.799 75.79 145.428C75.79 144.327 76.7231 141.831 78.5894 137.939C80.4715 134.047 81.9709 132.101 83.0874 132.101C84.3315 132.101 84.9536 132.619 84.9536 133.656Z" fill="white" fill-opacity="0.25"/>
<path d="M88.9253 159.735C88.9253 158.396 89.0768 157.008 89.3799 155.572C89.6829 154.121 90.002 152.733 90.3369 151.409C89.9222 151.393 89.4995 151.329 89.0688 151.218C88.6382 151.106 88.2474 150.955 87.8965 150.763C87.5456 150.572 87.2585 150.34 87.0352 150.069C86.8118 149.782 86.7002 149.455 86.7002 149.088C86.7002 148.945 86.7321 148.761 86.7959 148.538C86.8597 148.315 86.9474 148.099 87.0591 147.892C87.1867 147.669 87.3462 147.485 87.5376 147.342C87.729 147.182 87.9443 147.103 88.1836 147.103H91.3896C91.6927 147.103 91.9001 146.975 92.0117 146.72C92.1234 146.449 92.2111 146.185 92.2749 145.93C92.4823 145.005 92.6737 144.208 92.8491 143.538C93.0405 142.852 93.2 142.278 93.3276 141.815C93.4552 141.336 93.5509 140.954 93.6147 140.667C93.6945 140.363 93.7344 140.124 93.7344 139.949C93.7344 139.741 93.7264 139.542 93.7104 139.351C93.6945 139.159 93.6865 138.896 93.6865 138.561V138.322C93.6865 138.194 93.6945 138.027 93.7104 137.819C93.7424 137.612 93.8221 137.317 93.9497 136.934C94.0454 136.631 94.2209 136.344 94.4761 136.073C94.7313 135.802 95.1061 135.666 95.6006 135.666C96.0312 135.666 96.3981 135.754 96.7012 135.929C97.0042 136.105 97.2515 136.336 97.4429 136.623C97.6343 136.91 97.7778 137.237 97.8735 137.604C97.9692 137.971 98.0171 138.338 98.0171 138.705C98.0171 139.103 97.9772 139.462 97.8975 139.781L96.1509 146.48C97.0122 146.337 97.7778 146.201 98.4478 146.074C99.1177 145.946 99.7876 145.819 100.458 145.691C101.191 145.547 101.821 145.412 102.348 145.284C102.89 145.157 103.353 145.053 103.735 144.973C104.118 144.877 104.437 144.806 104.692 144.758C104.964 144.694 105.187 144.662 105.362 144.662C105.618 144.662 105.873 144.686 106.128 144.734C106.399 144.766 106.63 144.83 106.822 144.925C107.029 145.021 107.197 145.157 107.324 145.332C107.452 145.507 107.516 145.739 107.516 146.026C107.516 146.409 107.436 146.752 107.276 147.055C107.133 147.342 106.941 147.597 106.702 147.82C106.463 148.028 106.192 148.203 105.889 148.347C105.586 148.474 105.283 148.57 104.979 148.634C104.724 148.682 104.389 148.753 103.975 148.849C103.576 148.945 103.129 149.049 102.635 149.16C102.156 149.272 101.654 149.391 101.127 149.519C100.601 149.647 100.091 149.774 99.5962 149.902C98.8625 150.093 98.2324 150.253 97.7061 150.38C97.1956 150.508 96.757 150.604 96.3901 150.667C96.0233 150.731 95.7202 150.779 95.481 150.811C95.2576 150.843 95.0742 150.859 94.9307 150.859C94.6276 151.768 94.3644 152.661 94.1411 153.539C93.9178 154.416 93.7264 155.237 93.5669 156.003C93.4233 156.753 93.3117 157.431 93.2319 158.037C93.1681 158.627 93.1362 159.089 93.1362 159.424C93.1362 159.855 93.1761 160.27 93.2559 160.668C93.3356 161.051 93.4712 161.386 93.6626 161.673C93.854 161.96 94.1092 162.192 94.4282 162.367C94.7632 162.527 95.1779 162.606 95.6724 162.606C96.5177 162.606 97.3472 162.375 98.1606 161.913C98.9741 161.45 99.7477 160.868 100.481 160.166C101.231 159.448 101.933 158.667 102.587 157.821C103.257 156.976 103.871 156.17 104.429 155.405C104.621 155.118 104.868 154.974 105.171 154.974C105.267 154.974 105.378 154.99 105.506 155.022C105.649 155.054 105.785 155.11 105.913 155.189C106.04 155.269 106.144 155.373 106.224 155.5C106.319 155.628 106.367 155.78 106.367 155.955C106.367 156.083 106.359 156.178 106.343 156.242C106.088 157.231 105.689 158.228 105.147 159.233C104.621 160.222 104.078 161.219 103.52 162.224C103.329 162.575 103.073 162.917 102.754 163.252C102.451 163.587 102.116 163.914 101.75 164.233C101.383 164.536 101 164.832 100.601 165.119C100.202 165.39 99.8275 165.637 99.4766 165.86C98.8704 166.243 98.2085 166.506 97.4907 166.65C96.7729 166.793 96.0791 166.865 95.4092 166.865C94.3724 166.865 93.4473 166.682 92.6338 166.315C91.8363 165.932 91.1584 165.422 90.6001 164.784C90.0578 164.13 89.6431 163.372 89.356 162.511C89.0688 161.649 88.9253 160.724 88.9253 159.735Z" fill="white" fill-opacity="0.25"/>
<path d="M152.305 147.533C151.746 147.533 151.148 147.669 150.51 147.94C149.872 148.195 149.21 148.546 148.524 148.993C147.839 149.439 147.137 149.95 146.419 150.524C145.717 151.082 145.023 151.664 144.337 152.271C143.986 152.574 143.652 152.853 143.333 153.108C143.014 153.347 142.694 153.531 142.375 153.658C142.152 154.025 141.913 154.512 141.658 155.118C141.418 155.708 141.179 156.362 140.94 157.08C140.701 157.781 140.469 158.507 140.246 159.257C140.039 159.991 139.863 160.676 139.72 161.314C139.64 161.649 139.576 161.976 139.528 162.295C139.48 162.614 139.425 162.957 139.361 163.324C139.297 163.675 139.217 164.058 139.122 164.473C139.042 164.887 138.938 165.35 138.811 165.86C138.731 166.163 138.603 166.411 138.428 166.602C138.252 166.778 138.069 166.913 137.877 167.009C137.686 167.104 137.503 167.16 137.327 167.176C137.152 167.208 137.016 167.224 136.92 167.224C136.314 167.224 135.82 167.081 135.437 166.793C135.054 166.506 134.863 165.948 134.863 165.119C134.863 164.895 134.871 164.664 134.887 164.425C134.903 164.17 134.951 163.89 135.03 163.587C135.381 162.072 135.716 160.708 136.035 159.496C136.37 158.284 136.705 157.159 137.04 156.123C137.375 155.086 137.71 154.113 138.045 153.204C138.396 152.278 138.747 151.353 139.098 150.428C139.465 149.487 139.839 148.522 140.222 147.533C140.621 146.528 141.044 145.42 141.49 144.208C141.586 143.936 141.833 143.713 142.232 143.538C142.647 143.346 143.085 143.25 143.548 143.25C144.154 143.25 144.648 143.386 145.031 143.657C145.43 143.928 145.629 144.319 145.629 144.83C145.629 144.877 145.613 144.965 145.582 145.093C145.55 145.22 145.502 145.356 145.438 145.5L144.385 147.988C145.055 147.461 145.749 146.935 146.467 146.409C147.201 145.882 147.95 145.412 148.716 144.997C149.481 144.566 150.247 144.223 151.013 143.968C151.794 143.697 152.56 143.562 153.31 143.562C154.841 143.562 156.037 143.976 156.898 144.806C157.76 145.619 158.19 146.887 158.19 148.61C158.19 149.599 158.015 150.723 157.664 151.983C157.329 153.243 156.898 154.599 156.372 156.051C155.862 157.486 155.303 159.002 154.697 160.597C154.107 162.176 153.557 163.787 153.046 165.43C152.903 165.876 152.751 166.251 152.592 166.554C152.448 166.857 152.273 167.097 152.065 167.272C151.858 167.463 151.611 167.599 151.324 167.679C151.053 167.758 150.718 167.798 150.319 167.798C149.697 167.798 149.266 167.679 149.027 167.439C148.788 167.216 148.668 166.849 148.668 166.339C148.668 165.892 148.732 165.35 148.859 164.712C149.003 164.058 149.194 163.348 149.434 162.583C149.689 161.801 149.976 160.972 150.295 160.094C150.63 159.217 150.989 158.324 151.372 157.415C151.675 156.681 151.97 155.947 152.257 155.213C152.56 154.48 152.823 153.77 153.046 153.084C153.286 152.398 153.477 151.744 153.621 151.122C153.764 150.5 153.836 149.926 153.836 149.399C153.836 148.905 153.724 148.474 153.501 148.107C153.294 147.725 152.895 147.533 152.305 147.533Z" fill="white" fill-opacity="0.25"/>
<path d="M162.641 158.013C162.88 157.04 163.247 156.011 163.741 154.926C164.252 153.826 164.914 152.717 165.727 151.601C166.541 150.484 167.514 149.391 168.646 148.323C169.794 147.254 171.118 146.257 172.618 145.332C172.857 145.188 173.224 145.037 173.718 144.877C174.213 144.702 174.723 144.598 175.25 144.566C175.872 143.896 176.709 143.562 177.762 143.562C179.006 143.562 180.051 143.881 180.896 144.519C181.757 145.141 182.467 145.994 183.025 147.079C183.201 147.43 183.36 147.772 183.504 148.107C183.663 148.442 183.791 148.801 183.887 149.184C183.998 149.551 184.086 149.95 184.15 150.38C184.214 150.811 184.246 151.298 184.246 151.84C184.246 153.1 184.046 154.384 183.647 155.692C183.249 157 182.682 158.276 181.949 159.52C181.215 160.764 180.322 161.96 179.269 163.109C178.232 164.241 177.076 165.262 175.8 166.171C174.938 166.793 173.981 167.272 172.929 167.607C171.892 167.958 170.728 168.133 169.436 168.133C168.207 168.133 167.139 167.966 166.229 167.631C165.336 167.312 164.587 166.849 163.98 166.243C163.39 165.637 162.944 164.911 162.641 164.066C162.354 163.221 162.21 162.279 162.21 161.243C162.21 160.238 162.354 159.161 162.641 158.013ZM166.612 158.324C166.517 158.691 166.445 159.042 166.397 159.376C166.365 159.695 166.349 160.007 166.349 160.31C166.349 160.836 166.413 161.33 166.541 161.793C166.684 162.24 166.907 162.63 167.21 162.965C167.514 163.284 167.888 163.54 168.335 163.731C168.798 163.906 169.356 163.994 170.01 163.994C171.222 163.994 172.347 163.691 173.383 163.085C174.436 162.463 175.369 161.689 176.183 160.764C176.996 159.839 177.674 158.85 178.216 157.797C178.775 156.729 179.165 155.748 179.389 154.854C179.532 154.296 179.652 153.77 179.748 153.275C179.859 152.781 179.915 152.326 179.915 151.912C179.915 151.497 179.835 151.114 179.676 150.763C179.532 150.396 179.341 149.99 179.102 149.543C178.958 149.272 178.814 148.993 178.671 148.706C178.527 148.403 178.4 148.107 178.288 147.82C178.16 148.044 178.025 148.243 177.881 148.418C177.738 148.578 177.522 148.729 177.235 148.873C176.948 149.001 176.557 149.12 176.063 149.232C175.569 149.344 174.923 149.439 174.125 149.519C173.599 149.694 173.064 149.966 172.522 150.333C171.98 150.699 171.445 151.13 170.919 151.625C170.409 152.119 169.914 152.653 169.436 153.228C168.973 153.802 168.55 154.392 168.167 154.998C167.801 155.588 167.474 156.17 167.187 156.745C166.915 157.319 166.724 157.845 166.612 158.324Z" fill="white" fill-opacity="0.25"/>
<path d="M212.837 162.941C212.965 162.941 213.076 162.957 213.172 162.989C213.284 163.021 213.403 163.061 213.531 163.109C213.658 163.141 213.802 163.173 213.961 163.205C214.121 163.236 214.328 163.252 214.583 163.252C215.333 163.252 216.163 163.173 217.072 163.013C217.997 162.854 218.866 162.646 219.68 162.391C220.493 162.136 221.187 161.849 221.761 161.53C222.351 161.195 222.686 160.852 222.766 160.501C222.814 160.31 222.838 160.142 222.838 159.999C222.838 159.727 222.702 159.472 222.431 159.233C222.176 158.978 221.849 158.738 221.45 158.515C221.051 158.292 220.621 158.084 220.158 157.893C219.696 157.702 219.265 157.526 218.866 157.367L218.053 157.032C217.638 156.872 217.231 156.681 216.833 156.458C216.434 156.218 216.059 155.947 215.708 155.644C215.373 155.341 215.07 154.99 214.799 154.591C214.544 154.177 214.352 153.706 214.225 153.18C214.161 152.956 214.105 152.733 214.057 152.51C214.025 152.286 214.009 152.047 214.009 151.792C214.009 151.377 214.145 150.907 214.416 150.38C214.703 149.838 215.078 149.304 215.541 148.777C216.019 148.251 216.553 147.749 217.144 147.27C217.75 146.792 218.38 146.393 219.034 146.074C219.512 145.739 219.975 145.436 220.421 145.165C220.868 144.893 221.315 144.662 221.761 144.471C222.224 144.279 222.686 144.128 223.149 144.016C223.627 143.904 224.13 143.849 224.656 143.849C225.135 143.849 225.653 143.873 226.211 143.92C226.77 143.968 227.28 144.08 227.743 144.255C228.205 144.431 228.588 144.694 228.891 145.045C229.21 145.38 229.37 145.834 229.37 146.409C229.37 146.584 229.346 146.815 229.298 147.103C229.25 147.39 229.17 147.677 229.059 147.964C228.947 148.251 228.811 148.498 228.652 148.706C228.492 148.913 228.301 149.017 228.078 149.017C227.711 149.017 227.408 148.945 227.168 148.801C226.929 148.658 226.714 148.506 226.522 148.347C226.331 148.171 226.132 148.012 225.924 147.868C225.717 147.725 225.462 147.653 225.159 147.653C224.792 147.653 224.361 147.725 223.867 147.868C223.388 147.996 222.894 148.179 222.383 148.418C221.873 148.642 221.37 148.905 220.876 149.208C220.397 149.511 219.959 149.822 219.56 150.141C219.177 150.46 218.866 150.779 218.627 151.098C218.388 151.401 218.268 151.68 218.268 151.936C218.268 152.207 218.356 152.43 218.531 152.605C218.707 152.781 218.93 152.932 219.201 153.06C219.552 153.251 219.951 153.443 220.397 153.634C220.86 153.826 221.323 154.017 221.785 154.208C222.248 154.4 222.694 154.591 223.125 154.783C223.572 154.974 223.954 155.15 224.273 155.309C224.704 155.532 225.087 155.756 225.422 155.979C225.773 156.186 226.068 156.418 226.307 156.673C226.546 156.928 226.73 157.215 226.857 157.534C226.985 157.853 227.049 158.228 227.049 158.659C227.049 158.866 227.033 159.073 227.001 159.281C226.969 159.488 226.921 159.727 226.857 159.999C226.81 160.238 226.722 160.517 226.594 160.836C226.483 161.155 226.355 161.474 226.211 161.793C226.084 162.096 225.948 162.375 225.805 162.63C225.661 162.87 225.542 163.029 225.446 163.109C224.824 163.683 224.09 164.225 223.245 164.736C222.399 165.23 221.514 165.669 220.589 166.052C219.68 166.419 218.763 166.714 217.837 166.937C216.928 167.16 216.091 167.272 215.325 167.272C214.942 167.272 214.52 167.2 214.057 167.057C213.595 166.897 213.164 166.698 212.765 166.458C212.382 166.203 212.055 165.916 211.784 165.597C211.529 165.278 211.401 164.959 211.401 164.64C211.401 164.481 211.449 164.305 211.545 164.114C211.641 163.906 211.76 163.723 211.904 163.563C212.047 163.388 212.199 163.244 212.358 163.133C212.534 163.005 212.693 162.941 212.837 162.941Z" fill="white" fill-opacity="0.25"/>
<path d="M249.061 168.54C248.072 168.54 247.394 168.325 247.027 167.894C246.66 167.463 246.477 166.873 246.477 166.124C246.477 165.725 246.516 165.294 246.596 164.832C246.676 164.369 246.78 163.89 246.907 163.396C247.131 162.551 247.378 161.713 247.649 160.884C247.936 160.038 248.215 159.193 248.486 158.348C248.773 157.486 249.045 156.633 249.3 155.788C249.571 154.926 249.81 154.065 250.018 153.204C250.034 153.124 250.042 153.02 250.042 152.893C250.042 152.669 249.986 152.494 249.874 152.366C249.762 152.239 249.595 152.175 249.372 152.175C249.021 152.175 248.638 152.247 248.223 152.39C247.824 152.534 247.489 152.693 247.218 152.869C246.15 153.586 245.208 154.296 244.395 154.998C243.597 155.7 242.864 156.434 242.194 157.199C241.524 157.965 240.886 158.786 240.28 159.664C239.69 160.525 239.068 161.474 238.414 162.511C237.855 163.548 237.441 164.433 237.169 165.167C236.898 165.884 236.643 166.466 236.404 166.913C236.181 167.36 235.925 167.679 235.638 167.87C235.351 168.077 234.92 168.181 234.346 168.181C233.708 168.181 233.254 167.998 232.982 167.631C232.727 167.264 232.6 166.785 232.6 166.195C232.6 165.733 232.671 165.214 232.815 164.64L240.71 133.01C240.758 132.819 240.838 132.611 240.95 132.388C241.061 132.165 241.213 131.958 241.404 131.766C241.596 131.575 241.819 131.415 242.074 131.288C242.345 131.16 242.648 131.096 242.983 131.096C243.239 131.096 243.51 131.112 243.797 131.144C244.084 131.16 244.339 131.208 244.562 131.288C244.802 131.351 244.993 131.463 245.137 131.623C245.296 131.782 245.376 131.989 245.376 132.245C245.376 132.308 245.36 132.444 245.328 132.651C245.296 132.843 245.248 133.066 245.185 133.321C244.323 136.783 243.398 140.387 242.409 144.136C241.436 147.884 240.447 151.672 239.442 155.5C240.415 154.304 241.428 153.212 242.481 152.223C243.534 151.218 244.61 150.356 245.711 149.639C246.827 148.921 247.976 148.363 249.156 147.964C250.353 147.549 251.589 147.342 252.865 147.342C253.678 147.342 254.308 147.605 254.755 148.131C255.201 148.642 255.425 149.296 255.425 150.093C255.425 150.46 255.377 150.819 255.281 151.17C255.09 151.904 254.875 152.629 254.635 153.347C254.396 154.049 254.149 154.759 253.894 155.477C253.638 156.194 253.383 156.928 253.128 157.678C252.873 158.411 252.649 159.169 252.458 159.951C252.203 160.956 252.027 161.913 251.932 162.822C251.836 163.715 251.772 164.433 251.74 164.975C251.708 165.438 251.637 165.884 251.525 166.315C251.413 166.746 251.246 167.12 251.022 167.439C250.815 167.774 250.544 168.038 250.209 168.229C249.89 168.436 249.507 168.54 249.061 168.54Z" fill="white" fill-opacity="0.25"/>
<path d="M259.444 162.798C259.684 161.873 259.971 160.796 260.306 159.568C260.641 158.34 260.992 157.04 261.358 155.668C261.741 154.296 262.124 152.893 262.507 151.457C262.89 150.021 263.249 148.626 263.583 147.27C263.599 147.206 263.655 147.103 263.751 146.959C263.847 146.799 263.982 146.648 264.158 146.504C264.333 146.345 264.556 146.209 264.828 146.098C265.099 145.986 265.418 145.93 265.785 145.93C266.056 145.93 266.319 145.962 266.574 146.026C266.829 146.074 267.053 146.153 267.244 146.265C267.451 146.377 267.611 146.528 267.723 146.72C267.85 146.895 267.914 147.103 267.914 147.342C267.914 147.39 267.914 147.445 267.914 147.509C267.914 147.557 267.906 147.605 267.89 147.653L267.22 150.189C266.471 153.028 265.705 155.875 264.923 158.73C264.158 161.586 263.408 164.449 262.674 167.32C262.642 167.416 262.595 167.535 262.531 167.679C262.467 167.822 262.379 167.966 262.268 168.109C262.156 168.253 262.02 168.373 261.861 168.468C261.701 168.564 261.51 168.612 261.287 168.612C260.872 168.612 260.505 168.524 260.186 168.349C259.867 168.189 259.596 167.982 259.373 167.727C259.149 167.471 258.982 167.192 258.87 166.889C258.758 166.586 258.703 166.299 258.703 166.028C258.703 165.948 258.703 165.876 258.703 165.812C258.703 165.749 258.719 165.677 258.75 165.597L259.444 162.798ZM265.689 138.035C265.769 137.7 265.912 137.293 266.12 136.814C266.327 136.336 266.694 135.905 267.22 135.522C267.475 135.379 267.786 135.251 268.153 135.14C268.52 135.012 268.783 134.948 268.943 134.948C269.102 134.948 269.262 135.004 269.421 135.116C269.597 135.227 269.748 135.347 269.876 135.475C270.035 135.634 270.187 135.81 270.331 136.001C270.729 136.033 270.985 136.176 271.096 136.432C271.224 136.687 271.288 136.99 271.288 137.341C271.288 137.596 271.264 137.827 271.216 138.035C271.168 138.242 271.128 138.41 271.096 138.537C271 138.872 270.817 139.183 270.546 139.47C270.275 139.741 269.964 139.981 269.613 140.188C269.262 140.379 268.895 140.531 268.512 140.643C268.129 140.754 267.794 140.81 267.507 140.81C267.14 140.81 266.853 140.746 266.646 140.619C266.455 140.491 266.207 140.22 265.904 139.805C265.729 139.566 265.625 139.382 265.593 139.255C265.577 139.111 265.569 138.992 265.569 138.896C265.569 138.721 265.577 138.569 265.593 138.441C265.625 138.298 265.657 138.162 265.689 138.035Z" fill="white" fill-opacity="0.25"/>
<path d="M275.307 159.735C275.307 158.396 275.459 157.008 275.762 155.572C276.065 154.121 276.384 152.733 276.719 151.409C276.304 151.393 275.881 151.329 275.451 151.218C275.02 151.106 274.629 150.955 274.278 150.763C273.927 150.572 273.64 150.34 273.417 150.069C273.194 149.782 273.082 149.455 273.082 149.088C273.082 148.945 273.114 148.761 273.178 148.538C273.242 148.315 273.329 148.099 273.441 147.892C273.569 147.669 273.728 147.485 273.919 147.342C274.111 147.182 274.326 147.103 274.565 147.103H277.771C278.075 147.103 278.282 146.975 278.394 146.72C278.505 146.449 278.593 146.185 278.657 145.93C278.864 145.005 279.056 144.208 279.231 143.538C279.422 142.852 279.582 142.278 279.709 141.815C279.837 141.336 279.933 140.954 279.997 140.667C280.076 140.363 280.116 140.124 280.116 139.949C280.116 139.741 280.108 139.542 280.092 139.351C280.076 139.159 280.068 138.896 280.068 138.561V138.322C280.068 138.194 280.076 138.027 280.092 137.819C280.124 137.612 280.204 137.317 280.332 136.934C280.427 136.631 280.603 136.344 280.858 136.073C281.113 135.802 281.488 135.666 281.982 135.666C282.413 135.666 282.78 135.754 283.083 135.929C283.386 136.105 283.633 136.336 283.825 136.623C284.016 136.91 284.16 137.237 284.255 137.604C284.351 137.971 284.399 138.338 284.399 138.705C284.399 139.103 284.359 139.462 284.279 139.781L282.533 146.48C283.394 146.337 284.16 146.201 284.83 146.074C285.5 145.946 286.169 145.819 286.839 145.691C287.573 145.547 288.203 145.412 288.729 145.284C289.272 145.157 289.734 145.053 290.117 144.973C290.5 144.877 290.819 144.806 291.074 144.758C291.345 144.694 291.569 144.662 291.744 144.662C291.999 144.662 292.255 144.686 292.51 144.734C292.781 144.766 293.012 144.83 293.204 144.925C293.411 145.021 293.578 145.157 293.706 145.332C293.834 145.507 293.897 145.739 293.897 146.026C293.897 146.409 293.818 146.752 293.658 147.055C293.515 147.342 293.323 147.597 293.084 147.82C292.845 148.028 292.574 148.203 292.271 148.347C291.967 148.474 291.664 148.57 291.361 148.634C291.106 148.682 290.771 148.753 290.356 148.849C289.958 148.945 289.511 149.049 289.017 149.16C288.538 149.272 288.036 149.391 287.509 149.519C286.983 149.647 286.472 149.774 285.978 149.902C285.244 150.093 284.614 150.253 284.088 150.38C283.577 150.508 283.139 150.604 282.772 150.667C282.405 150.731 282.102 150.779 281.863 150.811C281.639 150.843 281.456 150.859 281.312 150.859C281.009 151.768 280.746 152.661 280.523 153.539C280.3 154.416 280.108 155.237 279.949 156.003C279.805 156.753 279.694 157.431 279.614 158.037C279.55 158.627 279.518 159.089 279.518 159.424C279.518 159.855 279.558 160.27 279.638 160.668C279.717 161.051 279.853 161.386 280.044 161.673C280.236 161.96 280.491 162.192 280.81 162.367C281.145 162.527 281.56 162.606 282.054 162.606C282.9 162.606 283.729 162.375 284.542 161.913C285.356 161.45 286.13 160.868 286.863 160.166C287.613 159.448 288.315 158.667 288.969 157.821C289.639 156.976 290.253 156.17 290.811 155.405C291.002 155.118 291.25 154.974 291.553 154.974C291.648 154.974 291.76 154.99 291.888 155.022C292.031 155.054 292.167 155.11 292.294 155.189C292.422 155.269 292.526 155.373 292.605 155.5C292.701 155.628 292.749 155.78 292.749 155.955C292.749 156.083 292.741 156.178 292.725 156.242C292.47 157.231 292.071 158.228 291.529 159.233C291.002 160.222 290.46 161.219 289.902 162.224C289.71 162.575 289.455 162.917 289.136 163.252C288.833 163.587 288.498 163.914 288.131 164.233C287.764 164.536 287.382 164.832 286.983 165.119C286.584 165.39 286.209 165.637 285.858 165.86C285.252 166.243 284.59 166.506 283.873 166.65C283.155 166.793 282.461 166.865 281.791 166.865C280.754 166.865 279.829 166.682 279.016 166.315C278.218 165.932 277.54 165.422 276.982 164.784C276.44 164.13 276.025 163.372 275.738 162.511C275.451 161.649 275.307 160.724 275.307 159.735Z" fill="white" fill-opacity="0.25"/>
<path d="M338.208 168.54C337.219 168.54 336.541 168.325 336.174 167.894C335.807 167.463 335.624 166.873 335.624 166.124C335.624 165.725 335.664 165.294 335.744 164.832C335.823 164.369 335.927 163.89 336.055 163.396C336.278 162.551 336.525 161.713 336.796 160.884C337.083 160.038 337.363 159.193 337.634 158.348C337.921 157.486 338.192 156.633 338.447 155.788C338.718 154.926 338.958 154.065 339.165 153.204C339.181 153.124 339.189 153.02 339.189 152.893C339.189 152.669 339.133 152.494 339.021 152.366C338.91 152.239 338.742 152.175 338.519 152.175C338.168 152.175 337.785 152.247 337.371 152.39C336.972 152.534 336.637 152.693 336.366 152.869C335.297 153.586 334.356 154.296 333.542 154.998C332.745 155.7 332.011 156.434 331.341 157.199C330.671 157.965 330.033 158.786 329.427 159.664C328.837 160.525 328.215 161.474 327.561 162.511C327.003 163.548 326.588 164.433 326.317 165.167C326.046 165.884 325.791 166.466 325.551 166.913C325.328 167.36 325.073 167.679 324.786 167.87C324.499 168.077 324.068 168.181 323.494 168.181C322.856 168.181 322.401 167.998 322.13 167.631C321.875 167.264 321.747 166.785 321.747 166.195C321.747 165.733 321.819 165.214 321.962 164.64L329.858 133.01C329.906 132.819 329.986 132.611 330.097 132.388C330.209 132.165 330.36 131.958 330.552 131.766C330.743 131.575 330.966 131.415 331.222 131.288C331.493 131.16 331.796 131.096 332.131 131.096C332.386 131.096 332.657 131.112 332.944 131.144C333.231 131.16 333.487 131.208 333.71 131.288C333.949 131.351 334.141 131.463 334.284 131.623C334.444 131.782 334.523 131.989 334.523 132.245C334.523 132.308 334.507 132.444 334.476 132.651C334.444 132.843 334.396 133.066 334.332 133.321C333.471 136.783 332.546 140.387 331.557 144.136C330.584 147.884 329.595 151.672 328.59 155.5C329.563 154.304 330.576 153.212 331.628 152.223C332.681 151.218 333.758 150.356 334.858 149.639C335.975 148.921 337.123 148.363 338.304 147.964C339.5 147.549 340.736 147.342 342.012 147.342C342.826 147.342 343.456 147.605 343.902 148.131C344.349 148.642 344.572 149.296 344.572 150.093C344.572 150.46 344.524 150.819 344.429 151.17C344.237 151.904 344.022 152.629 343.783 153.347C343.543 154.049 343.296 154.759 343.041 155.477C342.786 156.194 342.531 156.928 342.275 157.678C342.02 158.411 341.797 159.169 341.605 159.951C341.35 160.956 341.175 161.913 341.079 162.822C340.983 163.715 340.92 164.433 340.888 164.975C340.856 165.438 340.784 165.884 340.672 166.315C340.561 166.746 340.393 167.12 340.17 167.439C339.963 167.774 339.691 168.038 339.356 168.229C339.037 168.436 338.655 168.54 338.208 168.54Z" fill="white" fill-opacity="0.25"/>
<path d="M348.305 157.941C348.305 157.255 348.488 156.673 348.855 156.194C349.222 155.716 349.708 155.397 350.314 155.237C350.49 154.886 350.761 154.416 351.128 153.826C351.495 153.22 351.949 152.566 352.492 151.864C353.034 151.162 353.648 150.46 354.334 149.758C355.036 149.041 355.801 148.395 356.631 147.82C357.476 147.23 358.377 146.752 359.334 146.385C360.307 146.018 361.336 145.834 362.421 145.834C363.346 145.834 364.152 145.946 364.837 146.169C365.523 146.393 366.09 146.704 366.536 147.103C366.983 147.501 367.318 147.98 367.541 148.538C367.764 149.08 367.876 149.671 367.876 150.309C367.876 150.851 367.804 151.369 367.661 151.864C367.437 152.757 367.023 153.539 366.417 154.208C365.81 154.878 365.093 155.469 364.263 155.979C363.45 156.473 362.556 156.888 361.583 157.223C360.626 157.558 359.661 157.837 358.688 158.061C357.731 158.284 356.806 158.459 355.913 158.587C355.02 158.699 354.246 158.786 353.592 158.85C353.449 159.137 353.321 159.504 353.209 159.951C353.114 160.381 353.066 160.804 353.066 161.219C353.066 162.144 353.433 162.862 354.167 163.372C354.9 163.882 355.913 164.138 357.205 164.138C357.955 164.138 358.673 164.058 359.358 163.898C360.044 163.723 360.69 163.508 361.296 163.252C361.918 162.981 362.501 162.694 363.043 162.391C363.585 162.072 364.08 161.761 364.526 161.458C365.101 161.075 365.643 160.756 366.153 160.501C366.68 160.23 367.142 160.094 367.541 160.094C367.94 160.094 368.195 160.198 368.307 160.405C368.418 160.597 368.474 160.804 368.474 161.027C368.474 161.155 368.466 161.283 368.45 161.41C368.45 161.522 368.442 161.618 368.426 161.697C368.347 162.112 368.187 162.527 367.948 162.941C367.708 163.356 367.405 163.715 367.039 164.018C365.38 165.326 363.673 166.259 361.918 166.817C360.18 167.376 358.322 167.655 356.344 167.655C355.961 167.655 355.506 167.631 354.98 167.583C354.47 167.535 353.935 167.439 353.377 167.296C352.819 167.152 352.268 166.945 351.726 166.674C351.184 166.403 350.697 166.044 350.267 165.597C349.852 165.151 349.509 164.6 349.238 163.946C348.983 163.292 348.855 162.503 348.855 161.578C348.855 160.828 348.959 159.991 349.166 159.065C348.959 159.034 348.759 158.93 348.568 158.754C348.392 158.563 348.305 158.292 348.305 157.941ZM363.282 151.313C363.314 151.234 363.33 151.162 363.33 151.098C363.33 151.034 363.33 150.963 363.33 150.883C363.33 150.452 363.171 150.133 362.852 149.926C362.533 149.702 362.15 149.591 361.703 149.591C361.001 149.591 360.307 149.774 359.622 150.141C358.952 150.508 358.314 150.971 357.708 151.529C357.117 152.071 356.591 152.661 356.128 153.299C355.666 153.921 355.307 154.488 355.052 154.998C356.2 154.902 357.253 154.751 358.21 154.543C359.167 154.32 359.996 154.049 360.698 153.73C361.416 153.395 361.99 153.028 362.421 152.629C362.868 152.215 363.155 151.776 363.282 151.313Z" fill="white" fill-opacity="0.25"/>
<path d="M373.331 164.712C373.538 163.595 373.778 162.367 374.049 161.027C374.32 159.688 374.599 158.332 374.886 156.96C375.173 155.588 375.452 154.24 375.724 152.917C375.995 151.593 376.226 150.38 376.417 149.28C376.402 149.12 376.394 148.985 376.394 148.873C376.394 148.745 376.394 148.61 376.394 148.466C376.394 147.972 376.425 147.477 376.489 146.983C376.553 146.488 376.641 146.034 376.752 145.619C376.928 145.013 377.119 144.606 377.327 144.399C377.55 144.176 377.901 144.064 378.379 144.064C378.842 144.064 379.209 144.16 379.48 144.351C379.767 144.527 379.99 144.766 380.15 145.069C380.309 145.372 380.413 145.723 380.461 146.122C380.509 146.504 380.533 146.903 380.533 147.318C380.533 147.541 380.525 147.788 380.509 148.06C380.493 148.331 380.485 148.546 380.485 148.706C380.931 148.243 381.402 147.772 381.896 147.294C382.407 146.799 382.941 146.361 383.5 145.978C384.074 145.579 384.672 145.252 385.294 144.997C385.932 144.742 386.594 144.614 387.28 144.614C387.551 144.614 387.814 144.638 388.069 144.686C388.34 144.734 388.612 144.798 388.883 144.877C389.202 144.957 389.529 145.069 389.864 145.212C390.215 145.34 390.55 145.523 390.869 145.763C391.395 146.161 391.834 146.664 392.185 147.27C392.551 147.86 392.735 148.466 392.735 149.088C392.735 149.328 392.687 149.591 392.591 149.878C392.496 150.149 392.36 150.404 392.185 150.644C392.025 150.867 391.834 151.058 391.61 151.218C391.387 151.361 391.14 151.433 390.869 151.433C390.597 151.433 390.263 151.369 389.864 151.242C389.481 151.098 389.162 150.915 388.907 150.691C388.795 150.596 388.675 150.46 388.548 150.285C388.436 150.109 388.325 149.934 388.213 149.758C388.117 149.583 388.021 149.423 387.926 149.28C387.846 149.12 387.782 149.017 387.734 148.969C387.655 148.953 387.567 148.945 387.471 148.945C387.375 148.929 387.288 148.921 387.208 148.921C386.395 148.921 385.621 149.128 384.887 149.543C384.153 149.958 383.468 150.468 382.83 151.074C382.192 151.664 381.601 152.302 381.059 152.988C380.533 153.658 380.07 154.264 379.671 154.807C379.352 156.099 378.993 157.478 378.595 158.946C378.212 160.397 377.829 161.921 377.446 163.516V164.114C377.446 164.592 377.43 165.079 377.398 165.573C377.367 166.068 377.271 166.506 377.111 166.889C376.936 167.128 376.681 167.328 376.346 167.487C376.027 167.663 375.652 167.75 375.221 167.75C374.551 167.75 374.049 167.535 373.714 167.104C373.379 166.658 373.211 166.139 373.211 165.549C373.211 165.278 373.251 164.999 373.331 164.712Z" fill="white" fill-opacity="0.25"/>
<path d="M393.381 157.941C393.381 157.255 393.564 156.673 393.931 156.194C394.298 155.716 394.785 155.397 395.391 155.237C395.566 154.886 395.837 154.416 396.204 153.826C396.571 153.22 397.026 152.566 397.568 151.864C398.11 151.162 398.724 150.46 399.41 149.758C400.112 149.041 400.878 148.395 401.707 147.82C402.552 147.23 403.454 146.752 404.411 146.385C405.384 146.018 406.412 145.834 407.497 145.834C408.422 145.834 409.228 145.946 409.914 146.169C410.599 146.393 411.166 146.704 411.612 147.103C412.059 147.501 412.394 147.98 412.617 148.538C412.84 149.08 412.952 149.671 412.952 150.309C412.952 150.851 412.88 151.369 412.737 151.864C412.514 152.757 412.099 153.539 411.493 154.208C410.887 154.878 410.169 155.469 409.339 155.979C408.526 156.473 407.633 156.888 406.66 157.223C405.703 157.558 404.738 157.837 403.765 158.061C402.808 158.284 401.882 158.459 400.989 158.587C400.096 158.699 399.322 158.786 398.668 158.85C398.525 159.137 398.397 159.504 398.286 159.951C398.19 160.381 398.142 160.804 398.142 161.219C398.142 162.144 398.509 162.862 399.243 163.372C399.976 163.882 400.989 164.138 402.281 164.138C403.031 164.138 403.749 164.058 404.435 163.898C405.12 163.723 405.766 163.508 406.373 163.252C406.995 162.981 407.577 162.694 408.119 162.391C408.661 162.072 409.156 161.761 409.603 161.458C410.177 161.075 410.719 160.756 411.229 160.501C411.756 160.23 412.218 160.094 412.617 160.094C413.016 160.094 413.271 160.198 413.383 160.405C413.494 160.597 413.55 160.804 413.55 161.027C413.55 161.155 413.542 161.283 413.526 161.41C413.526 161.522 413.518 161.618 413.502 161.697C413.423 162.112 413.263 162.527 413.024 162.941C412.785 163.356 412.482 163.715 412.115 164.018C410.456 165.326 408.749 166.259 406.995 166.817C405.256 167.376 403.398 167.655 401.42 167.655C401.037 167.655 400.583 167.631 400.056 167.583C399.546 167.535 399.011 167.439 398.453 167.296C397.895 167.152 397.345 166.945 396.802 166.674C396.26 166.403 395.773 166.044 395.343 165.597C394.928 165.151 394.585 164.6 394.314 163.946C394.059 163.292 393.931 162.503 393.931 161.578C393.931 160.828 394.035 159.991 394.242 159.065C394.035 159.034 393.835 158.93 393.644 158.754C393.469 158.563 393.381 158.292 393.381 157.941ZM408.358 151.313C408.39 151.234 408.406 151.162 408.406 151.098C408.406 151.034 408.406 150.963 408.406 150.883C408.406 150.452 408.247 150.133 407.928 149.926C407.609 149.702 407.226 149.591 406.779 149.591C406.077 149.591 405.384 149.774 404.698 150.141C404.028 150.508 403.39 150.971 402.784 151.529C402.194 152.071 401.667 152.661 401.205 153.299C400.742 153.921 400.383 154.488 400.128 154.998C401.276 154.902 402.329 154.751 403.286 154.543C404.243 154.32 405.073 154.049 405.774 153.73C406.492 153.395 407.066 153.028 407.497 152.629C407.944 152.215 408.231 151.776 408.358 151.313Z" fill="white" fill-opacity="0.25"/>
<path d="M150.703 28.728C155.026 28.5978 157.695 28.5327 158.711 28.5327C159.648 28.5327 160.339 28.715 160.781 29.0796C161.25 29.4181 161.484 30.1213 161.484 31.189C161.484 32.5171 161.081 33.5718 160.273 34.353C159.466 35.1343 158.359 35.5249 156.953 35.5249C153.281 35.5249 150.43 35.5509 148.398 35.603C146.055 42.5301 144.622 47.6994 144.102 51.1108C143.659 53.9233 143.19 55.7853 142.695 56.6968C142.201 57.6082 141.133 58.064 139.492 58.064C138.372 58.064 137.5 57.6994 136.875 56.9702C136.276 56.215 135.977 55.2254 135.977 54.0015C135.977 51.3713 137.682 45.2905 141.094 35.7593C128.568 36.0718 121.133 36.228 118.789 36.228C117.539 36.228 116.471 35.7593 115.586 34.8218C114.727 33.8843 114.297 32.8296 114.297 31.6577C114.297 30.2775 115.781 27.0614 118.75 22.0093C121.719 16.9312 125.13 12.3088 128.984 8.14209C132.839 3.97542 135.885 1.89209 138.125 1.89209C140.312 1.89209 141.406 2.56917 141.406 3.92334C141.406 4.8348 140.768 5.73324 139.492 6.61865C136.055 8.98844 132.539 12.9077 128.945 18.3765C125.378 23.8192 123.268 27.5562 122.617 29.5874C124.857 29.5874 131.849 29.3791 143.594 28.9624C146.51 21.1239 148.919 15.1082 150.82 10.9155C152.747 6.72282 154.193 3.97542 155.156 2.67334C156.12 1.37126 157.253 0.720215 158.555 0.720215C159.935 0.720215 160.625 1.4624 160.625 2.94678C160.625 3.80615 160.026 5.51188 158.828 8.06396C157.656 10.59 156.406 13.5848 155.078 17.0483L150.703 28.728Z" fill="white"/>
<path d="M218.438 18.8062C218.438 24.5614 216.784 30.577 213.477 36.853C210.195 43.103 206.003 48.2072 200.898 52.1655C195.794 56.0978 190.807 58.064 185.938 58.064C180.885 58.064 176.81 56.3843 173.711 53.0249C170.612 49.6395 169.062 44.978 169.062 39.0405C169.062 33.3634 170.781 27.478 174.219 21.3843C177.682 15.2905 182.057 10.3035 187.344 6.42334C192.656 2.51709 197.656 0.563965 202.344 0.563965C207.344 0.563965 211.276 2.19157 214.141 5.44678C217.005 8.70199 218.438 13.1551 218.438 18.8062ZM176.68 39.978C176.68 43.3114 177.552 46.0457 179.297 48.1812C181.068 50.2905 183.333 51.3452 186.094 51.3452C189.766 51.3452 193.529 49.6395 197.383 46.228C201.263 42.7905 204.466 38.3765 206.992 32.9858C209.544 27.5952 210.82 22.5171 210.82 17.7515C210.82 14.3921 210.078 11.814 208.594 10.0171C207.135 8.19417 205.026 7.28271 202.266 7.28271C198.464 7.28271 194.544 8.93636 190.508 12.2437C186.497 15.5249 183.19 19.7827 180.586 25.0171C177.982 30.2254 176.68 35.2124 176.68 39.978Z" fill="white"/>
<path d="M261.484 28.728C265.807 28.5978 268.477 28.5327 269.492 28.5327C270.43 28.5327 271.12 28.715 271.562 29.0796C272.031 29.4181 272.266 30.1213 272.266 31.189C272.266 32.5171 271.862 33.5718 271.055 34.353C270.247 35.1343 269.141 35.5249 267.734 35.5249C264.062 35.5249 261.211 35.5509 259.18 35.603C256.836 42.5301 255.404 47.6994 254.883 51.1108C254.44 53.9233 253.971 55.7853 253.477 56.6968C252.982 57.6082 251.914 58.064 250.273 58.064C249.154 58.064 248.281 57.6994 247.656 56.9702C247.057 56.215 246.758 55.2254 246.758 54.0015C246.758 51.3713 248.464 45.2905 251.875 35.7593C239.349 36.0718 231.914 36.228 229.57 36.228C228.32 36.228 227.253 35.7593 226.367 34.8218C225.508 33.8843 225.078 32.8296 225.078 31.6577C225.078 30.2775 226.562 27.0614 229.531 22.0093C232.5 16.9312 235.911 12.3088 239.766 8.14209C243.62 3.97542 246.667 1.89209 248.906 1.89209C251.094 1.89209 252.188 2.56917 252.188 3.92334C252.188 4.8348 251.549 5.73324 250.273 6.61865C246.836 8.98844 243.32 12.9077 239.727 18.3765C236.159 23.8192 234.049 27.5562 233.398 29.5874C235.638 29.5874 242.63 29.3791 254.375 28.9624C257.292 21.1239 259.701 15.1082 261.602 10.9155C263.529 6.72282 264.974 3.97542 265.938 2.67334C266.901 1.37126 268.034 0.720215 269.336 0.720215C270.716 0.720215 271.406 1.4624 271.406 2.94678C271.406 3.80615 270.807 5.51188 269.609 8.06396C268.438 10.59 267.188 13.5848 265.859 17.0483L261.484 28.728Z" fill="white"/>
<path d="M304.414 2.86865C304.414 3.9624 303.88 5.61605 302.812 7.82959C302.005 9.5223 300.404 13.5588 298.008 19.939C295.638 26.2931 294.193 30.2254 293.672 31.7358C293.151 33.2463 292.682 35.0952 292.266 37.2827C291.927 38.9754 290.755 39.8218 288.75 39.8218C286.172 39.8218 284.883 38.5457 284.883 35.9937C284.883 33.3114 286.471 28.1681 289.648 20.564C292.852 12.9338 295.312 7.7124 297.031 4.8999C298.75 2.06136 300.404 0.64209 301.992 0.64209C303.607 0.64209 304.414 1.38428 304.414 2.86865ZM291.445 51.4233C291.445 53.2202 290.755 54.7827 289.375 56.1108C287.995 57.4129 286.419 58.064 284.648 58.064C283.294 58.064 282.135 57.5952 281.172 56.6577C280.234 55.6942 279.766 54.5353 279.766 53.1812C279.766 51.3843 280.482 49.8088 281.914 48.4546C283.372 47.0744 284.974 46.3843 286.719 46.3843C288.073 46.3843 289.193 46.866 290.078 47.8296C290.99 48.7931 291.445 49.991 291.445 51.4233Z" fill="white"/>
</svg>
