<svg width="22" height="20" viewBox="0 0 22 20" fill="none" xmlns="http://www.w3.org/2000/svg">
<rect x="0.501953" y="0.201172" width="20.9102" height="18.9888" rx="5" fill="#D5D4D8"/>
<path fill-rule="evenodd" clip-rule="evenodd" d="M16.0315 1.54634H5.88261C3.65387 1.54634 1.84712 3.35309 1.84712 5.58183V13.8093C1.84712 16.038 3.65387 17.8448 5.88261 17.8448H16.0315C18.2603 17.8448 20.067 16.038 20.067 13.8093V5.58183C20.067 3.35309 18.2603 1.54634 16.0315 1.54634ZM5.88261 0.201172C2.91096 0.201172 0.501953 2.61017 0.501953 5.58183V13.8093C0.501953 16.7809 2.91096 19.1899 5.88261 19.1899H16.0315C19.0032 19.1899 21.4122 16.7809 21.4122 13.8093V5.58183C21.4122 2.61018 19.0032 0.201172 16.0315 0.201172H5.88261Z" fill="#D5D4D8"/>
<path fill-rule="evenodd" clip-rule="evenodd" d="M13.0491 4.77961C13.3024 4.88946 13.4188 5.1839 13.3089 5.43725L9.27117 14.7496C9.16132 15.003 8.86688 15.1193 8.61353 15.0095C8.36018 14.8996 8.24385 14.6052 8.3537 14.3518L12.3914 5.03945C12.5013 4.78609 12.7957 4.66976 13.0491 4.77961Z" fill="white"/>
</svg>
