<svg width="103" height="43" viewBox="0 0 103 43" fill="none" xmlns="http://www.w3.org/2000/svg">
<path d="M19.3597 25.1008C19.3597 26.4481 19.1303 27.6951 18.6717 28.8418C18.213 29.9885 17.568 30.9775 16.7367 31.8088C15.9053 32.6401 14.902 33.2995 13.7267 33.7868C12.58 34.2455 11.3187 34.4748 9.94267 34.4748C9.22601 34.4748 8.53801 34.3888 7.87867 34.2168C7.24801 34.0735 6.66034 33.8728 6.11567 33.6148C5.57101 33.3281 5.09801 33.0271 4.69667 32.7118C4.29534 32.3678 3.99434 32.0238 3.79367 31.6798C3.79367 31.8231 3.79367 31.9808 3.79367 32.1528C3.82234 32.2961 3.83667 32.4395 3.83667 32.5828V34.0448H0.138672V0.633789H3.83667V18.6938C4.06601 18.3498 4.36701 18.0058 4.73967 17.6618C5.14101 17.2891 5.59967 16.9595 6.11567 16.6728C6.66034 16.3575 7.26234 16.0995 7.92167 15.8988C8.58101 15.6981 9.31201 15.5978 10.1147 15.5978C11.4907 15.5978 12.7377 15.8271 13.8557 16.2858C15.0023 16.7158 15.977 17.3465 16.7797 18.1778C17.611 18.9805 18.2417 19.9695 18.6717 21.1448C19.1303 22.3201 19.3597 23.6388 19.3597 25.1008ZM15.3607 25.0148C15.3607 24.1835 15.2317 23.4238 14.9737 22.7358C14.7157 22.0191 14.343 21.4028 13.8557 20.8868C13.3683 20.3708 12.7807 19.9695 12.0927 19.6828C11.4047 19.3675 10.6307 19.2098 9.77067 19.2098C8.91067 19.2098 8.10801 19.3675 7.36267 19.6828C6.64601 19.9695 6.02967 20.3708 5.51367 20.8868C4.99767 21.4028 4.58201 22.0191 4.26667 22.7358C3.98001 23.4238 3.83667 24.1835 3.83667 25.0148C3.83667 25.8461 3.98001 26.6201 4.26667 27.3368C4.58201 28.0535 4.99767 28.6698 5.51367 29.1858C6.02967 29.7018 6.64601 30.1175 7.36267 30.4328C8.10801 30.7195 8.91067 30.8628 9.77067 30.8628C10.6307 30.8628 11.4047 30.7195 12.0927 30.4328C12.7807 30.1175 13.3683 29.7018 13.8557 29.1858C14.343 28.6411 14.7157 28.0248 14.9737 27.3368C15.2317 26.6201 15.3607 25.8461 15.3607 25.0148Z" fill="white"/>
<path d="M29.7395 35.1198C28.0481 31.9091 26.4571 28.7415 24.9665 25.6168C23.5045 22.4635 21.9565 19.2815 20.3225 16.0708H24.3215C25.3535 18.1061 26.1705 19.7688 26.7725 21.0588C27.4031 22.3488 27.9048 23.4238 28.2775 24.2838C28.6501 25.1438 28.9368 25.8748 29.1375 26.4768C29.3381 27.0501 29.5388 27.6378 29.7395 28.2398C29.9688 27.6378 30.1838 27.0501 30.3845 26.4768C30.6138 25.8748 30.9005 25.1438 31.2445 24.2838C31.6171 23.4238 32.1045 22.3488 32.7065 21.0588C33.3371 19.7688 34.1685 18.1061 35.2005 16.0708H39.1995C37.5655 19.2815 35.9888 22.4635 34.4695 25.6168C32.9501 28.7415 31.3735 31.9091 29.7395 35.1198Z" fill="white"/>
<path d="M57.1009 25.0148C57.1009 24.1835 56.9719 23.4238 56.7139 22.7358C56.4559 22.0191 56.0832 21.4028 55.5959 20.8868C55.1086 20.3708 54.5209 19.9695 53.8329 19.6828C53.1449 19.3675 52.3709 19.2098 51.5109 19.2098C50.6509 19.2098 49.8482 19.3675 49.1029 19.6828C48.3862 19.9695 47.7699 20.3708 47.2539 20.8868C46.7379 21.4028 46.3222 22.0191 46.0069 22.7358C45.7202 23.4238 45.5769 24.1835 45.5769 25.0148C45.5769 25.8461 45.7202 26.6201 46.0069 27.3368C46.3222 28.0535 46.7379 28.6698 47.2539 29.1858C47.7699 29.7018 48.3862 30.1175 49.1029 30.4328C49.8482 30.7195 50.6509 30.8628 51.5109 30.8628C52.3709 30.8628 53.1449 30.7195 53.8329 30.4328C54.5209 30.1175 55.1086 29.7018 55.5959 29.1858C56.0832 28.6411 56.4559 28.0248 56.7139 27.3368C56.9719 26.6201 57.1009 25.8461 57.1009 25.0148ZM61.0999 25.1008C61.0999 26.4481 60.8706 27.6951 60.4119 28.8418C59.9532 29.9885 59.3082 30.9775 58.4769 31.8088C57.6456 32.6401 56.6422 33.2995 55.4669 33.7868C54.3202 34.2455 53.0589 34.4748 51.6829 34.4748C50.9662 34.4748 50.2782 34.3888 49.6189 34.2168C48.9882 34.0735 48.4006 33.8728 47.8559 33.6148C47.3112 33.3281 46.8382 33.0271 46.4369 32.7118C46.0356 32.3678 45.7346 32.0238 45.5339 31.6798C45.5339 31.8231 45.5339 31.9808 45.5339 32.1528C45.5626 32.2961 45.5769 32.4395 45.5769 32.5828V42.6878H41.8789V16.0708H45.4479C45.4479 16.4148 45.4622 16.8448 45.4909 17.3608C45.5482 17.8481 45.5769 18.2925 45.5769 18.6938C45.8062 18.3498 46.1072 18.0058 46.4799 17.6618C46.8812 17.2891 47.3399 16.9595 47.8559 16.6728C48.4006 16.3575 49.0026 16.0995 49.6619 15.8988C50.3212 15.6981 51.0522 15.5978 51.8549 15.5978C53.2309 15.5978 54.4779 15.8271 55.5959 16.2858C56.7426 16.7158 57.7172 17.3465 58.5199 18.1778C59.3512 18.9805 59.9819 19.9695 60.4119 21.1448C60.8706 22.3201 61.0999 23.6388 61.0999 25.1008Z" fill="white"/>
<path d="M68.9427 24.5418C67.9394 23.1085 66.893 21.6895 65.8037 20.2848C64.743 18.8801 63.7254 17.4755 62.7507 16.0708H67.2657C67.6097 16.6441 67.9394 17.1601 68.2547 17.6188C68.5987 18.0775 68.9284 18.5218 69.2437 18.9518C69.5877 19.3818 69.9174 19.8261 70.2327 20.2848C70.5767 20.7148 70.935 21.2021 71.3077 21.7468C72.0244 20.6861 72.698 19.7545 73.3287 18.9518C73.9594 18.1205 74.6474 17.1601 75.3927 16.0708H79.4777C78.9617 16.8735 78.46 17.6188 77.9727 18.3068C77.4854 18.9661 76.998 19.6398 76.5107 20.3278C76.0234 20.9871 75.5217 21.6751 75.0057 22.3918C74.5184 23.0798 74.0024 23.8538 73.4577 24.7138C73.9737 25.4018 74.5184 26.1471 75.0917 26.9498C75.6937 27.7525 76.2957 28.5695 76.8977 29.4008C77.4997 30.2035 78.0874 31.0061 78.6607 31.8088C79.234 32.6115 79.7644 33.3568 80.2517 34.0448H75.5647C74.762 32.9268 73.9737 31.8948 73.1997 30.9488C72.4257 30.0028 71.6374 28.9851 70.8347 27.8958C70.0894 28.9851 69.3584 30.0028 68.6417 30.9488C67.925 31.8948 67.194 32.9268 66.4487 34.0448H62.3637C63.453 32.4108 64.5567 30.8198 65.6747 29.2718C66.7927 27.6951 67.882 26.1185 68.9427 24.5418Z" fill="white"/>
<path d="M98.3372 25.0148C98.3372 24.1835 98.2082 23.4238 97.9502 22.7358C97.6922 22.0191 97.3196 21.4028 96.8322 20.8868C96.3449 20.3708 95.7572 19.9695 95.0692 19.6828C94.3812 19.3675 93.6072 19.2098 92.7472 19.2098C91.8872 19.2098 91.0846 19.3675 90.3392 19.6828C89.6226 19.9695 89.0062 20.3708 88.4902 20.8868C87.9742 21.4028 87.5586 22.0191 87.2432 22.7358C86.9566 23.4238 86.8132 24.1835 86.8132 25.0148C86.8132 25.8461 86.9566 26.6201 87.2432 27.3368C87.5586 28.0535 87.9742 28.6698 88.4902 29.1858C89.0062 29.7018 89.6226 30.1175 90.3392 30.4328C91.0846 30.7195 91.8872 30.8628 92.7472 30.8628C93.6072 30.8628 94.3812 30.7195 95.0692 30.4328C95.7572 30.1175 96.3449 29.7018 96.8322 29.1858C97.3196 28.6411 97.6922 28.0248 97.9502 27.3368C98.2082 26.6201 98.3372 25.8461 98.3372 25.0148ZM102.336 25.1008C102.336 26.4481 102.107 27.6951 101.648 28.8418C101.19 29.9885 100.545 30.9775 99.7132 31.8088C98.8819 32.6401 97.8786 33.2995 96.7032 33.7868C95.5566 34.2455 94.2952 34.4748 92.9192 34.4748C92.2026 34.4748 91.5146 34.3888 90.8552 34.2168C90.2246 34.0735 89.6369 33.8728 89.0922 33.6148C88.5476 33.3281 88.0746 33.0271 87.6732 32.7118C87.2719 32.3678 86.9709 32.0238 86.7702 31.6798C86.7702 31.8231 86.7702 31.9808 86.7702 32.1528C86.7989 32.2961 86.8132 32.4395 86.8132 32.5828V42.6878H83.1152V16.0708H86.6842C86.6842 16.4148 86.6986 16.8448 86.7272 17.3608C86.7846 17.8481 86.8132 18.2925 86.8132 18.6938C87.0426 18.3498 87.3436 18.0058 87.7162 17.6618C88.1176 17.2891 88.5762 16.9595 89.0922 16.6728C89.6369 16.3575 90.2389 16.0995 90.8982 15.8988C91.5576 15.6981 92.2886 15.5978 93.0912 15.5978C94.4672 15.5978 95.7142 15.8271 96.8322 16.2858C97.9789 16.7158 98.9536 17.3465 99.7562 18.1778C100.588 18.9805 101.218 19.9695 101.648 21.1448C102.107 22.3201 102.336 23.6388 102.336 25.1008Z" fill="white"/>
</svg>
