<svg width="102" height="32" viewBox="0 0 102 32" fill="none" xmlns="http://www.w3.org/2000/svg">
<path d="M0.746094 31.4726H14.6445C17.9661 31.4726 20.8944 30.8316 23.4293 29.5496C25.9933 28.2967 27.9747 26.5193 29.3732 24.2175C30.801 21.9157 31.5148 19.235 31.5148 16.1757C31.5148 13.1163 30.801 10.4357 29.3732 8.13383C27.9747 5.83201 25.9933 4.04007 23.4293 2.75804C20.8944 1.50515 17.9661 0.878706 14.6445 0.878706H0.746094V31.4726ZM14.2948 6.69155C17.3542 6.69155 19.7872 7.53652 21.5936 9.22647C23.4293 10.9456 24.3471 13.262 24.3471 16.1757C24.3471 19.0894 23.4293 21.3912 21.5936 23.0811C19.7872 24.8002 17.3542 25.6598 14.2948 25.6598H7.8264V6.69155H14.2948Z" fill="white"/>
<path d="M51.6706 0.354239C48.4947 0.354239 45.6247 1.03896 43.0606 2.4084C40.5257 3.77784 38.5298 5.65718 37.0729 8.04642C35.6452 10.4648 34.9314 13.1745 34.9314 16.1757C34.9314 19.1768 35.6452 21.8719 37.0729 24.2612C38.5298 26.6796 40.5257 28.5735 43.0606 29.9429C45.6247 31.3123 48.4947 31.9971 51.6706 31.9971C54.8465 31.9971 57.702 31.3123 60.2369 29.9429C62.7718 28.5735 64.7677 26.6796 66.2245 24.2612C67.6814 21.8719 68.4098 19.1768 68.4098 16.1757C68.4098 13.1745 67.6814 10.4648 66.2245 8.04642C64.7677 5.65718 62.7718 3.77784 60.2369 2.4084C57.702 1.03896 54.8465 0.354239 51.6706 0.354239ZM51.6706 6.38561C53.4771 6.38561 55.1088 6.79353 56.5656 7.60936C58.0225 8.45434 59.1588 9.61982 59.9746 11.1058C60.8196 12.5918 61.2421 14.2817 61.2421 16.1757C61.2421 18.0696 60.8196 19.7595 59.9746 21.2455C59.1588 22.7315 58.0225 23.8824 56.5656 24.6982C55.1088 25.5432 53.4771 25.9657 51.6706 25.9657C49.8641 25.9657 48.2324 25.5432 46.7756 24.6982C45.3187 23.8824 44.1678 22.7315 43.3228 21.2455C42.507 19.7595 42.0991 18.0696 42.0991 16.1757C42.0991 14.2817 42.507 12.5918 43.3228 11.1058C44.1678 9.61982 45.3187 8.45434 46.7756 7.60936C48.2324 6.79353 49.8641 6.38561 51.6706 6.38561Z" fill="white"/>
<path d="M88.3723 0.354239C85.2547 0.354239 82.4284 1.02439 79.8935 2.36469C77.3877 3.73414 75.4064 5.61348 73.9495 8.00272C72.5218 10.4211 71.8079 13.1454 71.8079 16.1757C71.8079 19.2059 72.5218 21.9157 73.9495 24.3049C75.4064 26.7233 77.3877 28.6026 79.8935 29.9429C82.4284 31.3123 85.2692 31.9971 88.416 31.9971C91.0675 31.9971 93.4568 31.5309 95.5838 30.5985C97.7399 29.6661 99.5464 28.3258 101.003 26.5776L96.4579 22.3818C94.3891 24.7711 91.8251 25.9657 88.7657 25.9657C86.8718 25.9657 85.1818 25.5432 83.6958 24.6982C82.2099 23.8824 81.0444 22.7315 80.1994 21.2455C79.3836 19.7595 78.9756 18.0696 78.9756 16.1757C78.9756 14.2817 79.3836 12.5918 80.1994 11.1058C81.0444 9.61982 82.2099 8.45434 83.6958 7.60936C85.1818 6.79353 86.8718 6.38561 88.7657 6.38561C91.8251 6.38561 94.3891 7.5948 96.4579 10.0132L101.003 5.81743C99.5464 4.04007 97.7399 2.6852 95.5838 1.75282C93.4276 0.820434 91.0238 0.354239 88.3723 0.354239Z" fill="white"/>
</svg>
