<svg width="180" height="44" viewBox="0 0 180 44" fill="none" xmlns="http://www.w3.org/2000/svg">
<path d="M0.562988 0.591797H6.78468V14.7404H7.15337L19.228 0.591797H26.7402V0.960491L14.8037 14.6021L27.9845 33.2211V33.5898H20.3802L10.5638 19.5334L6.78468 23.9116V33.5898H0.562988V0.591797Z" fill="white"/>
<path d="M51.139 28.1516C50.0944 29.995 48.6811 31.4852 46.8991 32.622C45.1478 33.7588 42.9971 34.3272 40.4469 34.3272C38.7264 34.3272 37.1287 34.0353 35.6539 33.4515C34.2099 32.837 32.9502 31.9921 31.8748 30.9168C30.7995 29.8414 29.9546 28.5817 29.3401 27.1377C28.7563 25.6629 28.4644 24.0499 28.4644 22.2986C28.4644 20.6702 28.7563 19.134 29.3401 17.6899C29.9239 16.2151 30.738 14.9401 31.7827 13.8647C32.8273 12.7587 34.0563 11.883 35.4696 11.2378C36.9136 10.5926 38.4959 10.27 40.2165 10.27C42.0293 10.27 43.6423 10.5772 45.0556 11.1917C46.4689 11.7755 47.6518 12.605 48.6043 13.6804C49.5567 14.725 50.2787 15.9693 50.7703 17.4134C51.2619 18.8574 51.5077 20.4244 51.5077 22.1142C51.5077 22.3293 51.5077 22.5136 51.5077 22.6673C51.477 22.8516 51.4616 23.0206 51.4616 23.1742C51.4309 23.3278 51.4156 23.4968 51.4156 23.6812H34.4096C34.5325 24.6029 34.7783 25.4017 35.147 26.0777C35.5464 26.7229 36.0226 27.2759 36.5757 27.7368C37.1594 28.1669 37.7893 28.4895 38.4652 28.7046C39.1412 28.8889 39.8325 28.9811 40.5391 28.9811C41.9217 28.9811 43.0585 28.6739 43.9495 28.0594C44.8713 27.4142 45.5933 26.6153 46.1156 25.6629L51.139 28.1516ZM45.6547 19.3951C45.624 18.9957 45.4857 18.5502 45.24 18.0586C45.0249 17.567 44.6869 17.1061 44.226 16.676C43.7959 16.2459 43.2429 15.8925 42.5669 15.616C41.9217 15.3395 41.1382 15.2012 40.2165 15.2012C38.9261 15.2012 37.7893 15.5699 36.8061 16.3073C35.8229 17.0447 35.1316 18.074 34.7322 19.3951H45.6547Z" fill="white"/>
<path d="M62.0108 32.4837L52.5169 11.0074H59.3838L65.0986 24.6951H65.4212L70.9055 11.0074H77.6341L63.4855 43.5445H56.9873L62.0108 32.4837Z" fill="white"/>
<path d="M81.1245 0.591797H88.3601L101.633 22.7133H102.002L101.633 16.3534V0.591797H107.809V33.5898H101.264L87.254 10.2239H86.8853L87.254 16.5838V33.5898H81.1245V0.591797Z" fill="white"/>
<path d="M124.384 10.27C126.135 10.27 127.733 10.5772 129.177 11.1917C130.652 11.7755 131.911 12.605 132.956 13.6804C134.031 14.725 134.861 15.9847 135.445 17.4595C136.059 18.9343 136.366 20.5473 136.366 22.2986C136.366 24.0499 136.059 25.6629 135.445 27.1377C134.861 28.6124 134.031 29.8875 132.956 30.9628C131.911 32.0075 130.652 32.837 129.177 33.4515C127.733 34.0353 126.135 34.3272 124.384 34.3272C122.633 34.3272 121.02 34.0353 119.545 33.4515C118.101 32.837 116.841 32.0075 115.766 30.9628C114.721 29.8875 113.892 28.6124 113.277 27.1377C112.693 25.6629 112.401 24.0499 112.401 22.2986C112.401 20.5473 112.693 18.9343 113.277 17.4595C113.892 15.9847 114.721 14.725 115.766 13.6804C116.841 12.605 118.101 11.7755 119.545 11.1917C121.02 10.5772 122.633 10.27 124.384 10.27ZM124.384 28.7507C125.152 28.7507 125.889 28.6124 126.596 28.3359C127.333 28.0287 127.979 27.5985 128.532 27.0455C129.085 26.4924 129.515 25.8165 129.822 25.0177C130.16 24.2188 130.329 23.3125 130.329 22.2986C130.329 21.2847 130.16 20.3783 129.822 19.5795C129.515 18.7806 129.085 18.1047 128.532 17.5517C127.979 16.9986 127.333 16.5838 126.596 16.3073C125.889 16.0001 125.152 15.8464 124.384 15.8464C123.585 15.8464 122.832 16.0001 122.126 16.3073C121.419 16.5838 120.789 16.9986 120.236 17.5517C119.683 18.1047 119.238 18.7806 118.9 19.5795C118.592 20.3783 118.439 21.2847 118.439 22.2986C118.439 23.3125 118.592 24.2188 118.9 25.0177C119.238 25.8165 119.683 26.4924 120.236 27.0455C120.789 27.5985 121.419 28.0287 122.126 28.3359C122.832 28.6124 123.585 28.7507 124.384 28.7507Z" fill="white"/>
<path d="M142.059 16.1691H138.096V11.0074H142.059V4.09437H148.097V11.0074H153.627V16.1691H148.097V24.9255C148.097 25.4478 148.143 25.9394 148.235 26.4003C148.358 26.8304 148.573 27.1991 148.88 27.5064C149.31 27.9979 149.925 28.2437 150.723 28.2437C151.246 28.2437 151.661 28.1977 151.968 28.1055C152.275 27.9826 152.567 27.829 152.843 27.6446L154.549 32.9446C153.842 33.2825 153.074 33.5283 152.244 33.682C151.445 33.8663 150.554 33.9585 149.571 33.9585C148.434 33.9585 147.405 33.7895 146.484 33.4515C145.592 33.0828 144.84 32.5912 144.225 31.9767C142.781 30.5942 142.059 28.6278 142.059 26.0777V16.1691Z" fill="white"/>
<path d="M179.227 28.1516C178.183 29.995 176.769 31.4852 174.987 32.622C173.236 33.7588 171.085 34.3272 168.535 34.3272C166.815 34.3272 165.217 34.0353 163.742 33.4515C162.298 32.837 161.038 31.9921 159.963 30.9168C158.888 29.8414 158.043 28.5817 157.428 27.1377C156.845 25.6629 156.553 24.0499 156.553 22.2986C156.553 20.6702 156.845 19.134 157.428 17.6899C158.012 16.2151 158.826 14.9401 159.871 13.8647C160.916 12.7587 162.145 11.883 163.558 11.2378C165.002 10.5926 166.584 10.27 168.305 10.27C170.118 10.27 171.731 10.5772 173.144 11.1917C174.557 11.7755 175.74 12.605 176.693 13.6804C177.645 14.725 178.367 15.9693 178.859 17.4134C179.35 18.8574 179.596 20.4244 179.596 22.1142C179.596 22.3293 179.596 22.5136 179.596 22.6673C179.565 22.8516 179.55 23.0206 179.55 23.1742C179.519 23.3278 179.504 23.4968 179.504 23.6812H162.498C162.621 24.6029 162.867 25.4017 163.235 26.0777C163.635 26.7229 164.111 27.2759 164.664 27.7368C165.248 28.1669 165.878 28.4895 166.553 28.7046C167.229 28.8889 167.921 28.9811 168.627 28.9811C170.01 28.9811 171.147 28.6739 172.038 28.0594C172.959 27.4142 173.682 26.6153 174.204 25.6629L179.227 28.1516ZM173.743 19.3951C173.712 18.9957 173.574 18.5502 173.328 18.0586C173.113 17.567 172.775 17.1061 172.314 16.676C171.884 16.2459 171.331 15.8925 170.655 15.616C170.01 15.3395 169.226 15.2012 168.305 15.2012C167.014 15.2012 165.878 15.5699 164.894 16.3073C163.911 17.0447 163.22 18.074 162.82 19.3951H173.743Z" fill="white"/>
</svg>
