<svg width="109" height="42" viewBox="0 0 109 42" fill="none" xmlns="http://www.w3.org/2000/svg">
<path d="M0.789307 40.5449V2.74492H23.9823V8.68492H7.05331V17.8379H20.1213V23.7779H7.05331V40.5449H0.789307Z" fill="white"/>
<path d="M38.04 41.0849C35.16 41.0849 32.703 40.4549 30.669 39.1949C28.653 37.9349 27.105 36.2519 26.025 34.1459C24.963 32.0399 24.432 29.7179 24.432 27.1799C24.432 24.6419 24.963 22.3109 26.025 20.1869C27.105 18.0629 28.653 16.3709 30.669 15.1109C32.703 13.8329 35.16 13.1939 38.04 13.1939C40.902 13.1939 43.35 13.8329 45.384 15.1109C47.418 16.3709 48.966 18.0629 50.028 20.1869C51.108 22.3109 51.648 24.6419 51.648 27.1799C51.648 29.7179 51.108 32.0399 50.028 34.1459C48.966 36.2519 47.418 37.9349 45.384 39.1949C43.35 40.4549 40.902 41.0849 38.04 41.0849ZM38.04 36.0089C40.416 36.0089 42.243 35.2079 43.521 33.6059C44.817 31.9859 45.465 29.8439 45.465 27.1799C45.465 24.4799 44.817 22.3199 43.521 20.6999C42.243 19.0799 40.416 18.2699 38.04 18.2699C35.664 18.2699 33.828 19.0799 32.532 20.6999C31.236 22.3199 30.588 24.4799 30.588 27.1799C30.588 29.8439 31.236 31.9859 32.532 33.6059C33.828 35.2079 35.664 36.0089 38.04 36.0089Z" fill="white"/>
<path d="M63.285 41.0849C61.647 41.0849 60.315 40.7699 59.289 40.1399C58.281 39.5099 57.543 38.6819 57.075 37.6559C56.607 36.6119 56.373 35.4779 56.373 34.2539V0.0449219H62.421V31.4999C62.421 32.9579 62.511 34.0199 62.691 34.6859C62.871 35.3339 63.213 35.7479 63.717 35.9279C64.239 36.0899 65.013 36.1709 66.039 36.1709L65.391 41.0849H63.285Z" fill="white"/>
<path d="M70.0582 40.5449V13.7339H76.0792V40.5449H70.0582ZM70.0582 8.98192V2.74492H76.0792V8.98192H70.0582Z" fill="white"/>
<path d="M94.5185 41.0849C91.6385 41.0849 89.1815 40.4549 87.1475 39.1949C85.1315 37.9349 83.5835 36.2519 82.5035 34.1459C81.4415 32.0399 80.9105 29.7179 80.9105 27.1799C80.9105 24.6419 81.4415 22.3109 82.5035 20.1869C83.5835 18.0629 85.1315 16.3709 87.1475 15.1109C89.1815 13.8329 91.6385 13.1939 94.5185 13.1939C97.3805 13.1939 99.8285 13.8329 101.863 15.1109C103.897 16.3709 105.445 18.0629 106.507 20.1869C107.587 22.3109 108.127 24.6419 108.127 27.1799C108.127 29.7179 107.587 32.0399 106.507 34.1459C105.445 36.2519 103.897 37.9349 101.863 39.1949C99.8285 40.4549 97.3805 41.0849 94.5185 41.0849ZM94.5185 36.0089C96.8945 36.0089 98.7215 35.2079 99.9995 33.6059C101.296 31.9859 101.944 29.8439 101.944 27.1799C101.944 24.4799 101.296 22.3199 99.9995 20.6999C98.7215 19.0799 96.8945 18.2699 94.5185 18.2699C92.1425 18.2699 90.3065 19.0799 89.0105 20.6999C87.7145 22.3199 87.0665 24.4799 87.0665 27.1799C87.0665 29.8439 87.7145 31.9859 89.0105 33.6059C90.3065 35.2079 92.1425 36.0089 94.5185 36.0089Z" fill="white"/>
</svg>
