<svg width="321" height="39" viewBox="0 0 321 39" fill="none" xmlns="http://www.w3.org/2000/svg">
<path d="M23.88 27.2853C24.216 27.7893 24.384 28.2793 24.384 28.7553C24.384 29.3993 24.118 29.9313 23.586 30.3513C23.082 30.7713 22.48 30.9813 21.78 30.9813C21.332 30.9813 20.898 30.8833 20.478 30.6873C20.086 30.4633 19.75 30.1413 19.47 29.7213L13.884 21.2373C13.324 20.3413 12.722 19.7113 12.078 19.3473C11.462 18.9833 10.65 18.8013 9.64202 18.8013H5.52602V28.2093C5.52602 29.0493 5.28802 29.7213 4.81202 30.2253C4.33602 30.7013 3.69202 30.9393 2.88002 30.9393C2.06802 30.9393 1.41002 30.7013 0.906017 30.2253C0.430017 29.7213 0.192017 29.0493 0.192017 28.2093V3.63927C0.192017 2.82727 0.416017 2.19727 0.864017 1.74927C1.34002 1.30127 1.98402 1.07727 2.79602 1.07727H13.296C16.656 1.07727 19.204 1.83327 20.94 3.34527C22.704 4.82927 23.586 6.98527 23.586 9.81327C23.586 12.1093 22.928 13.9993 21.612 15.4833C20.324 16.9393 18.49 17.8773 16.11 18.2973C16.922 18.4933 17.636 18.8433 18.252 19.3473C18.868 19.8513 19.47 20.5513 20.058 21.4473L23.88 27.2853ZM12.54 14.6433C14.584 14.6433 16.082 14.2653 17.034 13.5093C17.986 12.7253 18.462 11.5353 18.462 9.93927C18.462 8.31527 17.986 7.13927 17.034 6.41127C16.082 5.65527 14.584 5.27727 12.54 5.27727H5.48402V14.6433H12.54Z" fill="white"/>
<path d="M37.7141 9.64527C40.5701 9.64527 42.6841 10.3593 44.0561 11.7873C45.4561 13.1873 46.1561 15.3293 46.1561 18.2133V28.4613C46.1561 29.2173 45.9321 29.8193 45.4841 30.2673C45.0361 30.6873 44.4201 30.8973 43.6361 30.8973C42.9081 30.8973 42.3061 30.6733 41.8301 30.2253C41.3821 29.7773 41.1581 29.1893 41.1581 28.4613V27.5373C40.6821 28.6293 39.9261 29.4833 38.8901 30.0993C37.8821 30.7153 36.7061 31.0233 35.3621 31.0233C33.9901 31.0233 32.7441 30.7433 31.6241 30.1833C30.5041 29.6233 29.6221 28.8533 28.9781 27.8733C28.3341 26.8933 28.0121 25.8013 28.0121 24.5973C28.0121 23.0853 28.3901 21.8953 29.1461 21.0273C29.9301 20.1593 31.1901 19.5293 32.9261 19.1373C34.6621 18.7453 37.0561 18.5493 40.1081 18.5493H41.1581V17.5833C41.1581 16.2113 40.8641 15.2173 40.2761 14.6013C39.6881 13.9573 38.7361 13.6353 37.4201 13.6353C36.6081 13.6353 35.7821 13.7613 34.9421 14.0133C34.1021 14.2373 33.1081 14.5733 31.9601 15.0213C31.2321 15.3853 30.7001 15.5673 30.3641 15.5673C29.8601 15.5673 29.4401 15.3853 29.1041 15.0213C28.7961 14.6573 28.6421 14.1813 28.6421 13.5933C28.6421 13.1173 28.7541 12.7113 28.9781 12.3753C29.2301 12.0113 29.6361 11.6753 30.1961 11.3673C31.1761 10.8353 32.3381 10.4153 33.6821 10.1073C35.0541 9.79927 36.3981 9.64527 37.7141 9.64527ZM36.4121 27.2433C37.8121 27.2433 38.9461 26.7813 39.8141 25.8573C40.7101 24.9053 41.1581 23.6873 41.1581 22.2033V21.3213H40.4021C38.5261 21.3213 37.0701 21.4053 36.0341 21.5733C34.9981 21.7413 34.2561 22.0353 33.8081 22.4553C33.3601 22.8753 33.1361 23.4493 33.1361 24.1773C33.1361 25.0733 33.4441 25.8153 34.0601 26.4033C34.7041 26.9633 35.4881 27.2433 36.4121 27.2433Z" fill="white"/>
<path d="M69.7617 26.6133C70.3217 27.1453 70.6017 27.7473 70.6017 28.4193C70.6017 29.0633 70.3637 29.6373 69.8877 30.1413C69.4397 30.6453 68.9077 30.8973 68.2917 30.8973C67.6757 30.8973 67.1017 30.6453 66.5697 30.1413L56.7417 21.2373V28.4193C56.7417 29.2313 56.4897 29.8473 55.9857 30.2673C55.4817 30.6873 54.8517 30.8973 54.0957 30.8973C53.3397 30.8973 52.7097 30.6873 52.2057 30.2673C51.7297 29.8473 51.4917 29.2313 51.4917 28.4193V3.34527C51.4917 2.53327 51.7297 1.91727 52.2057 1.49727C52.7097 1.07727 53.3397 0.867272 54.0957 0.867272C54.8517 0.867272 55.4817 1.07727 55.9857 1.49727C56.4897 1.91727 56.7417 2.53327 56.7417 3.34527V19.1373L65.7297 10.5273C66.2337 10.0233 66.8077 9.77127 67.4517 9.77127C68.0957 9.77127 68.6557 10.0093 69.1317 10.4853C69.6077 10.9613 69.8457 11.5213 69.8457 12.1653C69.8457 12.8093 69.5797 13.3973 69.0477 13.9293L62.4537 20.0613L69.7617 26.6133Z" fill="white"/>
<path d="M84.5953 27.0333C85.9953 27.1173 86.6953 27.7473 86.6953 28.9233C86.6953 29.5953 86.4153 30.1133 85.8553 30.4773C85.3233 30.8133 84.5533 30.9533 83.5453 30.8973L82.4113 30.8133C77.7073 30.4773 75.3553 27.9573 75.3553 23.2533V14.0973H73.2553C72.4993 14.0973 71.9113 13.9293 71.4913 13.5933C71.0993 13.2573 70.9033 12.7673 70.9033 12.1233C70.9033 11.4793 71.0993 10.9893 71.4913 10.6533C71.9113 10.3173 72.4993 10.1493 73.2553 10.1493H75.3553V6.28527C75.3553 5.52927 75.5933 4.92727 76.0693 4.47927C76.5453 4.03127 77.1893 3.80727 78.0013 3.80727C78.7853 3.80727 79.4153 4.03127 79.8913 4.47927C80.3673 4.92727 80.6053 5.52927 80.6053 6.28527V10.1493H84.1753C84.9313 10.1493 85.5053 10.3173 85.8973 10.6533C86.3173 10.9893 86.5273 11.4793 86.5273 12.1233C86.5273 12.7673 86.3173 13.2573 85.8973 13.5933C85.5053 13.9293 84.9313 14.0973 84.1753 14.0973H80.6053V23.6313C80.6053 25.7033 81.5573 26.8093 83.4613 26.9493L84.5953 27.0333Z" fill="white"/>
<path d="M114.526 31.0653C111.67 31.0653 109.164 30.4493 107.008 29.2173C104.88 27.9853 103.242 26.2213 102.094 23.9253C100.946 21.6293 100.372 18.9413 100.372 15.8613C100.372 12.7813 100.946 10.1073 102.094 7.83927C103.242 5.54327 104.88 3.77927 107.008 2.54727C109.164 1.31527 111.67 0.699272 114.526 0.699272C116.374 0.699272 118.11 0.979272 119.734 1.53927C121.358 2.07127 122.8 2.85527 124.06 3.89127C124.424 4.17127 124.676 4.46527 124.816 4.77327C124.956 5.08127 125.026 5.45927 125.026 5.90727C125.026 6.52327 124.858 7.04127 124.522 7.46127C124.186 7.88127 123.78 8.09127 123.304 8.09127C122.744 8.09127 122.17 7.89527 121.582 7.50327C120.378 6.60727 119.258 5.99127 118.222 5.65527C117.186 5.29127 116.038 5.10927 114.778 5.10927C111.866 5.10927 109.654 6.01927 108.142 7.83927C106.658 9.65927 105.916 12.3333 105.916 15.8613C105.916 19.4173 106.658 22.1053 108.142 23.9253C109.654 25.7453 111.866 26.6553 114.778 26.6553C115.982 26.6553 117.088 26.4733 118.096 26.1093C119.132 25.7453 120.294 25.1293 121.582 24.2613C121.862 24.0933 122.142 23.9533 122.422 23.8413C122.702 23.7293 122.996 23.6733 123.304 23.6733C123.78 23.6733 124.186 23.8833 124.522 24.3033C124.858 24.7233 125.026 25.2413 125.026 25.8573C125.026 26.2773 124.956 26.6553 124.816 26.9913C124.676 27.2993 124.424 27.5933 124.06 27.8733C122.8 28.9093 121.358 29.7073 119.734 30.2673C118.11 30.7993 116.374 31.0653 114.526 31.0653Z" fill="white"/>
<path d="M138.254 31.0233C136.154 31.0233 134.306 30.5893 132.71 29.7213C131.142 28.8533 129.924 27.6073 129.056 25.9833C128.188 24.3593 127.754 22.4693 127.754 20.3133C127.754 18.1573 128.188 16.2813 129.056 14.6853C129.924 13.0613 131.142 11.8153 132.71 10.9473C134.306 10.0793 136.154 9.64527 138.254 9.64527C140.354 9.64527 142.188 10.0793 143.756 10.9473C145.352 11.8153 146.57 13.0613 147.41 14.6853C148.278 16.2813 148.712 18.1573 148.712 20.3133C148.712 22.4693 148.278 24.3593 147.41 25.9833C146.57 27.6073 145.352 28.8533 143.756 29.7213C142.188 30.5893 140.354 31.0233 138.254 31.0233ZM138.212 26.9493C139.92 26.9493 141.222 26.3893 142.118 25.2693C143.014 24.1493 143.462 22.4973 143.462 20.3133C143.462 18.1573 143.014 16.5193 142.118 15.3993C141.222 14.2513 139.934 13.6773 138.254 13.6773C136.574 13.6773 135.272 14.2513 134.348 15.3993C133.452 16.5193 133.004 18.1573 133.004 20.3133C133.004 22.4973 133.452 24.1493 134.348 25.2693C135.244 26.3893 136.532 26.9493 138.212 26.9493Z" fill="white"/>
<path d="M177.448 9.64527C179.688 9.64527 181.396 10.3173 182.572 11.6613C183.776 12.9773 184.378 15.1193 184.378 18.0873V28.4193C184.378 29.2313 184.126 29.8613 183.622 30.3093C183.146 30.7293 182.516 30.9393 181.732 30.9393C180.976 30.9393 180.346 30.7293 179.842 30.3093C179.366 29.8613 179.128 29.2313 179.128 28.4193V18.0873C179.128 16.5473 178.848 15.4553 178.288 14.8113C177.756 14.1393 176.93 13.8033 175.81 13.8033C174.438 13.8033 173.346 14.2793 172.534 15.2313C171.722 16.1553 171.316 17.4293 171.316 19.0533V28.4193C171.316 29.2313 171.064 29.8613 170.56 30.3093C170.084 30.7293 169.468 30.9393 168.712 30.9393C167.956 30.9393 167.326 30.7293 166.822 30.3093C166.318 29.8613 166.066 29.2313 166.066 28.4193V18.0873C166.066 16.5473 165.786 15.4553 165.226 14.8113C164.694 14.1393 163.868 13.8033 162.748 13.8033C161.376 13.8033 160.284 14.2793 159.472 15.2313C158.688 16.1553 158.296 17.4293 158.296 19.0533V28.4193C158.296 29.2313 158.044 29.8613 157.54 30.3093C157.036 30.7293 156.406 30.9393 155.65 30.9393C154.894 30.9393 154.264 30.7293 153.76 30.3093C153.284 29.8613 153.046 29.2313 153.046 28.4193V12.1653C153.046 11.3813 153.298 10.7793 153.802 10.3593C154.306 9.93927 154.936 9.72927 155.692 9.72927C156.42 9.72927 157.008 9.93927 157.456 10.3593C157.932 10.7513 158.17 11.3253 158.17 12.0813V13.0893C158.814 11.9693 159.668 11.1153 160.732 10.5273C161.824 9.93927 163.07 9.64527 164.47 9.64527C167.55 9.64527 169.608 10.9333 170.644 13.5093C171.26 12.3333 172.17 11.3953 173.374 10.6953C174.578 9.99527 175.936 9.64527 177.448 9.64527Z" fill="white"/>
<path d="M214.116 9.64527C216.356 9.64527 218.064 10.3173 219.24 11.6613C220.444 12.9773 221.046 15.1193 221.046 18.0873V28.4193C221.046 29.2313 220.794 29.8613 220.29 30.3093C219.814 30.7293 219.184 30.9393 218.4 30.9393C217.644 30.9393 217.014 30.7293 216.51 30.3093C216.034 29.8613 215.796 29.2313 215.796 28.4193V18.0873C215.796 16.5473 215.516 15.4553 214.956 14.8113C214.424 14.1393 213.598 13.8033 212.478 13.8033C211.106 13.8033 210.014 14.2793 209.202 15.2313C208.39 16.1553 207.984 17.4293 207.984 19.0533V28.4193C207.984 29.2313 207.732 29.8613 207.228 30.3093C206.752 30.7293 206.136 30.9393 205.38 30.9393C204.624 30.9393 203.994 30.7293 203.49 30.3093C202.986 29.8613 202.734 29.2313 202.734 28.4193V18.0873C202.734 16.5473 202.454 15.4553 201.894 14.8113C201.362 14.1393 200.536 13.8033 199.416 13.8033C198.044 13.8033 196.952 14.2793 196.14 15.2313C195.356 16.1553 194.964 17.4293 194.964 19.0533V28.4193C194.964 29.2313 194.712 29.8613 194.208 30.3093C193.704 30.7293 193.074 30.9393 192.318 30.9393C191.562 30.9393 190.932 30.7293 190.428 30.3093C189.952 29.8613 189.714 29.2313 189.714 28.4193V12.1653C189.714 11.3813 189.966 10.7793 190.47 10.3593C190.974 9.93927 191.604 9.72927 192.36 9.72927C193.088 9.72927 193.676 9.93927 194.124 10.3593C194.6 10.7513 194.838 11.3253 194.838 12.0813V13.0893C195.482 11.9693 196.336 11.1153 197.4 10.5273C198.492 9.93927 199.738 9.64527 201.138 9.64527C204.218 9.64527 206.276 10.9333 207.312 13.5093C207.928 12.3333 208.838 11.3953 210.042 10.6953C211.246 9.99527 212.604 9.64527 214.116 9.64527Z" fill="white"/>
<path d="M242.594 9.72927C243.406 9.72927 244.05 9.95327 244.526 10.4013C245.002 10.8493 245.24 11.4513 245.24 12.2073V28.5033C245.24 29.2313 244.988 29.8193 244.484 30.2673C244.008 30.7153 243.378 30.9393 242.594 30.9393C241.838 30.9393 241.236 30.7293 240.788 30.3093C240.34 29.8893 240.116 29.3153 240.116 28.5873V27.5373C239.472 28.6573 238.604 29.5253 237.512 30.1413C236.42 30.7293 235.188 31.0233 233.816 31.0233C228.776 31.0233 226.256 28.1953 226.256 22.5393V12.2073C226.256 11.4513 226.494 10.8493 226.97 10.4013C227.446 9.95327 228.076 9.72927 228.86 9.72927C229.672 9.72927 230.316 9.95327 230.792 10.4013C231.268 10.8493 231.506 11.4513 231.506 12.2073V22.5813C231.506 24.0373 231.8 25.1153 232.388 25.8153C232.976 26.5153 233.9 26.8653 235.16 26.8653C236.616 26.8653 237.778 26.3893 238.646 25.4373C239.542 24.4573 239.99 23.1693 239.99 21.5733V12.2073C239.99 11.4513 240.228 10.8493 240.704 10.4013C241.18 9.95327 241.81 9.72927 242.594 9.72927Z" fill="white"/>
<path d="M262.633 9.64527C265.097 9.64527 266.931 10.3453 268.135 11.7453C269.339 13.1453 269.941 15.2593 269.941 18.0873V28.4193C269.941 29.2033 269.703 29.8193 269.227 30.2673C268.779 30.7153 268.149 30.9393 267.337 30.9393C266.525 30.9393 265.881 30.7153 265.405 30.2673C264.929 29.8193 264.691 29.2033 264.691 28.4193V18.3813C264.691 16.7853 264.383 15.6233 263.767 14.8953C263.179 14.1673 262.241 13.8033 260.953 13.8033C259.441 13.8033 258.223 14.2793 257.299 15.2313C256.403 16.1833 255.955 17.4573 255.955 19.0533V28.4193C255.955 29.2033 255.717 29.8193 255.241 30.2673C254.765 30.7153 254.121 30.9393 253.309 30.9393C252.497 30.9393 251.853 30.7153 251.377 30.2673C250.929 29.8193 250.705 29.2033 250.705 28.4193V12.1653C250.705 11.4373 250.943 10.8493 251.419 10.4013C251.895 9.95327 252.539 9.72927 253.351 9.72927C254.079 9.72927 254.667 9.95327 255.115 10.4013C255.591 10.8213 255.829 11.3813 255.829 12.0813V13.2153C256.529 12.0673 257.467 11.1853 258.643 10.5693C259.819 9.95327 261.149 9.64527 262.633 9.64527Z" fill="white"/>
<path d="M277.877 30.9393C277.121 30.9393 276.491 30.7293 275.987 30.3093C275.511 29.8613 275.273 29.2313 275.273 28.4193V12.2073C275.273 11.3953 275.511 10.7793 275.987 10.3593C276.491 9.93927 277.121 9.72927 277.877 9.72927C278.633 9.72927 279.263 9.93927 279.767 10.3593C280.271 10.7793 280.523 11.3953 280.523 12.2073V28.4193C280.523 29.2313 280.271 29.8613 279.767 30.3093C279.263 30.7293 278.633 30.9393 277.877 30.9393ZM277.877 5.99127C276.925 5.99127 276.169 5.73927 275.609 5.23527C275.049 4.70327 274.769 4.01727 274.769 3.17727C274.769 2.33727 275.049 1.66527 275.609 1.16127C276.169 0.657274 276.925 0.405273 277.877 0.405273C278.801 0.405273 279.543 0.657274 280.103 1.16127C280.691 1.66527 280.985 2.33727 280.985 3.17727C280.985 4.01727 280.705 4.70327 280.145 5.23527C279.585 5.73927 278.829 5.99127 277.877 5.99127Z" fill="white"/>
<path d="M296.605 27.0333C298.005 27.1173 298.705 27.7473 298.705 28.9233C298.705 29.5953 298.425 30.1133 297.865 30.4773C297.333 30.8133 296.563 30.9533 295.555 30.8973L294.421 30.8133C289.717 30.4773 287.365 27.9573 287.365 23.2533V14.0973H285.265C284.509 14.0973 283.921 13.9293 283.501 13.5933C283.109 13.2573 282.913 12.7673 282.913 12.1233C282.913 11.4793 283.109 10.9893 283.501 10.6533C283.921 10.3173 284.509 10.1493 285.265 10.1493H287.365V6.28527C287.365 5.52927 287.603 4.92727 288.079 4.47927C288.555 4.03127 289.199 3.80727 290.011 3.80727C290.795 3.80727 291.425 4.03127 291.901 4.47927C292.377 4.92727 292.615 5.52927 292.615 6.28527V10.1493H296.185C296.941 10.1493 297.515 10.3173 297.907 10.6533C298.327 10.9893 298.537 11.4793 298.537 12.1233C298.537 12.7673 298.327 13.2573 297.907 13.5933C297.515 13.9293 296.941 14.0973 296.185 14.0973H292.615V23.6313C292.615 25.7033 293.567 26.8093 295.471 26.9493L296.605 27.0333Z" fill="white"/>
<path d="M316.091 11.2413C316.315 10.7373 316.609 10.3733 316.973 10.1493C317.365 9.89727 317.785 9.77127 318.233 9.77127C318.877 9.77127 319.451 9.99527 319.955 10.4433C320.487 10.8633 320.753 11.3953 320.753 12.0393C320.753 12.3473 320.669 12.6693 320.501 13.0053L309.035 37.0293C308.559 37.9813 307.817 38.4573 306.809 38.4573C306.165 38.4573 305.591 38.2473 305.087 37.8273C304.611 37.4353 304.373 36.9313 304.373 36.3153C304.373 36.0073 304.457 35.6573 304.625 35.2653L307.481 29.2593L299.669 13.0053C299.529 12.7253 299.459 12.4033 299.459 12.0393C299.459 11.3953 299.725 10.8493 300.257 10.4013C300.817 9.95327 301.447 9.72927 302.147 9.72927C302.623 9.72927 303.057 9.85527 303.449 10.1073C303.841 10.3313 304.149 10.6953 304.373 11.1993L310.253 24.1773L316.091 11.2413Z" fill="white"/>
</svg>
