<svg width="190" height="54" viewBox="0 0 190 54" fill="none" xmlns="http://www.w3.org/2000/svg">
<path d="M14.0291 0.713867C16.2192 0.713867 18.2205 1.01595 20.033 1.62012C21.8455 2.22428 23.3748 2.92285 24.6209 3.71582V11.4756C23.2615 10.6449 21.8078 9.87077 20.2596 9.15332C18.7114 8.43587 16.9555 8.07715 14.992 8.07715C14.0102 8.07715 13.0285 8.22819 12.0467 8.53027C11.1027 8.83236 10.3097 9.28548 9.66779 9.88965C9.06362 10.4938 8.76154 11.2679 8.76154 12.2119C8.76154 13.458 9.30906 14.402 10.4041 15.0439C11.4992 15.6859 12.8397 16.3278 14.4256 16.9697L19.0701 18.8955C21.7134 20.0283 23.658 21.4066 24.9041 23.0303C26.1502 24.654 26.7733 26.5042 26.7733 28.5811C26.7733 30.8467 26.1124 32.848 24.7908 34.585C23.507 36.2842 21.77 37.6247 19.5799 38.6064C17.4276 39.5882 15.0298 40.0791 12.3865 40.0791C10.1587 40.0791 8.02521 39.7015 5.98615 38.9463C3.94708 38.1911 2.17234 37.266 0.661926 36.1709V28.4111C2.32338 29.6195 4.15476 30.639 6.15607 31.4697C8.15737 32.3005 10.2908 32.7158 12.5565 32.7158C14.1424 32.7158 15.5018 32.4137 16.6346 31.8096C17.7674 31.1676 18.3338 30.2236 18.3338 28.9775C18.3338 27.9958 17.8618 27.2028 16.9178 26.5986C16.0115 25.9567 15.0109 25.4281 13.9158 25.0127L8.08185 22.7471C5.13654 21.6143 3.13523 20.1416 2.07794 18.3291C1.05841 16.4788 0.548645 14.4398 0.548645 12.2119C0.548645 9.90853 1.17169 7.90723 2.41779 6.20801C3.70164 4.47103 5.3631 3.13053 7.40216 2.18652C9.44122 1.20475 11.6502 0.713867 14.0291 0.713867Z" fill="white"/>
<path d="M43.8221 2.46973V10.7959H51.7518V16.7998H43.8221V29.1475C43.8221 30.4313 44.1053 31.4508 44.6717 32.2061C45.2759 32.9235 46.1632 33.2822 47.3338 33.2822C48.3533 33.2822 49.2218 33.1689 49.9393 32.9424C50.6945 32.7158 51.393 32.3949 52.035 31.9795V37.7002C51.3175 38.4176 50.4113 39.0218 49.3162 39.5127C48.2589 40.0036 46.9184 40.249 45.2947 40.249C42.727 40.249 40.6313 39.4372 39.0076 37.8135C37.4217 36.152 36.6287 33.8864 36.6287 31.0166V16.7998H31.4744V13.1182C33.2869 12.4762 34.9484 11.2679 36.4588 9.49316C38.007 7.71842 39.2342 5.37728 40.1404 2.46973H43.8221Z" fill="white"/>
<path d="M70.4432 10.0596C71.9914 10.0596 73.5584 10.4183 75.1443 11.1357C76.7303 11.8532 78.0519 12.8161 79.1092 14.0244V10.7959H86.3026V39.3994H79.1092V34.585C78.2785 36.1331 77.0701 37.4736 75.4842 38.6064C73.8983 39.7015 72.048 40.249 69.9334 40.249C67.63 40.249 65.4966 39.6637 63.533 38.4932C61.6072 37.3226 60.0591 35.6234 58.8885 33.3955C57.7179 31.1676 57.1326 28.4678 57.1326 25.2959C57.1326 22.124 57.7179 19.4053 58.8885 17.1396C60.0968 14.874 61.7016 13.137 63.7029 11.9287C65.742 10.6826 67.9887 10.0596 70.4432 10.0596ZM71.9158 17.083C70.4054 17.083 69.1027 17.4795 68.0076 18.2725C66.9503 19.0277 66.1196 20.0283 65.5154 21.2744C64.9113 22.5205 64.6092 23.861 64.6092 25.2959C64.6092 27.4482 65.2511 29.2796 66.535 30.79C67.8566 32.3005 69.5936 33.0557 71.7459 33.0557C73.0298 33.0557 74.2192 32.7158 75.3143 32.0361C76.4471 31.3564 77.3533 30.4124 78.033 29.2041C78.7505 27.958 79.1092 26.4665 79.1092 24.7295V20.6514C78.0897 19.5563 76.9757 18.6878 75.7674 18.0459C74.5968 17.404 73.313 17.083 71.9158 17.083Z" fill="white"/>
<path d="M99.6697 10.7959L107.826 29.0342L115.756 10.7959H123.969L103.181 52.9932H95.0252L103.635 37.3037L91.2869 10.7959H99.6697Z" fill="white"/>
<path d="M154.215 10.7959V27.8447C154.215 30.3747 153.648 32.5648 152.515 34.415C151.383 36.2275 149.834 37.6247 147.871 38.6064C145.945 39.5882 143.755 40.0791 141.301 40.0791C138.808 40.0791 136.581 39.5882 134.617 38.6064C132.691 37.6247 131.162 36.2275 130.029 34.415C128.934 32.5648 128.387 30.3747 128.387 27.8447V10.7959H135.637L135.693 26.542C135.693 28.7699 136.203 30.4313 137.222 31.5264C138.242 32.6214 139.601 33.1689 141.301 33.1689C142.962 33.1689 144.303 32.6214 145.322 31.5264C146.379 30.4313 146.908 28.7699 146.908 26.542V10.7959H154.215Z" fill="white"/>
<path d="M173.756 10.0596C175.304 10.0596 176.871 10.4183 178.457 11.1357C180.043 11.8532 181.364 12.8161 182.422 14.0244V10.7959H189.615V38.6631C189.615 41.9105 188.898 44.6481 187.463 46.876C186.028 49.1416 184.121 50.8597 181.742 52.0303C179.363 53.2386 176.758 53.8428 173.926 53.8428C171.396 53.8428 169.319 53.4652 167.695 52.71C166.071 51.9548 164.561 51.0863 163.164 50.1045V43.3076C164.032 43.8363 164.939 44.4027 165.883 45.0068C166.864 45.611 167.959 46.1208 169.168 46.5361C170.414 46.9515 171.849 47.1592 173.472 47.1592C175.172 47.1592 176.701 46.8382 178.06 46.1963C179.42 45.5544 180.477 44.6481 181.232 43.4775C182.025 42.3447 182.422 41.042 182.422 39.5693V34.585C181.591 36.1331 180.383 37.4736 178.797 38.6064C177.211 39.7015 175.36 40.249 173.246 40.249C170.943 40.249 168.809 39.6637 166.846 38.4932C164.92 37.3226 163.372 35.6234 162.201 33.3955C161.03 31.1676 160.445 28.4678 160.445 25.2959C160.445 22.124 161.03 19.4053 162.201 17.1396C163.409 14.874 165.014 13.137 167.015 11.9287C169.055 10.6826 171.301 10.0596 173.756 10.0596ZM175.228 17.1396C173.718 17.1396 172.415 17.5361 171.32 18.3291C170.263 19.0843 169.432 20.085 168.828 21.3311C168.224 22.5394 167.922 23.861 167.922 25.2959C167.922 27.4482 168.564 29.2796 169.847 30.79C171.169 32.2627 172.906 32.999 175.058 32.999C176.342 32.999 177.532 32.6781 178.627 32.0361C179.76 31.3564 180.666 30.4124 181.346 29.2041C182.063 27.958 182.422 26.4665 182.422 24.7295V20.6514C181.402 19.5563 180.288 18.7067 179.08 18.1025C177.909 17.4606 176.625 17.1396 175.228 17.1396Z" fill="white"/>
</svg>
