<svg width="18" height="19" viewBox="0 0 18 19" fill="none" xmlns="http://www.w3.org/2000/svg">
<path d="M1.84724 5.68335C1.1486 5.68335 0.573242 6.2587 0.573242 6.97104V17.5603C0.573242 18.2589 1.1486 18.8343 1.84724 18.8343C2.55958 18.8343 3.13493 18.2589 3.13493 17.5603V6.97104C3.13493 6.2587 2.55958 5.68335 1.84724 5.68335" fill="#407BFF"/>
<path d="M9.03962 0.628906C8.34098 0.628906 7.76562 1.20426 7.76562 1.9166V17.5607C7.76562 18.2594 8.34098 18.8347 9.03962 18.8347C9.75196 18.8347 10.3273 18.2594 10.3273 17.5607V1.9166C10.3273 1.20426 9.75196 0.628906 9.03962 0.628906" fill="#407BFF"/>
<path d="M16.1354 11.2729C15.423 11.2729 14.8477 11.8483 14.8477 12.5606V17.5607C14.8477 18.2594 15.423 18.8347 16.1217 18.8347C16.834 18.8347 17.4093 18.2594 17.4093 17.5607V12.5606C17.4093 11.8483 16.834 11.2729 16.1354 11.2729" fill="#407BFF"/>
</svg>
