<svg width="114" height="113" viewBox="0 0 114 113" fill="none" xmlns="http://www.w3.org/2000/svg">
<path d="M113.165 29.8778V83.7189C113.156 89.4461 111.473 95.0456 108.322 99.8286C105.172 104.612 100.693 108.369 95.4345 110.639C91.8128 108.514 88.3467 106.134 85.0623 103.518C79.0861 98.9803 73.7049 93.7084 69.0459 87.8264C75.5899 85.6603 81.7015 82.3594 87.1013 78.0748C102.083 66.8455 101.02 47.0467 100.96 46.1897C100.913 45.3011 100.556 44.4572 99.9514 43.8041C99.347 43.1511 98.5331 42.7301 97.6508 42.6141C96.7728 42.4911 95.8797 42.6854 95.1321 43.162C94.3846 43.6387 93.8316 44.3666 93.5728 45.2146C92.3434 47.5989 90.443 49.5712 88.106 50.8883C85.5942 52.5431 80.0978 53.1045 75.2515 53.6069C71.1589 53.8042 67.1124 54.5598 63.2244 55.8527C61.0705 56.7619 59.0754 58.0089 57.3143 59.5466C54.8399 57.6988 52.2434 56.0205 49.5425 54.523C45.5896 52.8761 41.3199 52.1291 37.0427 52.3362C34.056 52.364 31.0776 52.0165 28.1775 51.302C25.1144 50.1529 22.5941 47.8962 21.1149 44.9781C20.7452 44.1784 20.1098 43.5314 19.3169 43.1473C18.524 42.7631 17.6225 42.6655 16.7657 42.8709C15.909 43.0764 15.1498 43.5724 14.6174 44.2744C14.085 44.9764 13.8123 45.8412 13.8455 46.7216C13.8455 47.4604 14.9093 65.1316 27.2319 77.2178C33.725 83.5548 42.1079 87.601 51.1087 88.7425C51.1065 94.5508 51.8211 100.337 53.2363 105.97C53.8644 108.361 54.6948 110.694 55.7186 112.944H30.0983C22.3592 112.906 14.9481 109.814 9.47565 104.342C4.00321 98.8691 0.911635 91.458 0.872803 83.7189V29.8778C0.911635 22.1387 4.00321 14.7276 9.47565 9.25519C14.9481 3.78275 22.3592 0.691176 30.0983 0.652344H83.9394C91.6785 0.691176 99.0895 3.78275 104.562 9.25519C110.034 14.7276 113.126 22.1387 113.165 29.8778Z" fill="white"/>
</svg>
