<svg width="325" height="46" viewBox="0 0 325 46" fill="none" xmlns="http://www.w3.org/2000/svg">
<path d="M17.2634 35.4022C14.0634 35.4022 11.2086 34.6807 8.69885 33.2375C6.22048 31.7944 4.27542 29.8023 2.86369 27.2612C1.45196 24.6887 0.746094 21.7241 0.746094 18.3673C0.746094 15.983 1.16961 13.7713 2.01665 11.7322C2.89506 9.66161 4.08719 7.85773 5.59304 6.32051C7.13026 4.78329 8.91846 3.59116 10.9576 2.74412C13.0282 1.89708 15.2556 1.47356 17.6398 1.47356C19.9927 1.47356 22.2515 1.97551 24.4161 2.97941C26.6122 3.95194 28.369 5.26955 29.6866 6.93226L25.4044 11.6851C24.275 10.493 23.0672 9.5675 21.7809 8.90869C20.4947 8.24988 19.0986 7.92047 17.5928 7.92047C15.7418 7.92047 14.0634 8.35968 12.5576 9.23809C11.0831 10.1165 9.90667 11.3557 9.02826 12.9557C8.14985 14.5242 7.71064 16.3438 7.71064 18.4144C7.71064 20.5476 8.13416 22.4143 8.9812 24.0142C9.85961 25.5828 11.0831 26.8063 12.6517 27.6847C14.2517 28.5318 16.0869 28.9553 18.1575 28.9553C19.6947 28.9553 21.1378 28.6416 22.4868 28.0141C23.8358 27.3867 24.9965 26.571 25.969 25.5671L29.2631 30.8847C28.5102 31.7317 27.4906 32.5003 26.2043 33.1905C24.9181 33.8807 23.4907 34.4297 21.9221 34.8375C20.3849 35.214 18.832 35.4022 17.2634 35.4022Z" fill="white"/>
<path d="M34.3678 34.9316V10.0851H40.5794L40.6735 14.1792C41.4892 12.8302 42.5558 11.7322 43.8734 10.8851C45.2224 10.0067 46.6341 9.56749 48.1086 9.56749C48.6733 9.56749 49.1909 9.61455 49.6615 9.70867C50.1635 9.77141 50.587 9.86553 50.9321 9.99101L49.1909 17.0497C48.8459 16.8614 48.4066 16.7046 47.8733 16.5791C47.34 16.4536 46.8067 16.3909 46.2734 16.3909C44.7361 16.3909 43.4342 16.9242 42.3676 17.9908C41.3323 19.0261 40.8147 20.3437 40.8147 21.9437V34.9316H34.3678Z" fill="white"/>
<path d="M58.3021 45.7549L62.9138 35.0728L51.6199 10.0851H58.9139L65.2196 24.9554C65.502 25.6142 65.7843 26.3828 66.0667 27.2612C66.1921 26.9161 66.3019 26.5867 66.3961 26.273C66.5215 25.9279 66.647 25.5671 66.7725 25.1907L72.1842 10.0851H79.5722L69.1254 34.9316L64.8432 45.7549H58.3021Z" fill="white"/>
<path d="M83.1258 45.2843V10.0851H89.3374L89.4316 13.0968C90.2472 12.0929 91.3609 11.2616 92.7727 10.6028C94.1844 9.94396 95.6746 9.61455 97.2431 9.61455C99.4078 9.61455 101.337 10.1636 103.031 11.2616C104.725 12.3596 106.059 13.8811 107.031 15.8262C108.004 17.7712 108.49 19.9829 108.49 22.4613C108.49 24.9397 108.004 27.1514 107.031 29.0965C106.059 31.0415 104.725 32.5787 103.031 33.7081C101.337 34.8061 99.4078 35.3551 97.2431 35.3551C95.7687 35.3551 94.3413 35.0571 92.9609 34.461C91.5805 33.8336 90.4668 33.0493 89.6198 32.1082V45.2843H83.1258ZM95.8314 29.8023C97.7451 29.8023 99.298 29.1278 100.49 27.7788C101.682 26.3985 102.278 24.626 102.278 22.4613C102.278 20.328 101.682 18.5869 100.49 17.2379C99.298 15.8575 97.7451 15.1674 95.8314 15.1674C93.9177 15.1674 92.3648 15.8419 91.1727 17.1909C89.9806 18.5398 89.3845 20.2967 89.3845 22.4613C89.3845 24.626 89.9806 26.3985 91.1727 27.7788C92.3648 29.1278 93.9177 29.8023 95.8314 29.8023Z" fill="white"/>
<path d="M116.088 34.9316V15.8732H111.382V10.0851H116.088V3.73233H122.488V10.0851H127.711V15.8732H122.488V34.9316H116.088Z" fill="white"/>
<path d="M143.321 35.4022C140.78 35.4022 138.521 34.8532 136.545 33.7552C134.568 32.6258 133.015 31.0886 131.886 29.1435C130.757 27.1985 130.192 24.9711 130.192 22.4613C130.192 19.9829 130.757 17.7712 131.886 15.8262C133.015 13.8811 134.568 12.3596 136.545 11.2616C138.521 10.1322 140.78 9.56749 143.321 9.56749C145.8 9.56749 148.027 10.1322 150.003 11.2616C151.98 12.3596 153.533 13.8811 154.662 15.8262C155.791 17.7712 156.356 19.9829 156.356 22.4613C156.356 24.9711 155.791 27.1985 154.662 29.1435C153.533 31.0886 151.98 32.6258 150.003 33.7552C148.027 34.8532 145.8 35.4022 143.321 35.4022ZM143.321 29.8023C144.576 29.8023 145.705 29.4886 146.709 28.8612C147.713 28.2024 148.482 27.324 149.015 26.2259C149.58 25.1279 149.862 23.8731 149.862 22.4613C149.862 21.0496 149.58 19.7947 149.015 18.6967C148.482 17.5987 147.713 16.736 146.709 16.1085C145.705 15.4811 144.576 15.1674 143.321 15.1674C142.035 15.1674 140.89 15.4811 139.886 16.1085C138.882 16.736 138.098 17.5987 137.533 18.6967C136.968 19.7947 136.686 21.0496 136.686 22.4613C136.686 23.8731 136.968 25.1279 137.533 26.2259C138.098 27.324 138.882 28.2024 139.886 28.8612C140.89 29.4886 142.035 29.8023 143.321 29.8023Z" fill="white"/>
<path d="M168.132 34.9316L158.014 1.9912H164.979L170.532 20.6731C170.751 21.3947 170.939 22.1633 171.096 22.979C171.253 23.7946 171.41 24.5789 171.567 25.3318C171.786 24.2966 171.975 23.4338 172.132 22.7437C172.32 22.0221 172.524 21.3319 172.743 20.6731L178.061 6.8852H183.708L188.884 20.6731C189.198 21.4574 189.449 22.2103 189.637 22.9319C189.857 23.6221 190.061 24.3123 190.249 25.0024C190.311 24.4377 190.406 23.8417 190.531 23.2142C190.657 22.5868 190.876 21.7084 191.19 20.579L196.649 1.9912H203.566L193.449 34.9316H188.413L180.602 16.2026L173.214 34.9316H168.132Z" fill="white"/>
<path d="M207.526 34.9316V0.108887H213.878V13.3321C214.725 12.2341 215.839 11.34 217.219 10.6498C218.631 9.92827 220.106 9.56749 221.643 9.56749C227.353 9.56749 230.207 12.9557 230.207 19.732V34.9316H223.808V20.2025C223.808 16.6575 222.317 14.9478 219.337 15.0733C217.8 15.0733 216.514 15.5438 215.478 16.485C214.474 17.4261 213.972 18.5869 213.972 19.9673V34.9316H207.526Z" fill="white"/>
<path d="M245.979 35.4022C243.909 35.4022 242.042 34.8375 240.38 33.7081C238.717 32.5787 237.384 31.0415 236.38 29.0965C235.407 27.1514 234.921 24.9397 234.921 22.4613C234.921 19.9202 235.407 17.6928 236.38 15.7791C237.384 13.8341 238.733 12.3125 240.427 11.2145C242.152 10.1165 244.097 9.56749 246.262 9.56749C248.019 9.56749 249.556 9.92827 250.873 10.6498C252.191 11.34 253.242 12.2498 254.026 13.3792V10.0851H260.426V34.9316H253.979V31.5905C253.101 32.6885 251.956 33.5983 250.544 34.3199C249.164 35.0414 247.642 35.4022 245.979 35.4022ZM247.721 29.8023C249.634 29.8023 251.187 29.1278 252.379 27.7788C253.571 26.4299 254.168 24.6573 254.168 22.4613C254.168 20.2653 253.571 18.4928 252.379 17.1438C251.187 15.7948 249.634 15.1203 247.721 15.1203C245.838 15.1203 244.301 15.7948 243.109 17.1438C241.948 18.4928 241.368 20.2653 241.368 22.4613C241.368 24.6573 241.948 26.4299 243.109 27.7788C244.301 29.1278 245.838 29.8023 247.721 29.8023Z" fill="white"/>
<path d="M267.223 34.9316V0.108887H273.623V34.9316H267.223Z" fill="white"/>
<path d="M291.715 35.4022C289.048 35.4022 286.711 34.8532 284.703 33.7552C282.695 32.6572 281.127 31.1513 279.997 29.2376C278.899 27.324 278.35 25.1279 278.35 22.6496C278.35 20.0771 278.884 17.8183 279.95 15.8732C281.048 13.8968 282.539 12.3439 284.421 11.2145C286.335 10.0851 288.531 9.52044 291.009 9.52044C293.236 9.52044 295.228 10.0694 296.985 11.1675C298.773 12.2341 300.154 13.6929 301.126 15.5438C302.13 17.3948 302.601 19.5124 302.538 21.8966L302.491 23.9201H284.609C284.954 25.7083 285.801 27.12 287.15 28.1553C288.531 29.1906 290.272 29.7082 292.374 29.7082C293.503 29.7082 294.523 29.5357 295.432 29.1906C296.374 28.8455 297.377 28.2337 298.444 27.3553L301.55 31.6846C300.201 32.8768 298.648 33.8022 296.891 34.461C295.166 35.0885 293.44 35.4022 291.715 35.4022ZM291.056 15.0733C287.511 15.0733 285.378 16.6732 284.656 19.8731H296.421V19.6849C296.326 18.3359 295.762 17.2379 294.726 16.3909C293.723 15.5125 292.499 15.0733 291.056 15.0733Z" fill="white"/>
<path d="M307.523 34.9316V10.0851H313.735L313.829 14.1792C314.645 12.8302 315.711 11.7322 317.029 10.8851C318.378 10.0067 319.79 9.56749 321.264 9.56749C321.829 9.56749 322.346 9.61455 322.817 9.70867C323.319 9.77141 323.742 9.86553 324.088 9.99101L322.346 17.0497C322.001 16.8614 321.562 16.7046 321.029 16.5791C320.496 16.4536 319.962 16.3909 319.429 16.3909C317.892 16.3909 316.59 16.9242 315.523 17.9908C314.488 19.0261 313.97 20.3437 313.97 21.9437V34.9316H307.523Z" fill="white"/>
</svg>
