<svg width="74" height="78" viewBox="0 0 74 78" fill="none" xmlns="http://www.w3.org/2000/svg">
<path fill-rule="evenodd" clip-rule="evenodd" d="M39.7598 41.8897L39.7598 74.1085C39.7598 75.9137 38.2964 77.3771 36.4912 77.3771C34.686 77.3771 33.2226 75.9137 33.2226 74.1085L33.2226 41.8897C33.2226 40.0845 34.686 38.6211 36.4912 38.6211C38.2964 38.6211 39.7598 40.0845 39.7598 41.8897Z" fill="#FD5A33"/>
<path fill-rule="evenodd" clip-rule="evenodd" d="M50.2295 74.1133C50.2295 75.9185 48.7661 77.3819 46.9609 77.3819L26.0212 77.3819C24.216 77.3819 22.7526 75.9185 22.7526 74.1133C22.7526 72.3081 24.216 70.8447 26.0212 70.8447L46.9609 70.8447C48.7661 70.8447 50.2295 72.3081 50.2295 74.1133Z" fill="#FD5A33"/>
<path fill-rule="evenodd" clip-rule="evenodd" d="M63.5699 46.8266C61.6546 49.4114 58.4906 50.7831 52.3151 51.3523C50.5175 51.518 49.1946 53.1096 49.3603 54.9072C49.526 56.7048 51.1176 58.0277 52.9151 57.862C59.5936 57.2464 65.1903 55.62 68.8223 50.7186C72.28 46.0525 73.4053 39.0966 73.4053 29.4738C73.4053 16.7287 71.4231 8.5797 64.5857 4.37969C61.3529 2.39385 57.3834 1.53606 52.9292 1.12163C48.4959 0.709154 43.1799 0.709172 37.0609 0.709197L36.7886 0.709197C30.6696 0.709171 25.3535 0.709153 20.9203 1.12163C16.4661 1.53606 12.4965 2.39384 9.26371 4.37969C2.42635 8.57969 0.444185 16.7287 0.444184 29.4738C0.444184 39.0966 1.56949 46.0525 5.02716 50.7186C8.65914 55.62 14.2558 57.2463 20.9343 57.862C22.7319 58.0277 24.3234 56.7048 24.4891 54.9072C24.6548 53.1096 23.3319 51.518 21.5344 51.3523C15.3589 50.7831 12.1948 49.4114 10.2795 46.8266C8.1899 44.0066 6.9814 38.9883 6.9814 29.4738C6.9814 16.7229 9.14623 12.1239 12.6854 9.94991C14.6408 8.74876 17.4168 8.01304 21.5259 7.63072C25.6232 7.2495 30.6421 7.2464 36.9247 7.2464C43.2074 7.2464 48.2263 7.24951 52.3235 7.63073C56.4326 8.01304 59.2087 8.74876 61.1641 9.94991C64.7032 12.1239 66.8681 16.7229 66.8681 29.4738C66.8681 38.9883 65.6596 44.0066 63.5699 46.8266Z" fill="white"/>
</svg>
