<svg width="100" height="90" viewBox="0 0 100 90" fill="none" xmlns="http://www.w3.org/2000/svg">
<path fill-rule="evenodd" clip-rule="evenodd" d="M78.4156 27.2731H99.2071C99.2071 10.5793 89.2044 0.827148 72.2568 0.827148H27.8783C10.9306 0.827148 0.927979 10.5793 0.927979 27.0601V63.0453C0.927979 79.5261 10.9306 89.2783 27.8783 89.2783H72.2568C89.2044 89.2783 99.2071 79.5261 99.2071 63.0453V61.5122H78.4156C68.7661 61.5122 60.9437 53.8857 60.9437 44.4778C60.9437 35.07 68.7661 27.4434 78.4156 27.4434V27.2731ZM78.4155 34.5978H95.538C97.5643 34.5978 99.207 36.1994 99.207 38.1751V50.6102C99.1835 52.5762 97.5545 54.1644 95.538 54.1874H78.8087C73.9237 54.2515 69.652 50.9906 68.5439 46.3516C67.9891 43.4719 68.768 40.5003 70.672 38.2332C72.5761 35.9662 75.4104 34.6355 78.4155 34.5978ZM79.1581 47.6718H80.7742C82.8489 47.6718 84.5307 46.032 84.5307 44.0094C84.5307 41.9867 82.8489 40.347 80.7742 40.347H79.1581C78.1659 40.3356 77.2103 40.7119 76.5045 41.392C75.7987 42.0721 75.4016 42.9993 75.4017 43.9668C75.4015 45.9965 77.0764 47.6484 79.1581 47.6718ZM24.2092 27.2731H51.9457C54.0204 27.2731 55.7022 25.6334 55.7022 23.6107C55.7022 21.588 54.0204 19.9483 51.9457 19.9483H24.2092C22.1515 19.9481 20.4767 21.562 20.4527 23.5681C20.4526 25.5978 22.1275 27.2497 24.2092 27.2731Z" fill="white"/>
</svg>
