<svg width="70" height="104" viewBox="0 0 70 104" fill="none" xmlns="http://www.w3.org/2000/svg">
<path d="M35.3039 63.0087C39.2311 63.0087 42.4147 59.8283 42.4147 55.9052C42.4147 51.9821 39.2311 48.8018 35.3039 48.8018C31.3768 48.8018 28.1932 51.9821 28.1932 55.9052C28.1932 59.8283 31.3768 63.0087 35.3039 63.0087Z" fill="white"/>
<path d="M36.562 1.49429C36.4433 1.26256 36.2627 1.06808 36.0404 0.932277C35.818 0.796472 35.5625 0.724609 35.3019 0.724609C35.0413 0.724609 34.7857 0.796472 34.5634 0.932277C34.341 1.06808 34.1605 1.26256 34.0417 1.49429C24.1072 21.1578 0.99461 51.1116 0.99461 69.2227C0.974278 73.7365 1.84667 78.2099 3.56172 82.386C5.27676 86.562 7.80066 90.3585 10.9885 93.5575C14.1764 96.7564 17.9654 99.2948 22.1379 101.027C26.3105 102.759 30.7845 103.651 35.3029 103.651C39.8214 103.651 44.2954 102.759 48.4679 101.027C52.6405 99.2948 56.4295 96.7564 59.6173 93.5575C62.8052 90.3585 65.3291 86.562 67.0441 82.386C68.7592 78.2099 69.6316 73.7365 69.6112 69.2227C69.6112 51.1116 46.4959 21.1578 36.562 1.49429ZM37.9778 84.3297C37.7054 84.7978 37.3147 85.1863 36.8449 85.4563C36.3751 85.7264 35.8425 85.8685 35.3005 85.8685C34.7585 85.8685 34.2259 85.7264 33.7561 85.4563C33.2863 85.1863 32.8956 84.7978 32.6232 84.3297C27.6215 75.7411 19.8342 64.6904 19.8342 57.6355C19.8342 55.6067 20.2343 53.5976 21.0115 51.7232C21.7887 49.8487 22.9279 48.1455 24.364 46.7109C25.8001 45.2762 27.505 44.1382 29.3814 43.3618C31.2577 42.5854 33.2688 42.1858 35.2998 42.1858C37.3308 42.1858 39.3418 42.5854 41.2182 43.3618C43.0946 44.1382 44.7995 45.2762 46.2356 46.7109C47.6717 48.1455 48.8109 49.8487 49.5881 51.7232C50.3653 53.5976 50.7654 55.6067 50.7654 57.6355C50.7654 64.6925 42.985 75.7411 37.9785 84.3297H37.9778Z" fill="white"/>
</svg>
