<svg width="107" height="107" viewBox="0 0 107 107" fill="none" xmlns="http://www.w3.org/2000/svg">
<path d="M100.186 30.5924L75.978 6.38442C70.9538 1.36013 63.6131 -0.630013 56.7291 1.22963L23.6471 10.0711C16.7632 11.8981 11.38 17.2813 9.55297 24.1652L0.711514 57.2472C-1.1155 64.1312 0.842016 71.4719 5.86631 76.4962L30.0743 100.704C35.0986 105.728 42.4393 107.719 49.3232 105.859L82.4052 96.9848C89.2892 95.1578 94.6723 89.7746 96.4993 82.8907L105.373 49.8087C107.2 42.9574 105.243 35.6167 100.186 30.5924Z" fill="#FD794F"/>
<path opacity="0.25" fill-rule="evenodd" clip-rule="evenodd" d="M79.4853 48.5689C79.4853 47.5868 78.673 46.7745 77.6909 46.7745L28.3941 46.7745C27.412 46.7745 26.5997 47.5868 26.5997 48.5689L26.5997 77.2139C26.5997 78.1959 27.412 79.0083 28.3941 79.0083L77.6909 79.0083C78.673 79.0083 79.4853 78.1959 79.4853 77.2139L79.4853 48.5689ZM77.6909 42.5332C81.0154 42.5332 83.7266 45.2444 83.7266 48.5689L83.7266 77.2139C83.7266 80.5383 81.0154 83.2496 77.6909 83.2496L28.3941 83.2496C25.0696 83.2496 22.3584 80.5383 22.3584 77.2139L22.3584 48.5689C22.3584 45.2444 25.0696 42.5332 28.3941 42.5332L77.6909 42.5332Z" fill="white" fill-opacity="0.52"/>
<path d="M24.4791 77.2143L24.4791 48.5693C24.4791 46.4161 26.2409 44.6543 28.3941 44.6543L77.6909 44.6543C79.8442 44.6543 81.606 46.4161 81.606 48.5693L81.606 77.2143C81.606 79.3676 79.8442 81.1294 77.6909 81.1294L28.3941 81.1294C26.2409 81.1294 24.4791 79.3676 24.4791 77.2143Z" fill="#FE9B7B"/>
<path opacity="0.99" d="M67.3652 81.1298H38.7202C36.5669 81.1298 34.8052 79.368 34.8052 77.2148V27.918C34.8052 25.7647 36.5669 24.0029 38.7202 24.0029H67.3652C69.5185 24.0029 71.2802 25.7647 71.2802 27.918V77.2148C71.2802 79.368 69.5185 81.1298 67.3652 81.1298Z" fill="white"/>
<path opacity="0.99" fill-rule="evenodd" clip-rule="evenodd" d="M38.8834 28.0801V77.0507H67.2021V28.0801H38.8834ZM30.7271 27.917C30.7271 23.5114 34.3147 19.9238 38.7202 19.9238H67.3652C71.7708 19.9238 75.3584 23.5114 75.3584 27.917V77.2138C75.3584 81.6194 71.7708 85.207 67.3652 85.207H38.7202C34.3147 85.207 30.7271 81.6194 30.7271 77.2138V27.917Z" fill="white" fill-opacity="0.52"/>
<path d="M49.2874 40.2104C49.4006 39.947 49.7741 39.9472 49.8871 40.2107L56.1976 54.9354C56.3107 55.1992 56.6846 55.199 56.7975 54.9352L60.6181 46.0041C60.6695 45.884 60.7875 45.8062 60.9181 45.8062H65.3851C65.5653 45.8062 65.7114 45.6601 65.7114 45.4799V43.829C65.7114 43.6488 65.5653 43.5028 65.3851 43.5028H59.4178C59.2874 43.5028 59.1696 43.5804 59.1181 43.7002L56.7979 49.0985C56.6847 49.3619 56.3113 49.3617 56.1983 49.0982L49.8877 34.3735C49.7747 34.1098 49.4008 34.1099 49.2879 34.3737L45.4672 43.3048C45.4159 43.4249 45.2979 43.5028 45.1673 43.5028H40.7003C40.5201 43.5028 40.374 43.6488 40.374 43.829V45.4799C40.374 45.6601 40.5201 45.8062 40.7003 45.8062H46.6676C46.798 45.8062 46.9158 45.7285 46.9673 45.6087L49.2874 40.2104Z" fill="#FD794F"/>
<path d="M45.9602 71.8127L45.955 69.3906L44.7544 71.3951H44.4516L43.251 69.4219V71.8127H42.6037V68.1586H43.1623L44.6135 70.5807L46.0385 68.1586H46.5971L46.6023 71.8127H45.9602Z" fill="black"/>
<path d="M49.2963 71.8649C48.9239 71.8649 48.5881 71.7848 48.2888 71.6248C47.9895 71.4612 47.7546 71.2367 47.5841 70.9514C47.4136 70.6625 47.3283 70.3406 47.3283 69.9857C47.3283 69.6307 47.4136 69.3105 47.5841 69.0252C47.7546 68.7363 47.9895 68.5119 48.2888 68.3518C48.5881 68.1882 48.9239 68.1064 49.2963 68.1064C49.6686 68.1064 50.0044 68.1882 50.3037 68.3518C50.603 68.5119 50.8379 68.7346 51.0084 69.02C51.1789 69.3053 51.2642 69.6272 51.2642 69.9857C51.2642 70.3441 51.1789 70.666 51.0084 70.9514C50.8379 71.2367 50.603 71.4612 50.3037 71.6248C50.0044 71.7848 49.6686 71.8649 49.2963 71.8649ZM49.2963 71.2698C49.5399 71.2698 49.7591 71.2159 49.954 71.108C50.1489 70.9966 50.302 70.8435 50.4133 70.6486C50.5247 70.4502 50.5804 70.2293 50.5804 69.9857C50.5804 69.7421 50.5247 69.5228 50.4133 69.3279C50.302 69.1296 50.1489 68.9765 49.954 68.8686C49.7591 68.7572 49.5399 68.7015 49.2963 68.7015C49.0527 68.7015 48.8334 68.7572 48.6385 68.8686C48.4436 68.9765 48.2905 69.1296 48.1792 69.3279C48.0678 69.5228 48.0121 69.7421 48.0121 69.9857C48.0121 70.2293 48.0678 70.4502 48.1792 70.6486C48.2905 70.8435 48.4436 70.9966 48.6385 71.108C48.8334 71.2159 49.0527 71.2698 49.2963 71.2698Z" fill="black"/>
<path d="M54.5727 69.9126C54.7745 69.9787 54.9346 70.0901 55.0529 70.2467C55.1712 70.3998 55.2304 70.5912 55.2304 70.8209C55.2304 71.1376 55.1086 71.3829 54.865 71.5569C54.6214 71.7274 54.2664 71.8127 53.8001 71.8127H51.9835V68.1586H53.6957C54.1272 68.1586 54.4596 68.2439 54.6927 68.4144C54.9259 68.5815 55.0425 68.8129 55.0425 69.1087C55.0425 69.2897 55.0007 69.4497 54.9172 69.5889C54.8337 69.7281 54.7188 69.836 54.5727 69.9126ZM52.6621 68.6911V69.6986H53.6226C53.8593 69.6986 54.0402 69.6568 54.1655 69.5733C54.2943 69.4863 54.3586 69.361 54.3586 69.1974C54.3586 69.0304 54.2943 68.9051 54.1655 68.8216C54.0402 68.7346 53.8593 68.6911 53.6226 68.6911H52.6621ZM53.7583 71.2802C54.2838 71.2802 54.5466 71.1045 54.5466 70.753C54.5466 70.4015 54.2838 70.2258 53.7583 70.2258H52.6621V71.2802H53.7583Z" fill="black"/>
<path d="M55.9546 68.1586H56.6332V71.8127H55.9546V68.1586Z" fill="black"/>
<path d="M57.6216 68.1586H58.3002V71.2385H60.2107V71.8127H57.6216V68.1586Z" fill="black"/>
<path d="M63.487 71.2437V71.8127H60.7465V68.1586H63.4139V68.7276H61.4251V69.6777H63.1894V70.2362H61.4251V71.2437H63.487Z" fill="black"/>
<path d="M43.4768 75.0948C43.2506 75.0948 43.0461 75.0448 42.8634 74.9447C42.6829 74.8447 42.5405 74.7065 42.4361 74.5304C42.3338 74.352 42.2827 74.153 42.2827 73.9333C42.2827 73.7136 42.3338 73.5157 42.4361 73.3395C42.5405 73.1612 42.684 73.022 42.8667 72.9219C43.0494 72.8219 43.2539 72.7719 43.4801 72.7719C43.6497 72.7719 43.8063 72.8001 43.9499 72.8567C44.0934 72.9132 44.2152 72.9959 44.3153 73.1046L44.1619 73.258C43.9836 73.0775 43.7585 72.9872 43.4866 72.9872C43.3061 72.9872 43.1418 73.0285 42.9939 73.1112C42.846 73.1938 42.7297 73.3069 42.6449 73.4505C42.5622 73.594 42.5209 73.755 42.5209 73.9333C42.5209 74.1117 42.5622 74.2726 42.6449 74.4162C42.7297 74.5597 42.846 74.6728 42.9939 74.7555C43.1418 74.8381 43.3061 74.8795 43.4866 74.8795C43.7606 74.8795 43.9858 74.7881 44.1619 74.6054L44.3153 74.7587C44.2152 74.8675 44.0923 74.9512 43.9466 75.01C43.8031 75.0665 43.6465 75.0948 43.4768 75.0948Z" fill="black"/>
<path d="M46.8527 72.7914H47.0941V74.8664H48.373V75.0752H46.8527V72.7914Z" fill="black"/>
<path d="M50.7967 72.7914H51.0381V75.0752H50.7967V72.7914Z" fill="black"/>
<path d="M55.7125 72.7914V75.0752H55.5135L54.0454 73.2221V75.0752H53.8039V72.7914H54.0029L55.4743 74.6446V72.7914H55.7125Z" fill="black"/>
<path d="M58.4807 72.7914H58.7221V75.0752H58.4807V72.7914Z" fill="black"/>
<path d="M62.4798 75.0948C62.2536 75.0948 62.0491 75.0448 61.8664 74.9447C61.6859 74.8447 61.5434 74.7065 61.439 74.5304C61.3368 74.352 61.2857 74.153 61.2857 73.9333C61.2857 73.7136 61.3368 73.5157 61.439 73.3395C61.5434 73.1612 61.687 73.022 61.8697 72.9219C62.0524 72.8219 62.2568 72.7719 62.483 72.7719C62.6527 72.7719 62.8093 72.8001 62.9528 72.8567C63.0964 72.9132 63.2182 72.9959 63.3182 73.1046L63.1649 73.258C62.9865 73.0775 62.7614 72.9872 62.4895 72.9872C62.309 72.9872 62.1448 73.0285 61.9969 73.1112C61.849 73.1938 61.7326 73.3069 61.6478 73.4505C61.5652 73.594 61.5238 73.755 61.5238 73.9333C61.5238 74.1117 61.5652 74.2726 61.6478 74.4162C61.7326 74.5597 61.849 74.6728 61.9969 74.7555C62.1448 74.8381 62.309 74.8795 62.4895 74.8795C62.7636 74.8795 62.9887 74.7881 63.1649 74.6054L63.3182 74.7587C63.2182 74.8675 63.0953 74.9512 62.9496 75.01C62.806 75.0665 62.6494 75.0948 62.4798 75.0948Z" fill="black"/>
</svg>
