<svg width="102" height="96" viewBox="0 0 102 96" fill="none" xmlns="http://www.w3.org/2000/svg">
<path d="M4.85497 0.0947266C3.42697 0.0947266 2.32197 0.621727 1.53997 1.67573C0.791969 2.69573 0.417969 4.02173 0.417969 5.65372V31.2557C0.417969 33.7377 0.842969 35.4717 1.69297 36.4577C2.57697 37.4097 3.68197 37.8857 5.00797 37.8857C5.44997 37.8857 5.80697 37.8687 6.07897 37.8347C6.38497 37.8007 6.65697 37.7667 6.89497 37.7327C7.13297 37.6647 7.37097 37.6137 7.60897 37.5797C7.88097 37.5117 8.23797 37.4777 8.67997 37.4777C9.32597 37.4777 9.83597 37.5457 10.21 37.6817C10.584 37.8177 10.975 37.9537 11.383 38.0897C11.791 38.2597 12.284 38.4127 12.862 38.5487C13.44 38.6847 14.222 38.7527 15.208 38.7527C16.466 38.7527 17.809 38.5147 19.237 38.0387C20.665 37.5627 21.991 36.7977 23.215 35.7437C24.439 34.6557 25.442 33.2617 26.224 31.5617C27.04 29.8277 27.448 27.7197 27.448 25.2377C27.448 23.1637 27.074 21.3277 26.326 19.7297C25.578 18.0977 24.643 16.7207 23.521 15.5987C22.399 14.4767 21.175 13.6267 19.849 13.0487C18.557 12.4707 17.333 12.1817 16.177 12.1817C15.123 12.1817 14.239 12.2497 13.525 12.3857C12.811 12.4877 12.182 12.5387 11.638 12.5387C11.196 12.5387 10.822 12.4877 10.516 12.3857C10.21 12.2497 9.95497 12.0287 9.75097 11.7227C9.54697 11.4167 9.39397 10.9917 9.29197 10.4477C9.18997 9.86973 9.13897 9.12173 9.13897 8.20373C9.13897 7.11573 9.08797 6.07873 8.98597 5.09273C8.88397 4.10673 8.67997 3.25673 8.37397 2.54273C8.06797 1.79473 7.62597 1.19973 7.04797 0.757727C6.50397 0.315726 5.77297 0.0947266 4.85497 0.0947266ZM14.086 20.5967C15.548 20.5967 16.67 21.1067 17.452 22.1267C18.234 23.1127 18.625 24.2687 18.625 25.5947C18.625 26.1047 18.523 26.6317 18.319 27.1757C18.149 27.7197 17.86 28.2297 17.452 28.7057C17.078 29.1477 16.585 29.5217 15.973 29.8277C15.395 30.0997 14.681 30.2357 13.831 30.2357C12.981 30.2357 12.267 30.0657 11.689 29.7257C11.111 29.3857 10.635 28.9777 10.261 28.5017C9.92097 27.9917 9.66597 27.4647 9.49597 26.9207C9.32597 26.3427 9.24097 25.8327 9.24097 25.3907C9.24097 24.6767 9.37697 24.0307 9.64897 23.4527C9.92097 22.8407 10.278 22.3307 10.72 21.9227C11.162 21.4807 11.672 21.1577 12.25 20.9537C12.828 20.7157 13.44 20.5967 14.086 20.5967Z" fill="white"/>
<path d="M41.4522 12.4367C40.3982 12.4367 39.4972 12.7597 38.7492 13.4057C38.0012 14.0177 37.6273 14.8507 37.6273 15.9047C37.6273 16.9927 37.8823 18.1487 38.3923 19.3727C38.9363 20.5627 39.5142 21.9227 40.1262 23.4527L42.3703 29.0627C42.8803 30.3887 43.4412 31.7317 44.0532 33.0917C44.6992 34.4177 45.3622 35.4377 46.0422 36.1517C46.5182 36.5937 47.1133 36.9847 47.8273 37.3247C48.5753 37.6647 49.3402 37.8347 50.1222 37.8347C51.4142 37.8347 52.3662 37.6137 52.9782 37.1717C53.5902 36.6957 54.1003 36.2537 54.5083 35.8457C54.7463 35.6077 54.9842 35.2507 55.2222 34.7747C55.4942 34.2987 55.7493 33.7547 55.9873 33.1427C56.2593 32.4967 56.5312 31.8167 56.8032 31.1027C57.0752 30.3887 57.3642 29.6577 57.6702 28.9097L60.2202 22.5857C60.8662 21.0557 61.3592 19.7467 61.6992 18.6587C62.0732 17.5367 62.2603 16.5847 62.2603 15.8027C62.2603 14.9527 61.9373 14.1707 61.2913 13.4567C60.6453 12.7427 59.6932 12.3857 58.4352 12.3857C57.1772 12.3857 56.1402 12.8277 55.3242 13.7117C54.5422 14.5957 53.8452 15.7517 53.2332 17.1797C52.9952 17.6897 52.7743 18.2507 52.5703 18.8627C52.3663 19.4407 52.1452 19.9847 51.9072 20.4947C51.7032 20.9707 51.4482 21.3787 51.1423 21.7187C50.8702 22.0587 50.5472 22.2287 50.1732 22.2287C49.7992 22.2287 49.4592 22.0587 49.1532 21.7187C48.8472 21.3787 48.5753 20.9707 48.3372 20.4947C48.0992 19.9847 47.8782 19.4577 47.6742 18.9137C47.5042 18.3697 47.3173 17.8937 47.1133 17.4857C46.8073 16.8057 46.4842 16.1597 46.1442 15.5477C45.8382 14.9357 45.4812 14.4087 45.0732 13.9667C44.6652 13.4907 44.1722 13.1167 43.5942 12.8447C43.0162 12.5727 42.3022 12.4367 41.4522 12.4367Z" fill="white"/>
<path d="M78.3197 12.4877C76.6537 12.4877 75.4637 13.0317 74.7497 14.1197C74.0357 15.2077 73.6787 16.8567 73.6787 19.0667V42.9347C73.6787 43.6147 73.7467 44.2777 73.8827 44.9237C74.0527 45.6037 74.3077 46.1987 74.6477 46.7087C74.9877 47.2527 75.4467 47.6947 76.0247 48.0347C76.6027 48.3747 77.2997 48.5447 78.1157 48.5447C78.9317 48.5447 79.6287 48.3747 80.2067 48.0347C80.7847 47.6947 81.2437 47.2357 81.5837 46.6577C81.9577 46.0797 82.2297 45.4337 82.3997 44.7197C82.5697 44.0057 82.6547 43.2577 82.6547 42.4757C82.6547 41.2177 82.7907 40.1977 83.0627 39.4157C83.3687 38.6337 83.8617 38.2427 84.5417 38.2427C85.3237 38.2427 86.0207 38.2937 86.6327 38.3957C86.9727 38.4297 87.3467 38.4637 87.7547 38.4977C88.1627 38.5317 88.5537 38.5487 88.9277 38.5487C90.1857 38.5487 91.5287 38.2937 92.9567 37.7837C94.4187 37.2737 95.7617 36.4747 96.9857 35.3867C98.2097 34.2647 99.2297 32.8537 100.046 31.1537C100.862 29.4197 101.27 27.3457 101.27 24.9317C101.27 22.4157 100.828 20.3077 99.9437 18.6077C99.0937 16.8737 98.0397 15.4967 96.7817 14.4767C95.5237 13.4227 94.1977 12.6747 92.8037 12.2327C91.4437 11.7567 90.2367 11.5187 89.1827 11.5187C88.1627 11.5187 87.3127 11.5867 86.6327 11.7227C85.9527 11.8587 85.3407 12.0287 84.7967 12.2327C84.2527 12.4027 83.7427 12.5557 83.2667 12.6917C82.7907 12.8277 82.2637 12.8957 81.6857 12.8957C81.2777 12.8957 80.9547 12.8787 80.7167 12.8447C80.5127 12.8107 80.3087 12.7767 80.1047 12.7427C79.9347 12.6747 79.7137 12.6237 79.4417 12.5897C79.2037 12.5217 78.8297 12.4877 78.3197 12.4877ZM87.2957 20.1377C88.0097 20.1377 88.6727 20.2737 89.2847 20.5457C89.8967 20.8177 90.4237 21.1917 90.8657 21.6677C91.3077 22.1437 91.6477 22.7047 91.8857 23.3507C92.1577 23.9627 92.2937 24.6087 92.2937 25.2887C92.2937 25.9347 92.1577 26.5467 91.8857 27.1247C91.6137 27.7027 91.2567 28.2127 90.8147 28.6547C90.3727 29.0627 89.8457 29.3857 89.2337 29.6237C88.6557 29.8617 88.0607 29.9807 87.4487 29.9807C86.8367 29.9807 86.2417 29.8617 85.6637 29.6237C85.1197 29.3517 84.6267 28.9947 84.1847 28.5527C83.7427 28.1107 83.3857 27.6007 83.1137 27.0227C82.8757 26.4107 82.7567 25.7647 82.7567 25.0847C82.7567 24.4047 82.8757 23.7757 83.1137 23.1977C83.3857 22.5857 83.7257 22.0587 84.1337 21.6167C84.5757 21.1407 85.0687 20.7837 85.6127 20.5457C86.1567 20.2737 86.7177 20.1377 87.2957 20.1377Z" fill="white"/>
<path d="M23.1719 59.5387C22.1519 59.5387 21.2849 59.8277 20.5709 60.4057C19.8909 60.9497 19.5509 61.6297 19.5509 62.4457C19.5509 63.2277 19.7719 64.0097 20.2139 64.7917C20.6899 65.5397 21.1829 66.2877 21.6929 67.0357C22.2369 67.7837 22.7299 68.5147 23.1719 69.2287C23.6479 69.9087 23.8859 70.5717 23.8859 71.2177C23.8859 71.8977 23.5969 72.6967 23.0189 73.6147C22.4409 74.4987 21.7949 75.4167 21.0809 76.3687C20.4009 77.2867 19.7719 78.2047 19.1939 79.1227C18.6159 80.0407 18.3269 80.8737 18.3269 81.6217C18.3269 82.4377 18.6159 83.1857 19.1939 83.8657C19.8059 84.5117 20.7579 84.8347 22.0499 84.8347C23.1719 84.8347 24.1239 84.5797 24.9059 84.0697C25.6879 83.5257 26.3679 82.9477 26.9459 82.3357C27.5579 81.7237 28.1019 81.1627 28.5779 80.6527C29.0879 80.1087 29.6319 79.8367 30.2099 79.8367C30.8559 79.8367 31.4169 80.1087 31.8929 80.6527C32.4029 81.1627 32.9469 81.7407 33.5249 82.3867C34.1369 82.9987 34.8509 83.5767 35.6669 84.1207C36.5169 84.6307 37.6049 84.8857 38.9309 84.8857C40.0869 84.8857 40.9369 84.5797 41.4809 83.9677C42.0589 83.3217 42.3479 82.5057 42.3479 81.5197C42.3479 80.8057 42.0589 80.0067 41.4809 79.1227C40.9369 78.2047 40.3249 77.2867 39.6449 76.3687C38.9649 75.4507 38.3359 74.5837 37.7579 73.7677C37.2139 72.9177 36.9419 72.2037 36.9419 71.6257C36.9419 70.7757 37.1459 69.9767 37.5539 69.2287C37.9959 68.4467 38.4549 67.6817 38.9309 66.9337C39.4409 66.1857 39.8999 65.4547 40.3079 64.7407C40.7499 64.0267 40.9709 63.2957 40.9709 62.5477C40.9709 61.4937 40.5969 60.7457 39.8489 60.3037C39.1349 59.8277 38.2849 59.5897 37.2989 59.5897C36.3809 59.5897 35.5989 59.7767 34.9529 60.1507C34.3069 60.4907 33.7459 60.8817 33.2699 61.3237C32.7939 61.7317 32.3349 62.1227 31.8929 62.4967C31.4509 62.8367 30.9749 63.0067 30.4649 63.0067C29.9209 63.0067 29.4279 62.8367 28.9859 62.4967C28.5779 62.1227 28.1189 61.7147 27.6089 61.2727C27.0989 60.8307 26.4869 60.4397 25.7729 60.0997C25.0929 59.7257 24.2259 59.5387 23.1719 59.5387Z" fill="white"/>
<path d="M58.4217 59.4877C56.7557 59.4877 55.5657 60.0317 54.8517 61.1197C54.1377 62.2077 53.7807 63.8567 53.7807 66.0667V89.9347C53.7807 90.6147 53.8487 91.2777 53.9847 91.9237C54.1547 92.6037 54.4097 93.1987 54.7497 93.7087C55.0897 94.2527 55.5487 94.6947 56.1267 95.0347C56.7047 95.3747 57.4017 95.5447 58.2177 95.5447C59.0337 95.5447 59.7307 95.3747 60.3087 95.0347C60.8867 94.6947 61.3457 94.2357 61.6857 93.6577C62.0597 93.0797 62.3317 92.4337 62.5017 91.7197C62.6717 91.0057 62.7567 90.2577 62.7567 89.4757C62.7567 88.2177 62.8927 87.1977 63.1647 86.4157C63.4707 85.6337 63.9637 85.2427 64.6437 85.2427C65.4257 85.2427 66.1227 85.2937 66.7347 85.3957C67.0747 85.4297 67.4487 85.4637 67.8567 85.4977C68.2647 85.5317 68.6557 85.5487 69.0297 85.5487C70.2877 85.5487 71.6307 85.2937 73.0587 84.7837C74.5207 84.2737 75.8637 83.4747 77.0877 82.3867C78.3117 81.2647 79.3317 79.8537 80.1477 78.1537C80.9637 76.4197 81.3717 74.3457 81.3717 71.9317C81.3717 69.4157 80.9297 67.3077 80.0457 65.6077C79.1957 63.8737 78.1417 62.4967 76.8837 61.4767C75.6257 60.4227 74.2997 59.6747 72.9057 59.2327C71.5457 58.7567 70.3387 58.5187 69.2847 58.5187C68.2647 58.5187 67.4147 58.5867 66.7347 58.7227C66.0547 58.8587 65.4427 59.0287 64.8987 59.2327C64.3547 59.4027 63.8447 59.5557 63.3687 59.6917C62.8927 59.8277 62.3657 59.8957 61.7877 59.8957C61.3797 59.8957 61.0567 59.8787 60.8187 59.8447C60.6147 59.8107 60.4107 59.7767 60.2067 59.7427C60.0367 59.6747 59.8157 59.6237 59.5437 59.5897C59.3057 59.5217 58.9317 59.4877 58.4217 59.4877ZM67.3977 67.1377C68.1117 67.1377 68.7747 67.2737 69.3867 67.5457C69.9987 67.8177 70.5257 68.1917 70.9677 68.6677C71.4097 69.1437 71.7497 69.7047 71.9877 70.3507C72.2597 70.9627 72.3957 71.6087 72.3957 72.2887C72.3957 72.9347 72.2597 73.5467 71.9877 74.1247C71.7157 74.7027 71.3587 75.2127 70.9167 75.6547C70.4747 76.0627 69.9477 76.3857 69.3357 76.6237C68.7577 76.8617 68.1627 76.9807 67.5507 76.9807C66.9387 76.9807 66.3437 76.8617 65.7657 76.6237C65.2217 76.3517 64.7287 75.9947 64.2867 75.5527C63.8447 75.1107 63.4877 74.6007 63.2157 74.0227C62.9777 73.4107 62.8587 72.7647 62.8587 72.0847C62.8587 71.4047 62.9777 70.7757 63.2157 70.1977C63.4877 69.5857 63.8277 69.0587 64.2357 68.6167C64.6777 68.1407 65.1707 67.7837 65.7147 67.5457C66.2587 67.2737 66.8197 67.1377 67.3977 67.1377Z" fill="white"/>
</svg>
