<svg width="187" height="36" viewBox="0 0 187 36" fill="none" xmlns="http://www.w3.org/2000/svg">
<path d="M35.4609 9.49496V26.3004C35.458 28.088 34.9327 29.8358 33.9494 31.3287C32.9661 32.8216 31.5679 33.9945 29.9267 34.7031C28.7963 34.0398 27.7144 33.2969 26.6892 32.4802C24.8239 31.0639 23.1442 29.4184 21.69 27.5825C23.7326 26.9064 25.6402 25.8761 27.3256 24.5387C32.002 21.0337 31.67 14.8539 31.6515 14.5864C31.6367 14.309 31.5252 14.0456 31.3366 13.8418C31.1479 13.6379 30.8939 13.5065 30.6185 13.4703C30.3444 13.4319 30.0656 13.4926 29.8323 13.6414C29.599 13.7902 29.4264 14.0173 29.3456 14.282C28.9619 15.0262 28.3687 15.6419 27.6392 16.0529C26.8552 16.5695 25.1396 16.7447 23.627 16.9015C22.3495 16.9631 21.0865 17.1989 19.873 17.6025C19.2007 17.8863 18.5779 18.2755 18.0282 18.7555C17.2559 18.1787 16.4454 17.6549 15.6024 17.1875C14.3686 16.6734 13.0359 16.4403 11.7008 16.5049C10.7686 16.5136 9.83896 16.4051 8.93375 16.1821C7.97767 15.8234 7.19099 15.119 6.72931 14.2082C6.6139 13.9586 6.41559 13.7567 6.1681 13.6368C5.92061 13.5168 5.63922 13.4864 5.3718 13.5505C5.10437 13.6146 4.86742 13.7694 4.70125 13.9886C4.53507 14.2077 4.44993 14.4776 4.4603 14.7524C4.4603 14.983 4.79235 20.4987 8.6386 24.2712C10.6653 26.2492 13.2818 27.5121 16.0913 27.8684C16.0906 29.6814 16.3136 31.4875 16.7554 33.2458C16.9514 33.992 17.2106 34.7203 17.5302 35.4225H9.53329C7.11768 35.4104 4.80446 34.4454 3.09634 32.7373C1.38823 31.0292 0.423254 28.716 0.411133 26.3004V9.49496C0.423254 7.07935 1.38823 4.76613 3.09634 3.05801C4.80446 1.3499 7.11768 0.384923 9.53329 0.372803H26.3387C28.7543 0.384923 31.0675 1.3499 32.7757 3.05801C34.4838 4.76613 35.4488 7.07935 35.4609 9.49496Z" fill="#130F26"/>
<path d="M66.5939 22.781C65.3408 22.781 64.2229 22.4984 63.2401 21.9333C62.2697 21.3682 61.508 20.5881 60.9552 19.5931C60.4024 18.5857 60.126 17.4248 60.126 16.1104C60.126 15.1767 60.2918 14.3107 60.6235 13.5122C60.9675 12.7014 61.4343 11.995 62.024 11.3931C62.6259 10.7911 63.3261 10.3243 64.1246 9.99261C64.9354 9.66092 65.8076 9.49508 66.7413 9.49508C67.6626 9.49508 68.5471 9.69163 69.3948 10.0847C70.2547 10.4656 70.9426 10.9815 71.4586 11.6326L69.7817 13.4937C69.3395 13.0269 68.8665 12.6645 68.3629 12.4065C67.8592 12.1486 67.3125 12.0196 66.7229 12.0196C65.9981 12.0196 65.3408 12.1916 64.7512 12.5355C64.1738 12.8795 63.7131 13.3648 63.3691 13.9913C63.0252 14.6055 62.8532 15.318 62.8532 16.1288C62.8532 16.9642 63.019 17.6951 63.3507 18.3216C63.6947 18.9359 64.1738 19.415 64.788 19.7589C65.4145 20.0906 66.1332 20.2565 66.944 20.2565C67.5459 20.2565 68.111 20.1336 68.6393 19.8879C69.1675 19.6422 69.622 19.3228 70.0029 18.9297L71.2928 21.012C70.9979 21.3437 70.5987 21.6446 70.095 21.9149C69.5913 22.1852 69.0324 22.4001 68.4181 22.5598C67.8162 22.7073 67.2081 22.781 66.5939 22.781Z" fill="#130F26"/>
<path d="M73.2917 22.5967V12.8672H75.724L75.7609 14.4704C76.0803 13.9421 76.498 13.5122 77.0139 13.1805C77.5422 12.8365 78.095 12.6645 78.6723 12.6645C78.8935 12.6645 79.0962 12.683 79.2804 12.7198C79.477 12.7444 79.6428 12.7812 79.778 12.8304L79.0962 15.5944C78.961 15.5207 78.7891 15.4593 78.5802 15.4102C78.3714 15.361 78.1625 15.3364 77.9537 15.3364C77.3517 15.3364 76.8419 15.5453 76.4243 15.963C76.0189 16.3684 75.8162 16.8843 75.8162 17.5108V22.5967H73.2917Z" fill="#130F26"/>
<path d="M82.664 26.8349L84.4698 22.652L80.0473 12.8672H82.9035L85.3727 18.6902C85.4833 18.9481 85.5939 19.2491 85.7044 19.5931C85.7536 19.458 85.7966 19.329 85.8334 19.2061C85.8825 19.071 85.9317 18.9297 85.9808 18.7823L88.0999 12.8672H90.993L86.9022 22.5967L85.2253 26.8349H82.664Z" fill="#130F26"/>
<path d="M92.3845 26.6506V12.8672H94.8169L94.8537 14.0466C95.1731 13.6534 95.6092 13.3279 96.162 13.0699C96.7149 12.8119 97.2984 12.683 97.9126 12.683C98.7603 12.683 99.5158 12.8979 100.179 13.3279C100.843 13.7579 101.365 14.3537 101.745 15.1153C102.126 15.877 102.317 16.743 102.317 17.7135C102.317 18.684 102.126 19.5501 101.745 20.3117C101.365 21.0734 100.843 21.6753 100.179 22.1176C99.5158 22.5476 98.7603 22.7625 97.9126 22.7625C97.3352 22.7625 96.7763 22.6458 96.2358 22.4124C95.6952 22.1667 95.2591 21.8596 94.9274 21.4911V26.6506H92.3845ZM97.3598 20.5881C98.1092 20.5881 98.7173 20.324 99.1841 19.7958C99.6509 19.2553 99.8843 18.5612 99.8843 17.7135C99.8843 16.8782 99.6509 16.1964 99.1841 15.6681C98.7173 15.1276 98.1092 14.8573 97.3598 14.8573C96.6104 14.8573 96.0023 15.1215 95.5355 15.6497C95.0687 16.1779 94.8353 16.8659 94.8353 17.7135C94.8353 18.5612 95.0687 19.2553 95.5355 19.7958C96.0023 20.324 96.6104 20.5881 97.3598 20.5881Z" fill="#130F26"/>
<path d="M105.292 22.5967V15.1337H103.449V12.8672H105.292V10.3796H107.798V12.8672H109.843V15.1337H107.798V22.5967H105.292Z" fill="#130F26"/>
<path d="M115.956 22.781C114.961 22.781 114.076 22.566 113.302 22.136C112.529 21.6938 111.92 21.0918 111.478 20.3302C111.036 19.5685 110.815 18.6963 110.815 17.7135C110.815 16.743 111.036 15.877 111.478 15.1153C111.92 14.3537 112.529 13.7579 113.302 13.3279C114.076 12.8857 114.961 12.6645 115.956 12.6645C116.926 12.6645 117.799 12.8857 118.573 13.3279C119.347 13.7579 119.955 14.3537 120.397 15.1153C120.839 15.877 121.06 16.743 121.06 17.7135C121.06 18.6963 120.839 19.5685 120.397 20.3302C119.955 21.0918 119.347 21.6938 118.573 22.136C117.799 22.566 116.926 22.781 115.956 22.781ZM115.956 20.5881C116.447 20.5881 116.89 20.4653 117.283 20.2196C117.676 19.9616 117.977 19.6177 118.186 19.1877C118.407 18.7577 118.517 18.2663 118.517 17.7135C118.517 17.1607 118.407 16.6693 118.186 16.2394C117.977 15.8094 117.676 15.4716 117.283 15.2259C116.89 14.9802 116.447 14.8573 115.956 14.8573C115.452 14.8573 115.004 14.9802 114.611 15.2259C114.218 15.4716 113.911 15.8094 113.689 16.2394C113.468 16.6693 113.358 17.1607 113.358 17.7135C113.358 18.2663 113.468 18.7577 113.689 19.1877C113.911 19.6177 114.218 19.9616 114.611 20.2196C115.004 20.4653 115.452 20.5881 115.956 20.5881Z" fill="#130F26"/>
<path d="M125.671 22.5967L121.71 9.69777H124.437L126.611 17.0133C126.697 17.2959 126.771 17.5968 126.832 17.9162C126.894 18.2356 126.955 18.5427 127.017 18.8376C127.103 18.4322 127.176 18.0944 127.238 17.8241C127.311 17.5415 127.391 17.2713 127.477 17.0133L129.559 11.6142H131.771L133.798 17.0133C133.921 17.3204 134.019 17.6153 134.093 17.8978C134.178 18.1681 134.258 18.4383 134.332 18.7086C134.357 18.4875 134.393 18.2541 134.443 18.0084C134.492 17.7627 134.578 17.4187 134.701 16.9764L136.838 9.69777H139.547L135.585 22.5967H133.613L130.555 15.2627L127.661 22.5967H125.671Z" fill="#130F26"/>
<path d="M141.097 22.5967V8.96069H143.585V14.1387C143.917 13.7087 144.353 13.3586 144.893 13.0883C145.446 12.8058 146.024 12.6645 146.625 12.6645C148.861 12.6645 149.979 13.9913 149.979 16.6448V22.5967H147.473V16.829C147.473 15.4409 146.89 14.7713 145.723 14.8205C145.121 14.8205 144.617 15.0048 144.212 15.3733C143.818 15.7418 143.622 16.1964 143.622 16.7369V22.5967H141.097Z" fill="#130F26"/>
<path d="M156.155 22.781C155.344 22.781 154.614 22.5598 153.962 22.1176C153.311 21.6753 152.789 21.0734 152.396 20.3117C152.015 19.5501 151.825 18.684 151.825 17.7135C151.825 16.7185 152.015 15.8463 152.396 15.0969C152.789 14.3352 153.318 13.7394 153.981 13.3095C154.657 12.8795 155.418 12.6645 156.266 12.6645C156.954 12.6645 157.556 12.8058 158.072 13.0883C158.588 13.3586 158.999 13.7149 159.306 14.1571V12.8672H161.812V22.5967H159.288V21.2884C158.944 21.7183 158.495 22.0746 157.943 22.3571C157.402 22.6397 156.806 22.781 156.155 22.781ZM156.837 20.5881C157.586 20.5881 158.195 20.324 158.661 19.7958C159.128 19.2675 159.362 18.5735 159.362 17.7135C159.362 16.8536 159.128 16.1595 158.661 15.6313C158.195 15.103 157.586 14.8389 156.837 14.8389C156.1 14.8389 155.498 15.103 155.031 15.6313C154.577 16.1595 154.349 16.8536 154.349 17.7135C154.349 18.5735 154.577 19.2675 155.031 19.7958C155.498 20.324 156.1 20.5881 156.837 20.5881Z" fill="#130F26"/>
<path d="M164.474 22.5967V8.96069H166.98V22.5967H164.474Z" fill="#130F26"/>
<path d="M174.064 22.781C173.02 22.781 172.105 22.566 171.319 22.136C170.533 21.7061 169.918 21.1164 169.476 20.367C169.046 19.6177 168.831 18.7577 168.831 17.7872C168.831 16.7799 169.04 15.8954 169.458 15.1337C169.888 14.3598 170.471 13.7517 171.208 13.3095C171.958 12.8672 172.818 12.6461 173.788 12.6461C174.66 12.6461 175.44 12.8611 176.128 13.291C176.829 13.7087 177.369 14.28 177.75 15.0048C178.143 15.7296 178.327 16.5588 178.303 17.4924L178.284 18.2848H171.282C171.417 18.985 171.749 19.5378 172.277 19.9432C172.818 20.3486 173.499 20.5513 174.322 20.5513C174.765 20.5513 175.164 20.4837 175.52 20.3486C175.889 20.2135 176.282 19.9739 176.7 19.6299L177.916 21.3252C177.387 21.792 176.779 22.1544 176.091 22.4124C175.416 22.6581 174.74 22.781 174.064 22.781ZM173.806 14.8205C172.418 14.8205 171.583 15.447 171.3 16.7H175.907V16.6263C175.87 16.0981 175.649 15.6681 175.244 15.3364C174.851 14.9925 174.372 14.8205 173.806 14.8205Z" fill="#130F26"/>
<path d="M180.255 22.5967V12.8672H182.687L182.724 14.4704C183.043 13.9421 183.461 13.5122 183.977 13.1805C184.505 12.8365 185.058 12.6645 185.635 12.6645C185.857 12.6645 186.059 12.683 186.244 12.7198C186.44 12.7444 186.606 12.7812 186.741 12.8304L186.059 15.5944C185.924 15.5207 185.752 15.4593 185.543 15.4102C185.335 15.361 185.126 15.3364 184.917 15.3364C184.315 15.3364 183.805 15.5453 183.387 15.963C182.982 16.3684 182.779 16.8843 182.779 17.5108V22.5967H180.255Z" fill="#130F26"/>
</svg>
