<svg width="114" height="113" viewBox="0 0 114 113" fill="none" xmlns="http://www.w3.org/2000/svg">
<path d="M0.910645 18.3994C0.910645 8.45829 8.96952 0.399414 18.9106 0.399414H95.2026C105.144 0.399414 113.203 8.45829 113.203 18.3994V94.6914C113.203 104.633 105.144 112.691 95.2026 112.691H18.9106C8.96952 112.691 0.910645 104.633 0.910645 94.6914V18.3994Z" fill="white"/>
<path fill-rule="evenodd" clip-rule="evenodd" d="M92.703 6.14941H21.41C17.498 6.14941 13.7463 7.70345 10.98 10.4697C8.21383 13.2359 6.65979 16.9877 6.65979 20.8997L6.65979 92.1926C6.65979 96.1046 8.21383 99.8564 10.98 102.623C13.7463 105.389 17.498 106.943 21.41 106.943H92.703C96.615 106.943 100.367 105.389 103.133 102.623C105.899 99.8564 107.453 96.1046 107.453 92.1926V20.8997C107.453 16.9877 105.899 13.2359 103.133 10.4697C100.367 7.70345 96.615 6.14941 92.703 6.14941V6.14941ZM55.3971 86.7104C54.1586 88.3217 52.5299 89.5908 50.6647 90.398C48.5986 91.3113 46.3597 91.7683 44.1009 91.7378C42.1179 91.7429 40.1496 91.3976 38.2868 90.7176C36.5652 90.0969 34.936 89.245 33.4438 88.1854V81.1299C34.9948 82.2449 36.6694 83.177 38.4343 83.9079C40.2828 84.6654 42.263 85.0498 44.2607 85.0387C45.5418 85.0721 46.8104 84.7803 47.9482 84.1906C48.4242 83.9609 48.8236 83.5985 49.0984 83.1471C49.3732 82.6957 49.5116 82.1744 49.497 81.6461C49.4975 81.2065 49.3846 80.7742 49.1693 80.391C48.954 80.0077 48.6435 79.6865 48.2678 79.4582C47.4077 78.8789 46.4839 78.4005 45.5144 78.0323L40.2166 75.9796C37.9924 75.3005 36.0725 73.8713 34.7836 71.9356C33.8194 70.2441 33.3231 68.3265 33.3455 66.3796C33.3081 64.4138 33.9122 62.4893 35.0663 60.8975C36.2328 59.3103 37.7799 58.0422 39.5652 57.2099C41.4503 56.3298 43.5078 55.8805 45.5882 55.8947C47.44 55.8711 49.2833 56.1493 51.0458 56.7182C52.5071 57.1814 53.9064 57.8212 55.2127 58.6235V65.679C53.9367 64.8961 52.615 64.1901 51.2547 63.5648C49.7522 62.8905 48.1199 62.5548 46.4732 62.5814C45.5722 62.5861 44.677 62.727 43.8181 62.9994C43.0111 63.235 42.2703 63.6559 41.6548 64.2286C41.3698 64.5071 41.1469 64.8427 41.0007 65.2134C40.8546 65.5841 40.7884 65.9816 40.8066 66.3796C40.7841 66.9098 40.9132 67.4354 41.1788 67.8948C41.4444 68.3541 41.8355 68.7283 42.3062 68.9732C43.4907 69.6486 44.7232 70.2361 45.9938 70.731L50.1731 72.5256C52.2216 73.2886 54.044 74.5571 55.4709 76.2131C56.5925 77.6522 57.1947 79.4283 57.1794 81.2528C57.2149 83.2205 56.5871 85.1429 55.3971 86.7104ZM54.2908 29.8482C51.2412 29.2267 48.4117 27.8056 46.0922 25.7304C44.932 24.64 44.0066 23.3243 43.3725 21.8638C42.7384 20.4033 42.4091 18.8288 42.4046 17.2367C42.4046 16.4086 42.7335 15.6145 43.319 15.029C43.9045 14.4435 44.6987 14.1146 45.5267 14.1146C46.3548 14.1146 47.1489 14.4435 47.7344 15.029C48.3199 15.6145 48.6489 16.4086 48.6489 17.2367C48.6489 17.4825 48.6489 17.7284 48.6489 17.9742C48.6489 17.2859 48.6489 18.2078 48.7472 18.5519C48.8455 18.8961 48.907 19.0805 48.993 19.3386L49.1774 19.7074C49.3126 19.9409 49.4478 20.1745 49.6076 20.408L49.8166 20.6661C50.0221 20.9064 50.2439 21.1323 50.4804 21.3422L50.8245 21.6495L51.0581 21.8339L51.3777 22.0182C51.6112 22.1657 51.8447 22.3132 52.0906 22.4485C52.3364 22.5837 52.5208 22.682 52.7421 22.7803H52.8404H52.9264H53.0371L53.1846 22.8418C54.3208 23.2826 55.4986 23.6079 56.7 23.8128L57.1917 23.8866L58.1013 23.9726C58.7897 23.9726 59.4657 23.9726 60.1541 23.9726C60.8424 23.9726 61.4693 23.9726 62.1208 23.8374L62.4526 23.776C62.7599 23.776 63.0549 23.6776 63.3622 23.6039C63.9891 23.4687 64.5914 23.3089 65.2183 23.1122L66.1525 22.768H66.2262H66.3C66.8436 22.5177 67.3693 22.2302 67.8734 21.9076C67.9805 21.8451 68.0831 21.7753 68.1807 21.6986L68.574 21.4282L68.4388 21.502L68.7461 21.2561C68.955 21.0595 69.1517 20.8628 69.3484 20.6538L69.6434 20.2974C69.888 19.9389 70.1097 19.5653 70.3072 19.1788L70.3809 18.9821C70.4758 18.7086 70.5538 18.4294 70.6145 18.1463C70.6145 18.048 70.6145 17.9619 70.6145 17.8636C70.6145 17.7652 70.6145 17.335 70.6145 17.0769C70.6145 16.2489 70.9434 15.4547 71.5289 14.8692C72.1144 14.2837 72.9085 13.9548 73.7366 13.9548C74.5646 13.9548 75.3588 14.2837 75.9443 14.8692C76.5298 15.4547 76.8587 16.2489 76.8587 17.0769C76.8551 18.8279 76.4576 20.5556 75.6959 22.1323C74.9342 23.7089 73.8277 25.094 72.4582 26.1852C67.5784 30.3767 60.4859 31.2126 54.2908 29.8482V29.8482ZM79.3417 88.3329C78.3931 89.2937 77.2766 90.0728 76.0475 90.6315C74.641 91.2769 73.1082 91.6003 71.5609 91.578C70.1226 91.5832 68.6962 91.3162 67.3571 90.7913C66.0622 90.2792 64.8773 89.524 63.8662 88.5665C62.851 87.5982 62.0401 86.4363 61.4816 85.1493C60.3346 82.3405 60.3346 79.194 61.4816 76.3852C62.0372 75.0966 62.8484 73.9341 63.8662 72.9681C64.8773 72.0106 66.0622 71.2554 67.3571 70.7433C68.6946 70.2125 70.122 69.9454 71.5609 69.9566C72.7029 69.934 73.8396 70.1172 74.9166 70.4974C75.8175 70.8329 76.6504 71.3284 77.375 71.9602V76.2869C76.8833 75.9181 76.3671 75.5617 75.8385 75.2052C75.2737 74.8455 74.6669 74.5565 74.0316 74.3448C73.2694 74.1004 72.4719 73.9841 71.6716 74.0006C70.4877 73.9839 69.3222 74.2944 68.3036 74.8979C67.2835 75.4886 66.4359 76.3362 65.8452 77.3563C65.2225 78.3762 64.8838 79.544 64.8645 80.7388C64.8451 81.9337 65.1457 83.1119 65.735 84.1514C66.3244 85.1909 67.1811 86.0539 68.2163 86.6508C69.2515 87.2478 70.4275 87.5569 71.6224 87.5463C72.3953 87.5756 73.1668 87.4589 73.8964 87.2021C74.3868 87.0289 74.8472 86.78 75.2608 86.4646V83.0351H72.2984V79.9007H79.3417V88.3329Z" fill="black"/>
<path d="M65.0589 65.7536H77.7073C81.7759 65.7536 81.7882 59.4355 77.7073 59.4355H65.0589C60.9903 59.4355 60.9903 65.7536 65.0589 65.7536Z" fill="#16C6E8"/>
</svg>
