<svg width="19" height="22" viewBox="0 0 19 22" fill="none" xmlns="http://www.w3.org/2000/svg">
<path d="M1.34338 0.71167L11.5264 10.8977L1.34438 21.0837C1.16332 21.0076 1.0088 20.8796 0.900267 20.7159C0.79173 20.5522 0.734014 20.3601 0.734377 20.1637V1.63167C0.734453 1.43549 0.792232 1.24367 0.900518 1.08008C1.0088 0.916497 1.16282 0.788376 1.34338 0.71167V0.71167ZM12.2334 11.6047L14.5354 13.9067L3.59838 20.2397L12.2334 11.6047V11.6047ZM15.4324 8.40667L18.2394 10.0327C18.3909 10.1206 18.5167 10.2467 18.6041 10.3986C18.6916 10.5504 18.7376 10.7225 18.7376 10.8977C18.7376 11.0729 18.6916 11.245 18.6041 11.3968C18.5167 11.5486 18.3909 11.6748 18.2394 11.7627L15.4314 13.3887L12.9404 10.8977L15.4324 8.40667ZM3.59838 1.55567L14.5364 7.88767L12.2334 10.1907L3.59838 1.55567V1.55567Z" fill="#407BFF"/>
</svg>
