<svg width="674" height="322" viewBox="0 0 674 322" fill="none" xmlns="http://www.w3.org/2000/svg">
<path d="M12.5762 53.3594C13.5658 49.0365 14.6725 44.6745 15.8965 40.2734C17.1465 35.8724 18.3574 31.5104 19.5293 27.1875C20.0241 25.3906 20.4538 23.763 20.8184 22.3047C21.209 20.8203 21.5345 19.4792 21.7949 18.2812C22.0553 17.0833 22.2507 16.0026 22.3809 15.0391C22.5111 14.0495 22.5762 13.138 22.5762 12.3047C22.5762 12.1484 22.5762 11.9792 22.5762 11.7969C22.5762 11.5885 22.5632 11.3411 22.5371 11.0547C22.2767 11.0547 21.6908 11.1979 20.7793 11.4844C19.8939 11.7708 18.8392 12.1484 17.6152 12.6172C16.4173 13.0859 15.1413 13.6198 13.7871 14.2188C12.459 14.7917 11.222 15.3776 10.0762 15.9766C9.16471 16.4453 8.39648 16.8359 7.77148 17.1484C7.17253 17.4609 6.65169 17.7083 6.20898 17.8906C5.76628 18.0469 5.36263 18.1641 4.99805 18.2422C4.63346 18.2943 4.25586 18.3203 3.86523 18.3203C3.05794 18.3203 2.35482 18.0078 1.75586 17.3828C1.18294 16.7578 0.896484 15.9505 0.896484 14.9609C0.896484 14.388 0.948568 13.8932 1.05273 13.4766C1.18294 13.0339 1.36523 12.6432 1.59961 12.3047C1.86003 11.9661 2.19857 11.6536 2.61523 11.3672C3.0319 11.0547 3.53971 10.7422 4.13867 10.4297C10.7272 6.99219 17.3939 4.47917 24.1387 2.89062C30.8835 1.27604 37.6543 0.46875 44.4512 0.46875C44.998 0.46875 45.6491 0.481771 46.4043 0.507812C47.1595 0.533854 47.9277 0.585938 48.709 0.664062C49.5163 0.716146 50.2975 0.807292 51.0527 0.9375C51.8079 1.04167 52.472 1.17188 53.0449 1.32812C53.6439 1.51042 54.1647 1.88802 54.6074 2.46094C55.0501 3.03385 55.2715 3.64583 55.2715 4.29688C55.2715 4.81771 55.2194 5.32552 55.1152 5.82031C55.0371 6.3151 54.8809 6.74479 54.6465 7.10938C54.4121 7.47396 54.0996 7.77344 53.709 8.00781C53.3444 8.21615 52.8887 8.32031 52.3418 8.32031C51.4043 8.21615 50.3236 8.08594 49.0996 7.92969C47.9017 7.77344 46.6908 7.69531 45.4668 7.69531C43.0189 7.69531 40.571 7.76042 38.123 7.89062C35.7012 7.99479 33.2142 8.33333 30.6621 8.90625C30.5319 8.95833 30.4408 9.10156 30.3887 9.33594C30.3626 9.54427 30.3366 9.81771 30.3105 10.1562C30.2324 11.5625 30.1152 12.7995 29.959 13.8672C29.8027 14.9349 29.5814 16.0026 29.2949 17.0703C29.0345 18.138 28.709 19.2969 28.3184 20.5469C27.9277 21.7708 27.472 23.2552 26.9512 25C26.4303 26.7188 25.8184 28.7891 25.1152 31.2109C24.4382 33.6068 23.6829 36.5104 22.8496 39.9219L20.9746 47.5C20.5319 49.2448 20.1803 50.8203 19.9199 52.2266C19.6855 53.6068 19.4772 54.974 19.2949 56.3281C19.1908 56.7708 18.7871 57.1875 18.084 57.5781C17.4069 57.9688 16.5996 58.1641 15.6621 58.1641C15.1152 58.1641 14.6204 58.0208 14.1777 57.7344C13.735 57.4219 13.3704 57.0312 13.084 56.5625C12.7975 56.0938 12.6022 55.5859 12.498 55.0391C12.3939 54.4661 12.4199 53.9062 12.5762 53.3594Z" fill="white"/>
<path d="M73.3574 61.875C71.7428 61.875 70.6361 61.5234 70.0371 60.8203C69.4382 60.1172 69.1387 59.1536 69.1387 57.9297C69.1387 57.2786 69.2038 56.5755 69.334 55.8203C69.4642 55.0651 69.6335 54.2839 69.8418 53.4766C70.2064 52.0964 70.61 50.7292 71.0527 49.375C71.5215 47.9948 71.9772 46.6146 72.4199 45.2344C72.8887 43.8281 73.3314 42.4349 73.748 41.0547C74.1908 39.6484 74.5814 38.2422 74.9199 36.8359C74.946 36.7057 74.959 36.5365 74.959 36.3281C74.959 35.9635 74.8678 35.6771 74.6855 35.4688C74.5033 35.2604 74.2298 35.1562 73.8652 35.1562C73.2923 35.1562 72.6673 35.2734 71.9902 35.5078C71.3392 35.7422 70.7923 36.0026 70.3496 36.2891C68.6048 37.4609 67.0684 38.6198 65.7402 39.7656C64.4382 40.9115 63.2402 42.1094 62.1465 43.3594C61.0527 44.6094 60.0111 45.9505 59.0215 47.3828C58.0579 48.7891 57.0423 50.3385 55.9746 52.0312C55.0632 53.724 54.3861 55.1693 53.9434 56.3672C53.5007 57.5391 53.084 58.4896 52.6934 59.2188C52.3288 59.9479 51.9121 60.4688 51.4434 60.7812C50.9746 61.1198 50.2715 61.2891 49.334 61.2891C48.2923 61.2891 47.5501 60.9896 47.1074 60.3906C46.6908 59.7917 46.4824 59.0104 46.4824 58.0469C46.4824 57.2917 46.5996 56.4453 46.834 55.5078L59.7246 3.86719C59.8027 3.55469 59.9329 3.21615 60.1152 2.85156C60.2975 2.48698 60.5449 2.14844 60.8574 1.83594C61.1699 1.52344 61.5345 1.26302 61.9512 1.05469C62.3939 0.846354 62.8887 0.742188 63.4355 0.742188C63.8522 0.742188 64.2949 0.768229 64.7637 0.820312C65.2324 0.846354 65.6491 0.924479 66.0137 1.05469C66.4043 1.15885 66.7168 1.34115 66.9512 1.60156C67.2116 1.86198 67.3418 2.20052 67.3418 2.61719C67.3418 2.72135 67.3158 2.94271 67.2637 3.28125C67.2116 3.59375 67.1335 3.95833 67.0293 4.375C65.623 10.026 64.1126 15.9115 62.498 22.0312C60.9095 28.151 59.2949 34.3359 57.6543 40.5859C59.2428 38.6328 60.8965 36.849 62.6152 35.2344C64.334 33.5938 66.0918 32.1875 67.8887 31.0156C69.7116 29.8438 71.5866 28.9323 73.5137 28.2812C75.4668 27.6042 77.485 27.2656 79.5684 27.2656C80.8965 27.2656 81.9251 27.6953 82.6543 28.5547C83.3835 29.388 83.748 30.4557 83.748 31.7578C83.748 32.3568 83.6699 32.9427 83.5137 33.5156C83.2012 34.7135 82.8496 35.8984 82.459 37.0703C82.0684 38.2161 81.6647 39.375 81.248 40.5469C80.8314 41.7188 80.4147 42.9167 79.998 44.1406C79.5814 45.3385 79.2168 46.5755 78.9043 47.8516C78.4876 49.4922 78.2012 51.0547 78.0449 52.5391C77.8887 53.9974 77.7845 55.1693 77.7324 56.0547C77.6803 56.8099 77.5632 57.5391 77.3809 58.2422C77.1986 58.9453 76.9251 59.5573 76.5605 60.0781C76.222 60.625 75.7793 61.0547 75.2324 61.3672C74.7116 61.7057 74.0866 61.875 73.3574 61.875Z" fill="white"/>
<path d="M90.3105 52.5C90.7012 50.9896 91.1699 49.2318 91.7168 47.2266C92.2637 45.2214 92.8366 43.099 93.4355 40.8594C94.0605 38.6198 94.6855 36.3281 95.3105 33.9844C95.9355 31.6406 96.5215 29.362 97.0684 27.1484C97.0944 27.0443 97.1855 26.875 97.3418 26.6406C97.498 26.3802 97.7194 26.1328 98.0059 25.8984C98.2923 25.638 98.6569 25.4167 99.0996 25.2344C99.5423 25.0521 100.063 24.9609 100.662 24.9609C101.105 24.9609 101.535 25.013 101.951 25.1172C102.368 25.1953 102.732 25.3255 103.045 25.5078C103.383 25.6901 103.644 25.9375 103.826 26.25C104.035 26.5365 104.139 26.875 104.139 27.2656C104.139 27.3438 104.139 27.4349 104.139 27.5391C104.139 27.6172 104.126 27.6953 104.1 27.7734L103.006 31.9141C101.782 36.5495 100.532 41.1979 99.2559 45.8594C98.0059 50.5208 96.7819 55.1953 95.584 59.8828C95.5319 60.0391 95.4538 60.2344 95.3496 60.4688C95.2454 60.7031 95.1022 60.9375 94.9199 61.1719C94.7376 61.4062 94.5163 61.6016 94.2559 61.7578C93.9954 61.9141 93.6829 61.9922 93.3184 61.9922C92.6413 61.9922 92.0423 61.849 91.5215 61.5625C91.0007 61.3021 90.5579 60.9635 90.1934 60.5469C89.8288 60.1302 89.5553 59.6745 89.373 59.1797C89.1908 58.6849 89.0996 58.2161 89.0996 57.7734C89.0996 57.6432 89.0996 57.526 89.0996 57.4219C89.0996 57.3177 89.1257 57.2005 89.1777 57.0703L90.3105 52.5ZM100.506 12.0703C100.636 11.5234 100.87 10.8594 101.209 10.0781C101.548 9.29688 102.146 8.59375 103.006 7.96875C103.423 7.73438 103.93 7.52604 104.529 7.34375C105.128 7.13542 105.558 7.03125 105.818 7.03125C106.079 7.03125 106.339 7.1224 106.6 7.30469C106.886 7.48698 107.133 7.68229 107.342 7.89062C107.602 8.15104 107.85 8.4375 108.084 8.75C108.735 8.80208 109.152 9.03646 109.334 9.45312C109.542 9.86979 109.646 10.3646 109.646 10.9375C109.646 11.3542 109.607 11.7318 109.529 12.0703C109.451 12.4089 109.386 12.6823 109.334 12.8906C109.178 13.4375 108.878 13.9453 108.436 14.4141C107.993 14.8568 107.485 15.2474 106.912 15.5859C106.339 15.8984 105.74 16.1458 105.115 16.3281C104.49 16.5104 103.943 16.6016 103.475 16.6016C102.876 16.6016 102.407 16.4974 102.068 16.2891C101.756 16.0807 101.352 15.638 100.857 14.9609C100.571 14.5703 100.402 14.2708 100.35 14.0625C100.324 13.8281 100.311 13.6328 100.311 13.4766C100.311 13.1901 100.324 12.9427 100.35 12.7344C100.402 12.5 100.454 12.2786 100.506 12.0703Z" fill="white"/>
<path d="M111.561 52.7344C111.769 52.7344 111.951 52.7604 112.107 52.8125C112.29 52.8646 112.485 52.9297 112.693 53.0078C112.902 53.0599 113.136 53.112 113.396 53.1641C113.657 53.2161 113.995 53.2422 114.412 53.2422C115.636 53.2422 116.99 53.112 118.475 52.8516C119.985 52.5911 121.404 52.2526 122.732 51.8359C124.061 51.4193 125.193 50.9505 126.131 50.4297C127.094 49.8828 127.641 49.3229 127.771 48.75C127.85 48.4375 127.889 48.1641 127.889 47.9297C127.889 47.487 127.667 47.0703 127.225 46.6797C126.808 46.263 126.274 45.8724 125.623 45.5078C124.972 45.1432 124.269 44.8047 123.514 44.4922C122.758 44.1797 122.055 43.8932 121.404 43.6328L120.076 43.0859C119.399 42.8255 118.735 42.513 118.084 42.1484C117.433 41.7578 116.821 41.3151 116.248 40.8203C115.701 40.3255 115.206 39.7526 114.764 39.1016C114.347 38.4245 114.035 37.6562 113.826 36.7969C113.722 36.4323 113.631 36.0677 113.553 35.7031C113.501 35.3385 113.475 34.9479 113.475 34.5312C113.475 33.8542 113.696 33.0859 114.139 32.2266C114.607 31.3411 115.219 30.4688 115.975 29.6094C116.756 28.75 117.628 27.9297 118.592 27.1484C119.581 26.3672 120.61 25.7161 121.678 25.1953C122.459 24.6484 123.214 24.1536 123.943 23.7109C124.673 23.2682 125.402 22.8906 126.131 22.5781C126.886 22.2656 127.641 22.0182 128.396 21.8359C129.178 21.6536 129.998 21.5625 130.857 21.5625C131.639 21.5625 132.485 21.6016 133.396 21.6797C134.308 21.7578 135.141 21.9401 135.896 22.2266C136.652 22.513 137.277 22.9427 137.771 23.5156C138.292 24.0625 138.553 24.8047 138.553 25.7422C138.553 26.0286 138.514 26.4062 138.436 26.875C138.357 27.3438 138.227 27.8125 138.045 28.2812C137.863 28.75 137.641 29.1536 137.381 29.4922C137.12 29.8307 136.808 30 136.443 30C135.844 30 135.35 29.8828 134.959 29.6484C134.568 29.4141 134.217 29.1667 133.904 28.9062C133.592 28.6198 133.266 28.3594 132.928 28.125C132.589 27.8906 132.173 27.7734 131.678 27.7734C131.079 27.7734 130.376 27.8906 129.568 28.125C128.787 28.3333 127.98 28.6328 127.146 29.0234C126.313 29.388 125.493 29.8177 124.686 30.3125C123.904 30.8073 123.188 31.3151 122.537 31.8359C121.912 32.3568 121.404 32.8776 121.014 33.3984C120.623 33.8932 120.428 34.349 120.428 34.7656C120.428 35.2083 120.571 35.5729 120.857 35.8594C121.144 36.1458 121.508 36.3932 121.951 36.6016C122.524 36.9141 123.175 37.2266 123.904 37.5391C124.66 37.8516 125.415 38.1641 126.17 38.4766C126.925 38.7891 127.654 39.1016 128.357 39.4141C129.087 39.7266 129.712 40.013 130.232 40.2734C130.936 40.638 131.561 41.0026 132.107 41.3672C132.68 41.7057 133.162 42.0833 133.553 42.5C133.943 42.9167 134.243 43.3854 134.451 43.9062C134.66 44.4271 134.764 45.0391 134.764 45.7422C134.764 46.0807 134.738 46.4193 134.686 46.7578C134.633 47.0964 134.555 47.487 134.451 47.9297C134.373 48.3203 134.23 48.776 134.021 49.2969C133.839 49.8177 133.631 50.3385 133.396 50.8594C133.188 51.3542 132.967 51.8099 132.732 52.2266C132.498 52.6172 132.303 52.8776 132.146 53.0078C131.131 53.9453 129.933 54.8307 128.553 55.6641C127.173 56.4714 125.727 57.1875 124.217 57.8125C122.732 58.4115 121.235 58.8932 119.725 59.2578C118.24 59.6224 116.873 59.8047 115.623 59.8047C114.998 59.8047 114.308 59.6875 113.553 59.4531C112.798 59.1927 112.094 58.8672 111.443 58.4766C110.818 58.0599 110.285 57.5911 109.842 57.0703C109.425 56.5495 109.217 56.0286 109.217 55.5078C109.217 55.2474 109.295 54.9609 109.451 54.6484C109.607 54.3099 109.803 54.0104 110.037 53.75C110.271 53.4635 110.519 53.2292 110.779 53.0469C111.066 52.8385 111.326 52.7344 111.561 52.7344Z" fill="white"/>
<path d="M182.732 52.5C183.123 50.9896 183.592 49.2318 184.139 47.2266C184.686 45.2214 185.258 43.099 185.857 40.8594C186.482 38.6198 187.107 36.3281 187.732 33.9844C188.357 31.6406 188.943 29.362 189.49 27.1484C189.516 27.0443 189.607 26.875 189.764 26.6406C189.92 26.3802 190.141 26.1328 190.428 25.8984C190.714 25.638 191.079 25.4167 191.521 25.2344C191.964 25.0521 192.485 24.9609 193.084 24.9609C193.527 24.9609 193.956 25.013 194.373 25.1172C194.79 25.1953 195.154 25.3255 195.467 25.5078C195.805 25.6901 196.066 25.9375 196.248 26.25C196.456 26.5365 196.561 26.875 196.561 27.2656C196.561 27.3438 196.561 27.4349 196.561 27.5391C196.561 27.6172 196.548 27.6953 196.521 27.7734L195.428 31.9141C194.204 36.5495 192.954 41.1979 191.678 45.8594C190.428 50.5208 189.204 55.1953 188.006 59.8828C187.954 60.0391 187.876 60.2344 187.771 60.4688C187.667 60.7031 187.524 60.9375 187.342 61.1719C187.16 61.4062 186.938 61.6016 186.678 61.7578C186.417 61.9141 186.105 61.9922 185.74 61.9922C185.063 61.9922 184.464 61.849 183.943 61.5625C183.423 61.3021 182.98 60.9635 182.615 60.5469C182.251 60.1302 181.977 59.6745 181.795 59.1797C181.613 58.6849 181.521 58.2161 181.521 57.7734C181.521 57.6432 181.521 57.526 181.521 57.4219C181.521 57.3177 181.548 57.2005 181.6 57.0703L182.732 52.5ZM192.928 12.0703C193.058 11.5234 193.292 10.8594 193.631 10.0781C193.969 9.29688 194.568 8.59375 195.428 7.96875C195.844 7.73438 196.352 7.52604 196.951 7.34375C197.55 7.13542 197.98 7.03125 198.24 7.03125C198.501 7.03125 198.761 7.1224 199.021 7.30469C199.308 7.48698 199.555 7.68229 199.764 7.89062C200.024 8.15104 200.271 8.4375 200.506 8.75C201.157 8.80208 201.574 9.03646 201.756 9.45312C201.964 9.86979 202.068 10.3646 202.068 10.9375C202.068 11.3542 202.029 11.7318 201.951 12.0703C201.873 12.4089 201.808 12.6823 201.756 12.8906C201.6 13.4375 201.3 13.9453 200.857 14.4141C200.415 14.8568 199.907 15.2474 199.334 15.5859C198.761 15.8984 198.162 16.1458 197.537 16.3281C196.912 16.5104 196.365 16.6016 195.896 16.6016C195.298 16.6016 194.829 16.4974 194.49 16.2891C194.178 16.0807 193.774 15.638 193.279 14.9609C192.993 14.5703 192.824 14.2708 192.771 14.0625C192.745 13.8281 192.732 13.6328 192.732 13.4766C192.732 13.1901 192.745 12.9427 192.771 12.7344C192.824 12.5 192.876 12.2786 192.928 12.0703Z" fill="white"/>
<path d="M203.982 52.7344C204.191 52.7344 204.373 52.7604 204.529 52.8125C204.712 52.8646 204.907 52.9297 205.115 53.0078C205.324 53.0599 205.558 53.112 205.818 53.1641C206.079 53.2161 206.417 53.2422 206.834 53.2422C208.058 53.2422 209.412 53.112 210.896 52.8516C212.407 52.5911 213.826 52.2526 215.154 51.8359C216.482 51.4193 217.615 50.9505 218.553 50.4297C219.516 49.8828 220.063 49.3229 220.193 48.75C220.271 48.4375 220.311 48.1641 220.311 47.9297C220.311 47.487 220.089 47.0703 219.646 46.6797C219.23 46.263 218.696 45.8724 218.045 45.5078C217.394 45.1432 216.691 44.8047 215.936 44.4922C215.18 44.1797 214.477 43.8932 213.826 43.6328L212.498 43.0859C211.821 42.8255 211.157 42.513 210.506 42.1484C209.855 41.7578 209.243 41.3151 208.67 40.8203C208.123 40.3255 207.628 39.7526 207.186 39.1016C206.769 38.4245 206.456 37.6562 206.248 36.7969C206.144 36.4323 206.053 36.0677 205.975 35.7031C205.923 35.3385 205.896 34.9479 205.896 34.5312C205.896 33.8542 206.118 33.0859 206.561 32.2266C207.029 31.3411 207.641 30.4688 208.396 29.6094C209.178 28.75 210.05 27.9297 211.014 27.1484C212.003 26.3672 213.032 25.7161 214.1 25.1953C214.881 24.6484 215.636 24.1536 216.365 23.7109C217.094 23.2682 217.824 22.8906 218.553 22.5781C219.308 22.2656 220.063 22.0182 220.818 21.8359C221.6 21.6536 222.42 21.5625 223.279 21.5625C224.061 21.5625 224.907 21.6016 225.818 21.6797C226.73 21.7578 227.563 21.9401 228.318 22.2266C229.074 22.513 229.699 22.9427 230.193 23.5156C230.714 24.0625 230.975 24.8047 230.975 25.7422C230.975 26.0286 230.936 26.4062 230.857 26.875C230.779 27.3438 230.649 27.8125 230.467 28.2812C230.285 28.75 230.063 29.1536 229.803 29.4922C229.542 29.8307 229.23 30 228.865 30C228.266 30 227.771 29.8828 227.381 29.6484C226.99 29.4141 226.639 29.1667 226.326 28.9062C226.014 28.6198 225.688 28.3594 225.35 28.125C225.011 27.8906 224.594 27.7734 224.1 27.7734C223.501 27.7734 222.798 27.8906 221.99 28.125C221.209 28.3333 220.402 28.6328 219.568 29.0234C218.735 29.388 217.915 29.8177 217.107 30.3125C216.326 30.8073 215.61 31.3151 214.959 31.8359C214.334 32.3568 213.826 32.8776 213.436 33.3984C213.045 33.8932 212.85 34.349 212.85 34.7656C212.85 35.2083 212.993 35.5729 213.279 35.8594C213.566 36.1458 213.93 36.3932 214.373 36.6016C214.946 36.9141 215.597 37.2266 216.326 37.5391C217.081 37.8516 217.837 38.1641 218.592 38.4766C219.347 38.7891 220.076 39.1016 220.779 39.4141C221.508 39.7266 222.133 40.013 222.654 40.2734C223.357 40.638 223.982 41.0026 224.529 41.3672C225.102 41.7057 225.584 42.0833 225.975 42.5C226.365 42.9167 226.665 43.3854 226.873 43.9062C227.081 44.4271 227.186 45.0391 227.186 45.7422C227.186 46.0807 227.16 46.4193 227.107 46.7578C227.055 47.0964 226.977 47.487 226.873 47.9297C226.795 48.3203 226.652 48.776 226.443 49.2969C226.261 49.8177 226.053 50.3385 225.818 50.8594C225.61 51.3542 225.389 51.8099 225.154 52.2266C224.92 52.6172 224.725 52.8776 224.568 53.0078C223.553 53.9453 222.355 54.8307 220.975 55.6641C219.594 56.4714 218.149 57.1875 216.639 57.8125C215.154 58.4115 213.657 58.8932 212.146 59.2578C210.662 59.6224 209.295 59.8047 208.045 59.8047C207.42 59.8047 206.73 59.6875 205.975 59.4531C205.219 59.1927 204.516 58.8672 203.865 58.4766C203.24 58.0599 202.706 57.5911 202.264 57.0703C201.847 56.5495 201.639 56.0286 201.639 55.5078C201.639 55.2474 201.717 54.9609 201.873 54.6484C202.029 54.3099 202.225 54.0104 202.459 53.75C202.693 53.4635 202.941 53.2292 203.201 53.0469C203.488 52.8385 203.748 52.7344 203.982 52.7344Z" fill="white"/>
<path d="M275.271 57.0703C276.053 54.0234 276.808 51.1849 277.537 48.5547C278.266 45.9245 278.969 43.4115 279.646 41.0156C280.35 38.5938 281.027 36.25 281.678 33.9844C282.329 31.7188 282.954 29.4141 283.553 27.0703C283.787 26.1589 283.917 25.2865 283.943 24.4531C283.995 23.5938 284.126 22.7083 284.334 21.7969C284.438 21.4844 284.62 21.2109 284.881 20.9766C285.167 20.7161 285.48 20.4948 285.818 20.3125C286.157 20.1302 286.508 19.987 286.873 19.8828C287.264 19.7786 287.628 19.7266 287.967 19.7266C288.696 19.7266 289.295 19.8177 289.764 20C290.258 20.1562 290.649 20.3776 290.936 20.6641C291.248 20.9505 291.456 21.3021 291.561 21.7188C291.691 22.1094 291.756 22.5521 291.756 23.0469C291.756 23.9323 291.613 24.8307 291.326 25.7422C291.04 26.6276 290.688 27.6042 290.271 28.6719C291.495 27.7083 292.745 26.7969 294.021 25.9375C295.324 25.0781 296.652 24.3229 298.006 23.6719C299.386 23.0208 300.792 22.5 302.225 22.1094C303.657 21.7188 305.141 21.5234 306.678 21.5234C307.381 21.5234 308.084 21.6406 308.787 21.875C309.49 22.0833 310.115 22.4219 310.662 22.8906C311.235 23.3594 311.704 23.9714 312.068 24.7266C312.459 25.4818 312.68 26.4062 312.732 27.5C313.852 26.7448 315.011 25.9896 316.209 25.2344C317.407 24.4531 318.618 23.763 319.842 23.1641C321.092 22.5391 322.329 22.0443 323.553 21.6797C324.803 21.2891 326.014 21.0938 327.186 21.0938C328.93 21.0938 330.363 21.3281 331.482 21.7969C332.628 22.2396 333.527 22.8516 334.178 23.6328C334.855 24.388 335.324 25.2734 335.584 26.2891C335.87 27.3047 336.014 28.3854 336.014 29.5312C336.014 30.7812 335.896 32.0703 335.662 33.3984C335.428 34.7266 335.167 35.9896 334.881 37.1875C334.126 40.2083 333.279 43.0729 332.342 45.7812C331.404 48.4635 330.389 51.1849 329.295 53.9453C329.035 54.5964 328.761 55.2865 328.475 56.0156C328.188 56.7448 327.85 57.4219 327.459 58.0469C327.094 58.6458 326.652 59.1536 326.131 59.5703C325.636 59.9609 325.05 60.1562 324.373 60.1562C322.837 60.1562 321.782 59.8958 321.209 59.375C320.636 58.8542 320.35 58.112 320.35 57.1484C320.35 56.888 320.363 56.5885 320.389 56.25C320.415 55.9115 320.48 55.5859 320.584 55.2734C320.688 54.8828 320.923 54.3229 321.287 53.5938C321.652 52.8385 322.042 52.0312 322.459 51.1719C322.902 50.3125 323.331 49.4531 323.748 48.5938C324.165 47.7083 324.477 46.9401 324.686 46.2891C325.024 45.1693 325.415 43.8802 325.857 42.4219C326.326 40.9375 326.769 39.4531 327.186 37.9688C327.602 36.4583 327.941 35.0391 328.201 33.7109C328.488 32.3568 328.631 31.263 328.631 30.4297C328.631 30.0391 328.592 29.6484 328.514 29.2578C328.436 28.8672 328.292 28.5286 328.084 28.2422C327.902 27.9557 327.628 27.7214 327.264 27.5391C326.925 27.3568 326.482 27.2656 325.936 27.2656C325.154 27.2656 324.217 27.487 323.123 27.9297C322.055 28.3724 320.936 28.9583 319.764 29.6875C318.618 30.3906 317.498 31.1979 316.404 32.1094C315.311 32.9948 314.373 33.8802 313.592 34.7656C313.045 35.3906 312.524 35.8984 312.029 36.2891C311.535 36.6797 311.04 36.9792 310.545 37.1875C310.493 37.2917 310.363 37.6432 310.154 38.2422C309.946 38.8151 309.699 39.5182 309.412 40.3516C309.126 41.1589 308.826 42.0443 308.514 43.0078C308.201 43.9453 307.902 44.8307 307.615 45.6641C307.355 46.4714 307.133 47.1615 306.951 47.7344C306.769 48.2812 306.678 48.5807 306.678 48.6328C306.495 49.362 306.339 50.1172 306.209 50.8984C306.079 51.6536 305.962 52.3828 305.857 53.0859C305.753 53.7891 305.649 54.5443 305.545 55.3516C305.467 56.1328 305.285 56.875 304.998 57.5781C304.738 58.2552 304.321 58.8151 303.748 59.2578C303.201 59.7005 302.42 59.9219 301.404 59.9219C300.883 59.9219 300.402 59.7917 299.959 59.5312C299.542 59.2708 299.178 58.9453 298.865 58.5547C298.553 58.138 298.305 57.6823 298.123 57.1875C297.941 56.6667 297.837 56.1458 297.811 55.625C298.41 53.2812 298.995 51.1719 299.568 49.2969C300.141 47.4219 300.714 45.625 301.287 43.9062C301.86 42.1875 302.407 40.4688 302.928 38.75C303.475 37.0052 304.008 35.0911 304.529 33.0078C304.66 32.513 304.764 32.0312 304.842 31.5625C304.92 31.0677 304.959 30.638 304.959 30.2734C304.959 29.6484 304.829 29.1406 304.568 28.75C304.308 28.3333 303.852 28.125 303.201 28.125C302.133 28.125 301.066 28.3464 299.998 28.7891C298.956 29.2057 297.824 29.8698 296.6 30.7812C295.376 31.6927 294.008 32.8516 292.498 34.2578C291.014 35.6641 289.295 37.3438 287.342 39.2969C287.133 39.6875 286.86 40.4167 286.521 41.4844C286.183 42.5521 285.831 43.6849 285.467 44.8828C285.128 46.0807 284.816 47.2005 284.529 48.2422C284.243 49.2578 284.061 49.9349 283.982 50.2734C283.696 51.3672 283.501 52.2917 283.396 53.0469C283.292 53.776 283.201 54.4401 283.123 55.0391C283.071 55.3516 282.993 55.8724 282.889 56.6016C282.785 57.3047 282.589 58.0208 282.303 58.75C282.042 59.4792 281.665 60.1172 281.17 60.6641C280.675 61.237 280.024 61.5234 279.217 61.5234C278.019 61.5234 277.029 61.1979 276.248 60.5469C275.493 59.8958 275.115 59.0755 275.115 58.0859C275.115 57.9036 275.128 57.7344 275.154 57.5781C275.18 57.4219 275.219 57.2526 275.271 57.0703Z" fill="white"/>
<path d="M343.436 44.5703C343.436 43.4505 343.735 42.5 344.334 41.7188C344.933 40.9375 345.727 40.4167 346.717 40.1562C347.003 39.5833 347.446 38.8151 348.045 37.8516C348.644 36.862 349.386 35.7943 350.271 34.6484C351.157 33.5026 352.16 32.3568 353.279 31.2109C354.425 30.0391 355.675 28.9844 357.029 28.0469C358.41 27.0833 359.881 26.3021 361.443 25.7031C363.032 25.1042 364.712 24.8047 366.482 24.8047C367.993 24.8047 369.308 24.987 370.428 25.3516C371.548 25.7161 372.472 26.224 373.201 26.875C373.93 27.526 374.477 28.3073 374.842 29.2188C375.206 30.1042 375.389 31.0677 375.389 32.1094C375.389 32.9948 375.271 33.8411 375.037 34.6484C374.673 36.1068 373.995 37.3828 373.006 38.4766C372.016 39.5703 370.844 40.5339 369.49 41.3672C368.162 42.1745 366.704 42.8516 365.115 43.3984C363.553 43.9453 361.977 44.401 360.389 44.7656C358.826 45.1302 357.316 45.4167 355.857 45.625C354.399 45.8073 353.136 45.9505 352.068 46.0547C351.834 46.5234 351.626 47.1224 351.443 47.8516C351.287 48.5547 351.209 49.2448 351.209 49.9219C351.209 51.4323 351.808 52.6042 353.006 53.4375C354.204 54.2708 355.857 54.6875 357.967 54.6875C359.191 54.6875 360.363 54.5573 361.482 54.2969C362.602 54.0104 363.657 53.6589 364.646 53.2422C365.662 52.7995 366.613 52.3307 367.498 51.8359C368.383 51.3151 369.191 50.8073 369.92 50.3125C370.857 49.6875 371.743 49.1667 372.576 48.75C373.436 48.3073 374.191 48.0859 374.842 48.0859C375.493 48.0859 375.91 48.2552 376.092 48.5938C376.274 48.9062 376.365 49.2448 376.365 49.6094C376.365 49.8177 376.352 50.026 376.326 50.2344C376.326 50.4167 376.313 50.5729 376.287 50.7031C376.157 51.3802 375.896 52.0573 375.506 52.7344C375.115 53.4115 374.62 53.9974 374.021 54.4922C371.313 56.6276 368.527 58.151 365.662 59.0625C362.824 59.974 359.79 60.4297 356.561 60.4297C355.936 60.4297 355.193 60.3906 354.334 60.3125C353.501 60.2344 352.628 60.0781 351.717 59.8438C350.805 59.6094 349.907 59.2708 349.021 58.8281C348.136 58.3854 347.342 57.7995 346.639 57.0703C345.962 56.3411 345.402 55.4427 344.959 54.375C344.542 53.3073 344.334 52.0182 344.334 50.5078C344.334 49.2839 344.503 47.9167 344.842 46.4062C344.503 46.3542 344.178 46.1849 343.865 45.8984C343.579 45.5859 343.436 45.1432 343.436 44.5703ZM367.889 33.75C367.941 33.6198 367.967 33.5026 367.967 33.3984C367.967 33.2943 367.967 33.1771 367.967 33.0469C367.967 32.3438 367.706 31.8229 367.186 31.4844C366.665 31.1198 366.04 30.9375 365.311 30.9375C364.165 30.9375 363.032 31.237 361.912 31.8359C360.818 32.4349 359.777 33.1901 358.787 34.1016C357.824 34.987 356.964 35.9505 356.209 36.9922C355.454 38.0078 354.868 38.9323 354.451 39.7656C356.326 39.6094 358.045 39.362 359.607 39.0234C361.17 38.6589 362.524 38.2161 363.67 37.6953C364.842 37.1484 365.779 36.5495 366.482 35.8984C367.212 35.2214 367.68 34.5052 367.889 33.75Z" fill="white"/>
<path fill-rule="evenodd" clip-rule="evenodd" d="M673.876 237.256L640.064 291.464L635.825 288.819L664.486 242.869C495.456 288.437 382.036 174.238 346.162 110.733L350.512 108.275C385.644 170.466 496.228 281.736 660.895 238.652L616.337 225.572L617.744 220.777L673.876 237.256Z" fill="white"/>
</svg>
