<svg width="377" height="236" viewBox="0 0 377 236" fill="none" xmlns="http://www.w3.org/2000/svg">
<path d="M12.6562 53.4424C13.6458 49.1195 14.7526 44.7575 15.9766 40.3564C17.2266 35.9554 18.4375 31.5934 19.6094 27.2705C20.1042 25.4736 20.5339 23.846 20.8984 22.3877C21.2891 20.9033 21.6146 19.5622 21.875 18.3643C22.1354 17.1663 22.3307 16.0856 22.4609 15.1221C22.5911 14.1325 22.6562 13.221 22.6562 12.3877C22.6562 12.2314 22.6562 12.0622 22.6562 11.8799C22.6562 11.6715 22.6432 11.4242 22.6172 11.1377C22.3568 11.1377 21.7708 11.2809 20.8594 11.5674C19.974 11.8538 18.9193 12.2314 17.6953 12.7002C16.4974 13.1689 15.2214 13.7028 13.8672 14.3018C12.5391 14.8747 11.3021 15.4606 10.1562 16.0596C9.24479 16.5283 8.47656 16.9189 7.85156 17.2314C7.2526 17.5439 6.73177 17.7913 6.28906 17.9736C5.84635 18.1299 5.44271 18.2471 5.07812 18.3252C4.71354 18.3773 4.33594 18.4033 3.94531 18.4033C3.13802 18.4033 2.4349 18.0908 1.83594 17.4658C1.26302 16.8408 0.976562 16.0335 0.976562 15.0439C0.976562 14.471 1.02865 13.9762 1.13281 13.5596C1.26302 13.1169 1.44531 12.7262 1.67969 12.3877C1.9401 12.0492 2.27865 11.7367 2.69531 11.4502C3.11198 11.1377 3.61979 10.8252 4.21875 10.5127C10.8073 7.0752 17.474 4.56217 24.2188 2.97363C30.9635 1.35905 37.7344 0.551758 44.5312 0.551758C45.0781 0.551758 45.7292 0.564779 46.4844 0.59082C47.2396 0.616862 48.0078 0.668945 48.7891 0.74707C49.5964 0.799154 50.3776 0.890299 51.1328 1.02051C51.888 1.12467 52.5521 1.25488 53.125 1.41113C53.724 1.59342 54.2448 1.97103 54.6875 2.54395C55.1302 3.11686 55.3516 3.72884 55.3516 4.37988C55.3516 4.90072 55.2995 5.40853 55.1953 5.90332C55.1172 6.39811 54.9609 6.8278 54.7266 7.19238C54.4922 7.55697 54.1797 7.85645 53.7891 8.09082C53.4245 8.29915 52.9688 8.40332 52.4219 8.40332C51.4844 8.29915 50.4036 8.16895 49.1797 8.0127C47.9818 7.85645 46.7708 7.77832 45.5469 7.77832C43.099 7.77832 40.651 7.84342 38.2031 7.97363C35.7812 8.0778 33.2943 8.41634 30.7422 8.98926C30.612 9.04134 30.5208 9.18457 30.4688 9.41895C30.4427 9.62728 30.4167 9.90072 30.3906 10.2393C30.3125 11.6455 30.1953 12.8825 30.0391 13.9502C29.8828 15.0179 29.6615 16.0856 29.375 17.1533C29.1146 18.221 28.7891 19.3799 28.3984 20.6299C28.0078 21.8538 27.5521 23.3382 27.0312 25.083C26.5104 26.8018 25.8984 28.8721 25.1953 31.2939C24.5182 33.6898 23.763 36.5934 22.9297 40.0049L21.0547 47.583C20.612 49.3278 20.2604 50.9033 20 52.3096C19.7656 53.6898 19.5573 55.057 19.375 56.4111C19.2708 56.8538 18.8672 57.2705 18.1641 57.6611C17.487 58.0518 16.6797 58.2471 15.7422 58.2471C15.1953 58.2471 14.7005 58.1038 14.2578 57.8174C13.8151 57.5049 13.4505 57.1143 13.1641 56.6455C12.8776 56.1768 12.6823 55.6689 12.5781 55.1221C12.474 54.5492 12.5 53.9893 12.6562 53.4424Z" fill="white"/>
<path d="M73.4375 61.958C71.8229 61.958 70.7161 61.6064 70.1172 60.9033C69.5182 60.2002 69.2188 59.2367 69.2188 58.0127C69.2188 57.3617 69.2839 56.6585 69.4141 55.9033C69.5443 55.1481 69.7135 54.3669 69.9219 53.5596C70.2865 52.1794 70.6901 50.8122 71.1328 49.458C71.6016 48.0778 72.0573 46.6976 72.5 45.3174C72.9688 43.9111 73.4115 42.5179 73.8281 41.1377C74.2708 39.7314 74.6615 38.3252 75 36.9189C75.026 36.7887 75.0391 36.6195 75.0391 36.4111C75.0391 36.0465 74.9479 35.7601 74.7656 35.5518C74.5833 35.3434 74.3099 35.2393 73.9453 35.2393C73.3724 35.2393 72.7474 35.3564 72.0703 35.5908C71.4193 35.8252 70.8724 36.0856 70.4297 36.3721C68.6849 37.5439 67.1484 38.7028 65.8203 39.8486C64.5182 40.9945 63.3203 42.1924 62.2266 43.4424C61.1328 44.6924 60.0911 46.0335 59.1016 47.4658C58.138 48.8721 57.1224 50.4215 56.0547 52.1143C55.1432 53.807 54.4661 55.2523 54.0234 56.4502C53.5807 57.6221 53.1641 58.5726 52.7734 59.3018C52.4089 60.0309 51.9922 60.5518 51.5234 60.8643C51.0547 61.2028 50.3516 61.3721 49.4141 61.3721C48.3724 61.3721 47.6302 61.0726 47.1875 60.4736C46.7708 59.8747 46.5625 59.0934 46.5625 58.1299C46.5625 57.3747 46.6797 56.5283 46.9141 55.5908L59.8047 3.9502C59.8828 3.6377 60.013 3.29915 60.1953 2.93457C60.3776 2.56999 60.625 2.23145 60.9375 1.91895C61.25 1.60645 61.6146 1.34603 62.0312 1.1377C62.474 0.929362 62.9688 0.825195 63.5156 0.825195C63.9323 0.825195 64.375 0.851237 64.8438 0.90332C65.3125 0.929362 65.7292 1.00749 66.0938 1.1377C66.4844 1.24186 66.7969 1.42415 67.0312 1.68457C67.2917 1.94499 67.4219 2.28353 67.4219 2.7002C67.4219 2.80436 67.3958 3.02572 67.3438 3.36426C67.2917 3.67676 67.2135 4.04134 67.1094 4.45801C65.7031 10.109 64.1927 15.9945 62.5781 22.1143C60.9896 28.234 59.375 34.4189 57.7344 40.6689C59.3229 38.7158 60.9766 36.932 62.6953 35.3174C64.4141 33.6768 66.1719 32.2705 67.9688 31.0986C69.7917 29.9268 71.6667 29.0153 73.5938 28.3643C75.5469 27.6872 77.5651 27.3486 79.6484 27.3486C80.9766 27.3486 82.0052 27.7783 82.7344 28.6377C83.4635 29.471 83.8281 30.5387 83.8281 31.8408C83.8281 32.4398 83.75 33.0257 83.5938 33.5986C83.2812 34.7965 82.9297 35.9814 82.5391 37.1533C82.1484 38.2992 81.7448 39.458 81.3281 40.6299C80.9115 41.8018 80.4948 42.9997 80.0781 44.2236C79.6615 45.4215 79.2969 46.6585 78.9844 47.9346C78.5677 49.5752 78.2812 51.1377 78.125 52.6221C77.9688 54.0804 77.8646 55.2523 77.8125 56.1377C77.7604 56.8929 77.6432 57.6221 77.4609 58.3252C77.2786 59.0283 77.0052 59.6403 76.6406 60.1611C76.3021 60.708 75.8594 61.1377 75.3125 61.4502C74.7917 61.7887 74.1667 61.958 73.4375 61.958Z" fill="white"/>
<path d="M90.3906 52.583C90.7812 51.0726 91.25 49.3148 91.7969 47.3096C92.3438 45.3044 92.9167 43.182 93.5156 40.9424C94.1406 38.7028 94.7656 36.4111 95.3906 34.0674C96.0156 31.7236 96.6016 29.445 97.1484 27.2314C97.1745 27.1273 97.2656 26.958 97.4219 26.7236C97.5781 26.4632 97.7995 26.2158 98.0859 25.9814C98.3724 25.721 98.737 25.4997 99.1797 25.3174C99.6224 25.1351 100.143 25.0439 100.742 25.0439C101.185 25.0439 101.615 25.096 102.031 25.2002C102.448 25.2783 102.812 25.4085 103.125 25.5908C103.464 25.7731 103.724 26.0205 103.906 26.333C104.115 26.6195 104.219 26.958 104.219 27.3486C104.219 27.4268 104.219 27.5179 104.219 27.6221C104.219 27.7002 104.206 27.7783 104.18 27.8564L103.086 31.9971C101.862 36.6325 100.612 41.2809 99.3359 45.9424C98.0859 50.6038 96.862 55.2783 95.6641 59.9658C95.612 60.1221 95.5339 60.3174 95.4297 60.5518C95.3255 60.7861 95.1823 61.0205 95 61.2549C94.8177 61.4893 94.5964 61.6846 94.3359 61.8408C94.0755 61.9971 93.763 62.0752 93.3984 62.0752C92.7214 62.0752 92.1224 61.932 91.6016 61.6455C91.0807 61.3851 90.638 61.0465 90.2734 60.6299C89.9089 60.2132 89.6354 59.7575 89.4531 59.2627C89.2708 58.7679 89.1797 58.2992 89.1797 57.8564C89.1797 57.7262 89.1797 57.609 89.1797 57.5049C89.1797 57.4007 89.2057 57.2835 89.2578 57.1533L90.3906 52.583ZM100.586 12.1533C100.716 11.6064 100.951 10.9424 101.289 10.1611C101.628 9.37988 102.227 8.67676 103.086 8.05176C103.503 7.81738 104.01 7.60905 104.609 7.42676C105.208 7.21842 105.638 7.11426 105.898 7.11426C106.159 7.11426 106.419 7.2054 106.68 7.3877C106.966 7.56999 107.214 7.7653 107.422 7.97363C107.682 8.23405 107.93 8.52051 108.164 8.83301C108.815 8.88509 109.232 9.11947 109.414 9.53613C109.622 9.9528 109.727 10.4476 109.727 11.0205C109.727 11.4372 109.688 11.8148 109.609 12.1533C109.531 12.4919 109.466 12.7653 109.414 12.9736C109.258 13.5205 108.958 14.0283 108.516 14.4971C108.073 14.9398 107.565 15.3304 106.992 15.6689C106.419 15.9814 105.82 16.2288 105.195 16.4111C104.57 16.5934 104.023 16.6846 103.555 16.6846C102.956 16.6846 102.487 16.5804 102.148 16.3721C101.836 16.1637 101.432 15.721 100.938 15.0439C100.651 14.6533 100.482 14.3538 100.43 14.1455C100.404 13.9111 100.391 13.7158 100.391 13.5596C100.391 13.2731 100.404 13.0257 100.43 12.8174C100.482 12.583 100.534 12.3617 100.586 12.1533Z" fill="white"/>
<path d="M111.641 52.8174C111.849 52.8174 112.031 52.8434 112.188 52.8955C112.37 52.9476 112.565 53.0127 112.773 53.0908C112.982 53.1429 113.216 53.195 113.477 53.2471C113.737 53.2992 114.076 53.3252 114.492 53.3252C115.716 53.3252 117.07 53.195 118.555 52.9346C120.065 52.6742 121.484 52.3356 122.812 51.9189C124.141 51.5023 125.273 51.0335 126.211 50.5127C127.174 49.9658 127.721 49.4059 127.852 48.833C127.93 48.5205 127.969 48.2471 127.969 48.0127C127.969 47.57 127.747 47.1533 127.305 46.7627C126.888 46.346 126.354 45.9554 125.703 45.5908C125.052 45.2262 124.349 44.8877 123.594 44.5752C122.839 44.2627 122.135 43.9762 121.484 43.7158L120.156 43.1689C119.479 42.9085 118.815 42.596 118.164 42.2314C117.513 41.8408 116.901 41.3981 116.328 40.9033C115.781 40.4085 115.286 39.8356 114.844 39.1846C114.427 38.5075 114.115 37.7393 113.906 36.8799C113.802 36.5153 113.711 36.1507 113.633 35.7861C113.581 35.4215 113.555 35.0309 113.555 34.6143C113.555 33.9372 113.776 33.1689 114.219 32.3096C114.688 31.4242 115.299 30.5518 116.055 29.6924C116.836 28.833 117.708 28.0127 118.672 27.2314C119.661 26.4502 120.69 25.7992 121.758 25.2783C122.539 24.7314 123.294 24.2367 124.023 23.7939C124.753 23.3512 125.482 22.9736 126.211 22.6611C126.966 22.3486 127.721 22.1012 128.477 21.9189C129.258 21.7367 130.078 21.6455 130.938 21.6455C131.719 21.6455 132.565 21.6846 133.477 21.7627C134.388 21.8408 135.221 22.0231 135.977 22.3096C136.732 22.596 137.357 23.0257 137.852 23.5986C138.372 24.1455 138.633 24.8877 138.633 25.8252C138.633 26.1117 138.594 26.4893 138.516 26.958C138.438 27.4268 138.307 27.8955 138.125 28.3643C137.943 28.833 137.721 29.2367 137.461 29.5752C137.201 29.9137 136.888 30.083 136.523 30.083C135.924 30.083 135.43 29.9658 135.039 29.7314C134.648 29.4971 134.297 29.2497 133.984 28.9893C133.672 28.7028 133.346 28.4424 133.008 28.208C132.669 27.9736 132.253 27.8564 131.758 27.8564C131.159 27.8564 130.456 27.9736 129.648 28.208C128.867 28.4163 128.06 28.7158 127.227 29.1064C126.393 29.471 125.573 29.9007 124.766 30.3955C123.984 30.8903 123.268 31.3981 122.617 31.9189C121.992 32.4398 121.484 32.9606 121.094 33.4814C120.703 33.9762 120.508 34.432 120.508 34.8486C120.508 35.2913 120.651 35.6559 120.938 35.9424C121.224 36.2288 121.589 36.4762 122.031 36.6846C122.604 36.9971 123.255 37.3096 123.984 37.6221C124.74 37.9346 125.495 38.2471 126.25 38.5596C127.005 38.8721 127.734 39.1846 128.438 39.4971C129.167 39.8096 129.792 40.096 130.312 40.3564C131.016 40.721 131.641 41.0856 132.188 41.4502C132.76 41.7887 133.242 42.1663 133.633 42.583C134.023 42.9997 134.323 43.4684 134.531 43.9893C134.74 44.5101 134.844 45.1221 134.844 45.8252C134.844 46.1637 134.818 46.5023 134.766 46.8408C134.714 47.1794 134.635 47.57 134.531 48.0127C134.453 48.4033 134.31 48.859 134.102 49.3799C133.919 49.9007 133.711 50.4215 133.477 50.9424C133.268 51.4372 133.047 51.8929 132.812 52.3096C132.578 52.7002 132.383 52.9606 132.227 53.0908C131.211 54.0283 130.013 54.9137 128.633 55.7471C127.253 56.5544 125.807 57.2705 124.297 57.8955C122.812 58.4945 121.315 58.9762 119.805 59.3408C118.32 59.7054 116.953 59.8877 115.703 59.8877C115.078 59.8877 114.388 59.7705 113.633 59.5361C112.878 59.2757 112.174 58.9502 111.523 58.5596C110.898 58.1429 110.365 57.6742 109.922 57.1533C109.505 56.6325 109.297 56.1117 109.297 55.5908C109.297 55.3304 109.375 55.0439 109.531 54.7314C109.688 54.3929 109.883 54.0934 110.117 53.833C110.352 53.5465 110.599 53.3122 110.859 53.1299C111.146 52.9215 111.406 52.8174 111.641 52.8174Z" fill="white"/>
<path d="M182.812 52.583C183.203 51.0726 183.672 49.3148 184.219 47.3096C184.766 45.3044 185.339 43.182 185.938 40.9424C186.562 38.7028 187.188 36.4111 187.812 34.0674C188.438 31.7236 189.023 29.445 189.57 27.2314C189.596 27.1273 189.688 26.958 189.844 26.7236C190 26.4632 190.221 26.2158 190.508 25.9814C190.794 25.721 191.159 25.4997 191.602 25.3174C192.044 25.1351 192.565 25.0439 193.164 25.0439C193.607 25.0439 194.036 25.096 194.453 25.2002C194.87 25.2783 195.234 25.4085 195.547 25.5908C195.885 25.7731 196.146 26.0205 196.328 26.333C196.536 26.6195 196.641 26.958 196.641 27.3486C196.641 27.4268 196.641 27.5179 196.641 27.6221C196.641 27.7002 196.628 27.7783 196.602 27.8564L195.508 31.9971C194.284 36.6325 193.034 41.2809 191.758 45.9424C190.508 50.6038 189.284 55.2783 188.086 59.9658C188.034 60.1221 187.956 60.3174 187.852 60.5518C187.747 60.7861 187.604 61.0205 187.422 61.2549C187.24 61.4893 187.018 61.6846 186.758 61.8408C186.497 61.9971 186.185 62.0752 185.82 62.0752C185.143 62.0752 184.544 61.932 184.023 61.6455C183.503 61.3851 183.06 61.0465 182.695 60.6299C182.331 60.2132 182.057 59.7575 181.875 59.2627C181.693 58.7679 181.602 58.2992 181.602 57.8564C181.602 57.7262 181.602 57.609 181.602 57.5049C181.602 57.4007 181.628 57.2835 181.68 57.1533L182.812 52.583ZM193.008 12.1533C193.138 11.6064 193.372 10.9424 193.711 10.1611C194.049 9.37988 194.648 8.67676 195.508 8.05176C195.924 7.81738 196.432 7.60905 197.031 7.42676C197.63 7.21842 198.06 7.11426 198.32 7.11426C198.581 7.11426 198.841 7.2054 199.102 7.3877C199.388 7.56999 199.635 7.7653 199.844 7.97363C200.104 8.23405 200.352 8.52051 200.586 8.83301C201.237 8.88509 201.654 9.11947 201.836 9.53613C202.044 9.9528 202.148 10.4476 202.148 11.0205C202.148 11.4372 202.109 11.8148 202.031 12.1533C201.953 12.4919 201.888 12.7653 201.836 12.9736C201.68 13.5205 201.38 14.0283 200.938 14.4971C200.495 14.9398 199.987 15.3304 199.414 15.6689C198.841 15.9814 198.242 16.2288 197.617 16.4111C196.992 16.5934 196.445 16.6846 195.977 16.6846C195.378 16.6846 194.909 16.5804 194.57 16.3721C194.258 16.1637 193.854 15.721 193.359 15.0439C193.073 14.6533 192.904 14.3538 192.852 14.1455C192.826 13.9111 192.812 13.7158 192.812 13.5596C192.812 13.2731 192.826 13.0257 192.852 12.8174C192.904 12.583 192.956 12.3617 193.008 12.1533Z" fill="white"/>
<path d="M204.062 52.8174C204.271 52.8174 204.453 52.8434 204.609 52.8955C204.792 52.9476 204.987 53.0127 205.195 53.0908C205.404 53.1429 205.638 53.195 205.898 53.2471C206.159 53.2992 206.497 53.3252 206.914 53.3252C208.138 53.3252 209.492 53.195 210.977 52.9346C212.487 52.6742 213.906 52.3356 215.234 51.9189C216.562 51.5023 217.695 51.0335 218.633 50.5127C219.596 49.9658 220.143 49.4059 220.273 48.833C220.352 48.5205 220.391 48.2471 220.391 48.0127C220.391 47.57 220.169 47.1533 219.727 46.7627C219.31 46.346 218.776 45.9554 218.125 45.5908C217.474 45.2262 216.771 44.8877 216.016 44.5752C215.26 44.2627 214.557 43.9762 213.906 43.7158L212.578 43.1689C211.901 42.9085 211.237 42.596 210.586 42.2314C209.935 41.8408 209.323 41.3981 208.75 40.9033C208.203 40.4085 207.708 39.8356 207.266 39.1846C206.849 38.5075 206.536 37.7393 206.328 36.8799C206.224 36.5153 206.133 36.1507 206.055 35.7861C206.003 35.4215 205.977 35.0309 205.977 34.6143C205.977 33.9372 206.198 33.1689 206.641 32.3096C207.109 31.4242 207.721 30.5518 208.477 29.6924C209.258 28.833 210.13 28.0127 211.094 27.2314C212.083 26.4502 213.112 25.7992 214.18 25.2783C214.961 24.7314 215.716 24.2367 216.445 23.7939C217.174 23.3512 217.904 22.9736 218.633 22.6611C219.388 22.3486 220.143 22.1012 220.898 21.9189C221.68 21.7367 222.5 21.6455 223.359 21.6455C224.141 21.6455 224.987 21.6846 225.898 21.7627C226.81 21.8408 227.643 22.0231 228.398 22.3096C229.154 22.596 229.779 23.0257 230.273 23.5986C230.794 24.1455 231.055 24.8877 231.055 25.8252C231.055 26.1117 231.016 26.4893 230.938 26.958C230.859 27.4268 230.729 27.8955 230.547 28.3643C230.365 28.833 230.143 29.2367 229.883 29.5752C229.622 29.9137 229.31 30.083 228.945 30.083C228.346 30.083 227.852 29.9658 227.461 29.7314C227.07 29.4971 226.719 29.2497 226.406 28.9893C226.094 28.7028 225.768 28.4424 225.43 28.208C225.091 27.9736 224.674 27.8564 224.18 27.8564C223.581 27.8564 222.878 27.9736 222.07 28.208C221.289 28.4163 220.482 28.7158 219.648 29.1064C218.815 29.471 217.995 29.9007 217.188 30.3955C216.406 30.8903 215.69 31.3981 215.039 31.9189C214.414 32.4398 213.906 32.9606 213.516 33.4814C213.125 33.9762 212.93 34.432 212.93 34.8486C212.93 35.2913 213.073 35.6559 213.359 35.9424C213.646 36.2288 214.01 36.4762 214.453 36.6846C215.026 36.9971 215.677 37.3096 216.406 37.6221C217.161 37.9346 217.917 38.2471 218.672 38.5596C219.427 38.8721 220.156 39.1846 220.859 39.4971C221.589 39.8096 222.214 40.096 222.734 40.3564C223.438 40.721 224.062 41.0856 224.609 41.4502C225.182 41.7887 225.664 42.1663 226.055 42.583C226.445 42.9997 226.745 43.4684 226.953 43.9893C227.161 44.5101 227.266 45.1221 227.266 45.8252C227.266 46.1637 227.24 46.5023 227.188 46.8408C227.135 47.1794 227.057 47.57 226.953 48.0127C226.875 48.4033 226.732 48.859 226.523 49.3799C226.341 49.9007 226.133 50.4215 225.898 50.9424C225.69 51.4372 225.469 51.8929 225.234 52.3096C225 52.7002 224.805 52.9606 224.648 53.0908C223.633 54.0283 222.435 54.9137 221.055 55.7471C219.674 56.5544 218.229 57.2705 216.719 57.8955C215.234 58.4945 213.737 58.9762 212.227 59.3408C210.742 59.7054 209.375 59.8877 208.125 59.8877C207.5 59.8877 206.81 59.7705 206.055 59.5361C205.299 59.2757 204.596 58.9502 203.945 58.5596C203.32 58.1429 202.786 57.6742 202.344 57.1533C201.927 56.6325 201.719 56.1117 201.719 55.5908C201.719 55.3304 201.797 55.0439 201.953 54.7314C202.109 54.3929 202.305 54.0934 202.539 53.833C202.773 53.5465 203.021 53.3122 203.281 53.1299C203.568 52.9215 203.828 52.8174 204.062 52.8174Z" fill="white"/>
<path d="M275.352 57.1533C276.133 54.1064 276.888 51.2679 277.617 48.6377C278.346 46.0075 279.049 43.4945 279.727 41.0986C280.43 38.6768 281.107 36.333 281.758 34.0674C282.409 31.8018 283.034 29.4971 283.633 27.1533C283.867 26.2419 283.997 25.3695 284.023 24.5361C284.076 23.6768 284.206 22.7913 284.414 21.8799C284.518 21.5674 284.701 21.2939 284.961 21.0596C285.247 20.7992 285.56 20.5778 285.898 20.3955C286.237 20.2132 286.589 20.07 286.953 19.9658C287.344 19.8617 287.708 19.8096 288.047 19.8096C288.776 19.8096 289.375 19.9007 289.844 20.083C290.339 20.2393 290.729 20.4606 291.016 20.7471C291.328 21.0335 291.536 21.3851 291.641 21.8018C291.771 22.1924 291.836 22.6351 291.836 23.1299C291.836 24.0153 291.693 24.9137 291.406 25.8252C291.12 26.7106 290.768 27.6872 290.352 28.7549C291.576 27.7913 292.826 26.8799 294.102 26.0205C295.404 25.1611 296.732 24.4059 298.086 23.7549C299.466 23.1038 300.872 22.583 302.305 22.1924C303.737 21.8018 305.221 21.6064 306.758 21.6064C307.461 21.6064 308.164 21.7236 308.867 21.958C309.57 22.1663 310.195 22.5049 310.742 22.9736C311.315 23.4424 311.784 24.0544 312.148 24.8096C312.539 25.5648 312.76 26.4893 312.812 27.583C313.932 26.8278 315.091 26.0726 316.289 25.3174C317.487 24.5361 318.698 23.846 319.922 23.2471C321.172 22.6221 322.409 22.1273 323.633 21.7627C324.883 21.3721 326.094 21.1768 327.266 21.1768C329.01 21.1768 330.443 21.4111 331.562 21.8799C332.708 22.3226 333.607 22.9346 334.258 23.7158C334.935 24.471 335.404 25.3564 335.664 26.3721C335.951 27.3877 336.094 28.4684 336.094 29.6143C336.094 30.8643 335.977 32.1533 335.742 33.4814C335.508 34.8096 335.247 36.0726 334.961 37.2705C334.206 40.2913 333.359 43.1559 332.422 45.8643C331.484 48.5465 330.469 51.2679 329.375 54.0283C329.115 54.6794 328.841 55.3695 328.555 56.0986C328.268 56.8278 327.93 57.5049 327.539 58.1299C327.174 58.7288 326.732 59.2367 326.211 59.6533C325.716 60.0439 325.13 60.2393 324.453 60.2393C322.917 60.2393 321.862 59.9788 321.289 59.458C320.716 58.9372 320.43 58.195 320.43 57.2314C320.43 56.971 320.443 56.6715 320.469 56.333C320.495 55.9945 320.56 55.6689 320.664 55.3564C320.768 54.9658 321.003 54.4059 321.367 53.6768C321.732 52.9215 322.122 52.1143 322.539 51.2549C322.982 50.3955 323.411 49.5361 323.828 48.6768C324.245 47.7913 324.557 47.0231 324.766 46.3721C325.104 45.2523 325.495 43.9632 325.938 42.5049C326.406 41.0205 326.849 39.5361 327.266 38.0518C327.682 36.5413 328.021 35.1221 328.281 33.7939C328.568 32.4398 328.711 31.346 328.711 30.5127C328.711 30.1221 328.672 29.7314 328.594 29.3408C328.516 28.9502 328.372 28.6117 328.164 28.3252C327.982 28.0387 327.708 27.8044 327.344 27.6221C327.005 27.4398 326.562 27.3486 326.016 27.3486C325.234 27.3486 324.297 27.57 323.203 28.0127C322.135 28.4554 321.016 29.0413 319.844 29.7705C318.698 30.4736 317.578 31.2809 316.484 32.1924C315.391 33.0778 314.453 33.9632 313.672 34.8486C313.125 35.4736 312.604 35.9814 312.109 36.3721C311.615 36.7627 311.12 37.0622 310.625 37.2705C310.573 37.3747 310.443 37.7262 310.234 38.3252C310.026 38.8981 309.779 39.6012 309.492 40.4346C309.206 41.2419 308.906 42.1273 308.594 43.0908C308.281 44.0283 307.982 44.9137 307.695 45.7471C307.435 46.5544 307.214 47.2445 307.031 47.8174C306.849 48.3643 306.758 48.6637 306.758 48.7158C306.576 49.445 306.419 50.2002 306.289 50.9814C306.159 51.7367 306.042 52.4658 305.938 53.1689C305.833 53.8721 305.729 54.6273 305.625 55.4346C305.547 56.2158 305.365 56.958 305.078 57.6611C304.818 58.3382 304.401 58.8981 303.828 59.3408C303.281 59.7835 302.5 60.0049 301.484 60.0049C300.964 60.0049 300.482 59.8747 300.039 59.6143C299.622 59.3538 299.258 59.0283 298.945 58.6377C298.633 58.221 298.385 57.7653 298.203 57.2705C298.021 56.7497 297.917 56.2288 297.891 55.708C298.49 53.3643 299.076 51.2549 299.648 49.3799C300.221 47.5049 300.794 45.708 301.367 43.9893C301.94 42.2705 302.487 40.5518 303.008 38.833C303.555 37.0882 304.089 35.1742 304.609 33.0908C304.74 32.596 304.844 32.1143 304.922 31.6455C305 31.1507 305.039 30.721 305.039 30.3564C305.039 29.7314 304.909 29.2236 304.648 28.833C304.388 28.4163 303.932 28.208 303.281 28.208C302.214 28.208 301.146 28.4294 300.078 28.8721C299.036 29.2887 297.904 29.9528 296.68 30.8643C295.456 31.7757 294.089 32.9346 292.578 34.3408C291.094 35.7471 289.375 37.4268 287.422 39.3799C287.214 39.7705 286.94 40.4997 286.602 41.5674C286.263 42.6351 285.911 43.7679 285.547 44.9658C285.208 46.1637 284.896 47.2835 284.609 48.3252C284.323 49.3408 284.141 50.0179 284.062 50.3564C283.776 51.4502 283.581 52.3747 283.477 53.1299C283.372 53.859 283.281 54.5231 283.203 55.1221C283.151 55.4346 283.073 55.9554 282.969 56.6846C282.865 57.3877 282.669 58.1038 282.383 58.833C282.122 59.5622 281.745 60.2002 281.25 60.7471C280.755 61.32 280.104 61.6064 279.297 61.6064C278.099 61.6064 277.109 61.2809 276.328 60.6299C275.573 59.9788 275.195 59.1585 275.195 58.1689C275.195 57.9867 275.208 57.8174 275.234 57.6611C275.26 57.5049 275.299 57.3356 275.352 57.1533Z" fill="white"/>
<path d="M343.516 44.6533C343.516 43.5335 343.815 42.583 344.414 41.8018C345.013 41.0205 345.807 40.4997 346.797 40.2393C347.083 39.6663 347.526 38.8981 348.125 37.9346C348.724 36.945 349.466 35.8773 350.352 34.7314C351.237 33.5856 352.24 32.4398 353.359 31.2939C354.505 30.1221 355.755 29.0674 357.109 28.1299C358.49 27.1663 359.961 26.3851 361.523 25.7861C363.112 25.1872 364.792 24.8877 366.562 24.8877C368.073 24.8877 369.388 25.07 370.508 25.4346C371.628 25.7992 372.552 26.307 373.281 26.958C374.01 27.609 374.557 28.3903 374.922 29.3018C375.286 30.1872 375.469 31.1507 375.469 32.1924C375.469 33.0778 375.352 33.9242 375.117 34.7314C374.753 36.1898 374.076 37.4658 373.086 38.5596C372.096 39.6533 370.924 40.6169 369.57 41.4502C368.242 42.2575 366.784 42.9346 365.195 43.4814C363.633 44.0283 362.057 44.484 360.469 44.8486C358.906 45.2132 357.396 45.4997 355.938 45.708C354.479 45.8903 353.216 46.0335 352.148 46.1377C351.914 46.6064 351.706 47.2054 351.523 47.9346C351.367 48.6377 351.289 49.3278 351.289 50.0049C351.289 51.5153 351.888 52.6872 353.086 53.5205C354.284 54.3538 355.938 54.7705 358.047 54.7705C359.271 54.7705 360.443 54.6403 361.562 54.3799C362.682 54.0934 363.737 53.7419 364.727 53.3252C365.742 52.8825 366.693 52.4137 367.578 51.9189C368.464 51.3981 369.271 50.8903 370 50.3955C370.938 49.7705 371.823 49.2497 372.656 48.833C373.516 48.3903 374.271 48.1689 374.922 48.1689C375.573 48.1689 375.99 48.3382 376.172 48.6768C376.354 48.9893 376.445 49.3278 376.445 49.6924C376.445 49.9007 376.432 50.109 376.406 50.3174C376.406 50.4997 376.393 50.6559 376.367 50.7861C376.237 51.4632 375.977 52.1403 375.586 52.8174C375.195 53.4945 374.701 54.0804 374.102 54.5752C371.393 56.7106 368.607 58.234 365.742 59.1455C362.904 60.057 359.87 60.5127 356.641 60.5127C356.016 60.5127 355.273 60.4736 354.414 60.3955C353.581 60.3174 352.708 60.1611 351.797 59.9268C350.885 59.6924 349.987 59.3538 349.102 58.9111C348.216 58.4684 347.422 57.8825 346.719 57.1533C346.042 56.4242 345.482 55.5257 345.039 54.458C344.622 53.3903 344.414 52.1012 344.414 50.5908C344.414 49.3669 344.583 47.9997 344.922 46.4893C344.583 46.4372 344.258 46.2679 343.945 45.9814C343.659 45.6689 343.516 45.2262 343.516 44.6533ZM367.969 33.833C368.021 33.7028 368.047 33.5856 368.047 33.4814C368.047 33.3773 368.047 33.2601 368.047 33.1299C368.047 32.4268 367.786 31.9059 367.266 31.5674C366.745 31.2028 366.12 31.0205 365.391 31.0205C364.245 31.0205 363.112 31.32 361.992 31.9189C360.898 32.5179 359.857 33.2731 358.867 34.1846C357.904 35.07 357.044 36.0335 356.289 37.0752C355.534 38.0908 354.948 39.0153 354.531 39.8486C356.406 39.6924 358.125 39.445 359.688 39.1064C361.25 38.7419 362.604 38.2992 363.75 37.7783C364.922 37.2314 365.859 36.6325 366.562 35.9814C367.292 35.3044 367.76 34.5882 367.969 33.833Z" fill="white"/>
<path fill-rule="evenodd" clip-rule="evenodd" d="M179.621 235.036L221.572 210.815L217.572 203.887L188.844 220.473C196.271 198.137 207.228 184.843 219.498 176.426C233.563 166.779 249.768 163.231 265.779 160.423C267.488 160.123 269.201 159.831 270.911 159.539C277.101 158.482 283.244 157.434 288.978 156.076C296.327 154.335 303.343 152.015 309.409 148.285C315.543 144.512 320.641 139.334 324.16 132.037C327.651 124.797 329.483 115.692 329.483 104.184L321.483 104.184C321.483 114.88 319.775 122.711 316.954 128.562C314.16 134.355 310.173 138.423 305.218 141.47C300.194 144.56 294.115 146.637 287.134 148.291C281.672 149.585 275.865 150.577 269.718 151.626C267.972 151.925 266.198 152.227 264.397 152.543C248.335 155.36 230.591 159.117 214.973 169.829C201.796 178.868 190.419 192.643 182.541 214.251L176.272 189.846L168.523 191.836L179.621 235.036Z" fill="white"/>
</svg>
